<svg width="414" height="400" viewBox="0 0 414 400" fill="none" xmlns="http://www.w3.org/2000/svg">
<path d="M403.466 393.516C399.651 393.1 395.872 392.788 392.023 392.614C390.948 392.58 80.3727 392.441 80.3727 392.441C80.13 392.476 79.922 392.476 79.6793 392.476C79.4019 392.51 79.1244 392.51 78.8817 392.545C77.044 392.545 11.8914 392.441 11.8914 392.441C11.6487 392.476 11.4407 392.476 11.198 392.476C9.53363 392.58 7.86926 392.718 6.20491 392.926C1.94 393.377 1.94 399.098 6.20491 399.514C7.86926 399.688 9.53363 399.827 11.198 399.965C11.406 400 11.6486 400 11.8567 400C11.8567 400 57.0371 399.896 78.9164 399.861C79.1938 399.896 79.4365 399.931 79.7139 399.931C79.9219 399.965 80.1646 399.965 80.3727 399.965C80.3727 399.965 391.018 399.827 392.093 399.792C395.941 399.619 399.721 399.306 403.5 398.89C406.933 398.578 406.968 393.932 403.466 393.516Z" fill="#C6C6C6"/>
<path d="M219.45 10.8182C208.181 -0.589616 185.47 -3.12079 171.323 3.91805C143.479 17.7877 144.45 54.1607 137.377 79.8195C132.869 96.2204 124.478 111.685 112.342 123.613C91.1216 144.487 60.6085 153.051 37.4115 171.671C12.0994 191.99 -3.15718 225.139 0.552948 257.385C4.26307 289.632 28.1188 319.348 59.5335 327.496C78.9163 332.524 99.7208 329.681 119 335.055C133.701 339.147 146.704 347.781 160.816 353.571C180.269 361.512 201.454 363.87 222.363 365.95C243.583 368.065 265.602 369.833 285.643 362.587C310.296 353.675 328.708 331.865 338.729 307.628C346.878 287.968 350.206 266.331 348.334 245.146C347.086 231.103 343.618 217.164 344.346 203.086C345.283 184.674 353.327 167.406 356.898 149.306C362.065 123.162 357.488 95.2149 344.242 72.0873C340.983 66.3661 336.995 60.7836 331.24 57.5935C325.553 54.4729 318.826 54.0914 312.342 53.9874C298.542 53.814 284.603 54.6115 270.976 52.427C257.349 50.2079 243.653 44.5907 234.984 33.8071C229.263 26.5949 225.969 17.4062 219.45 10.8182Z" fill="#F6F6F6"/>
<path d="M411.198 361.893H162.412C161.129 361.893 160.088 360.853 160.088 359.57C160.088 358.287 161.129 357.247 162.412 357.247H411.198C412.481 357.247 413.521 358.287 413.521 359.57C413.521 360.853 412.481 361.893 411.198 361.893Z" fill="#FA763C"/>
<path d="M170.283 371.498C168.098 371.498 166.33 369.73 166.33 367.545V351.63C166.33 349.445 168.098 347.677 170.283 347.677C172.467 347.677 174.236 349.445 174.236 351.63V367.545C174.236 369.73 172.467 371.498 170.283 371.498Z" fill="#FA763C"/>
<path d="M178.154 385.402C175.969 385.402 174.201 383.634 174.201 381.449V337.691C174.201 335.506 175.969 333.738 178.154 333.738C180.338 333.738 182.107 335.506 182.107 337.691V381.449C182.107 383.634 180.338 385.402 178.154 385.402Z" fill="#FA763C"/>
<path d="M186.059 392.025C183.875 392.025 182.106 390.257 182.106 388.072V332.386C182.106 330.201 183.875 328.433 186.059 328.433C188.244 328.433 190.012 330.201 190.012 332.386V388.072C189.977 390.257 188.209 392.025 186.059 392.025Z" fill="#FA763C"/>
<path d="M399.86 371.498C402.044 371.498 403.812 369.73 403.812 367.545V351.63C403.812 349.445 402.044 347.677 399.86 347.677C397.675 347.677 395.907 349.445 395.907 351.63V367.545C395.941 369.73 397.71 371.498 399.86 371.498Z" fill="#FA763C"/>
<path d="M391.988 385.402C394.173 385.402 395.941 383.634 395.941 381.449V337.691C395.941 335.506 394.173 333.738 391.988 333.738C389.804 333.738 388.036 335.506 388.036 337.691V381.449C388.036 383.634 389.804 385.402 391.988 385.402Z" fill="#FA763C"/>
<path d="M384.117 392.025C386.302 392.025 388.07 390.257 388.07 388.072V332.386C388.07 330.201 386.302 328.433 384.117 328.433C381.933 328.433 380.165 330.201 380.165 332.386V388.072C380.165 390.257 381.933 392.025 384.117 392.025Z" fill="#FA763C"/>
<path d="M185.643 177.08C184.291 178.363 182.835 179.404 181.309 180.374C177.426 182.836 173.161 184.674 169.416 187.309C168.93 187.656 168.445 188.038 167.994 188.384C162.516 192.823 156.829 196.117 150.623 199.515C136.857 207.074 123.958 213.662 119.034 216.158C101.975 224.861 70.7681 232.143 59.6377 234.57C57.0718 235.16 55.5462 235.437 55.5462 235.437C55.5462 235.437 49.3048 227.254 54.8873 220.076C54.8873 220.076 102.079 199.723 109.742 194.626C119.173 188.384 127.495 179.612 136.233 172.33C139.353 169.73 142.509 167.129 145.664 164.563C152.703 158.807 159.846 153.225 167.023 147.746C170.872 144.834 175.553 141.158 180.581 140.811C181.794 140.707 183.043 140.811 184.326 141.193C186.857 141.921 189.041 143.793 190.636 145.943C191.122 146.602 191.538 147.226 191.919 147.885C197.675 157.767 193.549 169.695 185.643 177.08Z" fill="#F5A784"/>
<path d="M54.8179 220.18C56.4823 220.804 57.4878 221.429 57.4878 221.429C57.4878 221.429 63.3477 229.473 59.6029 234.605C59.5683 234.674 58.424 234.986 56.6556 235.61C55.0259 236.165 52.8761 236.962 50.4489 237.933C48.6806 238.661 41.7458 242.926 40.2201 241.47C39.8734 241.158 39.7347 240.673 39.5613 240.257C38.9719 238.523 38.3824 236.754 37.7929 235.021C36.822 232.004 35.227 226.942 38.7638 225.173C36.614 225.451 31.5169 226.179 30.0606 224.064L29.9565 222.399C29.9565 222.399 37.7582 220.596 41.1563 219.452C46.5308 217.649 51.8013 218.967 54.8179 220.18Z" fill="#F5A784"/>
<path d="M210.539 274.237C160.054 284.882 97.1551 291.089 97.1551 291.089C98.6114 297.4 97.3978 309.536 95.0746 322.92C91.5378 343.273 85.5392 366.54 82.8347 376.595C82.4532 377.947 81.4477 381.658 81.4477 381.658C72.2244 384.258 65.3243 378.918 65.3243 378.918C65.359 378.502 65.359 378.051 65.359 377.635C65.3937 376.526 65.4283 375.382 65.4283 374.099C65.9137 343.62 60.0538 276.11 73.334 267.927C96.739 253.467 181.378 229.785 195.595 228.78C205.408 228.121 214.978 229.716 219.243 237.032C221.011 240.118 221.878 244.279 221.392 249.688C221.358 250.347 221.254 251.006 221.15 251.665C218.272 269.73 233.771 269.314 210.539 274.237Z" fill="#F5A784"/>
<path d="M207.973 118.412C208.389 118.932 208.909 119.452 209.603 119.972C211.822 121.636 214.353 123.162 217.162 123.127C219.069 123.127 220.837 122.157 222.709 122.399C224.096 122.573 225.206 123.648 226.732 123.613C228.119 123.578 229.61 122.815 229.991 121.498C230.442 119.972 229.332 118.238 229.922 116.782C230.684 114.84 233.424 114.944 235.261 113.973C237.342 112.829 238.105 110.298 238.694 108.01C239.422 105.236 240.116 102.462 240.844 99.7225C241.364 97.7807 241.85 95.7696 241.746 93.7585C241.607 91.7474 240.74 89.667 239.006 88.5921C236.544 87.0665 233.042 87.8639 230.893 85.9569C229.818 85.0207 229.332 83.5643 228.223 82.6628C225.657 80.617 221.947 82.6628 218.653 82.6975C214.214 82.7322 210.573 78.9874 206.17 78.2939C202.806 77.7738 199.27 79.2648 197.016 81.8306C194.97 84.1885 193.826 87.5865 193.861 90.7072C193.895 93.4118 195.248 94.8334 196.392 97.2952C198.438 101.595 197.744 107.143 200.934 110.679C202.529 112.448 204.54 113.523 205.962 115.465C206.759 116.539 207.245 117.476 207.973 118.412Z" fill="#00103D"/>
<path d="M202.46 105.894C202.46 105.894 199.374 102.219 196.323 105.894C193.271 109.57 198.472 116.643 202.46 116.955C202.46 116.921 202.911 107.455 202.46 105.894Z" fill="#E0855C"/>
<path d="M254.887 163.003C253.466 166.886 251.87 170.701 250.588 174.653C250.275 175.59 249.998 176.56 249.755 177.566C249.305 179.404 248.888 181.241 248.507 183.045C248.264 184.189 248.056 185.229 247.918 186.269C246.739 193.481 243.202 228.329 242.647 233.807C242.613 234.258 242.578 234.536 242.578 234.536C226.385 238.974 209.846 238.246 198.854 236.859C190.983 235.853 185.99 234.536 185.99 234.536C185.99 234.536 185.955 234.015 185.816 232.975C185.782 232.524 185.712 232.039 185.678 231.415C184.915 223.44 182.869 201.422 181.309 180.409C181.205 179.196 180.858 174.515 180.789 173.44C179.956 160.992 179.402 149.48 179.54 142.372C179.54 141.713 179.922 141.262 180.546 140.916C182.453 139.841 186.683 139.91 189.839 139.459C190.567 139.355 191.295 139.286 192.023 139.182C192.751 139.078 193.479 139.043 194.208 138.974C195.872 138.835 197.502 138.662 199.027 138.592C201.489 138.454 203.639 138.419 204.991 138.384C205.234 138.35 205.477 138.35 205.685 138.35C206.239 138.35 206.552 138.35 206.552 138.35L206.933 134.258C206.933 134.223 207.21 131.554 207.21 131.554L207.904 124.237C208.355 124.341 208.805 124.445 209.291 124.48C210.227 124.653 211.094 124.723 211.961 124.757C213.14 124.792 214.214 124.792 215.289 124.723C215.809 124.688 216.33 124.619 216.815 124.549C217.543 124.445 218.237 124.341 218.895 124.203C220.04 123.96 221.115 123.648 222.12 123.336C222.432 123.232 222.744 123.162 223.056 123.024C223.16 122.989 223.23 122.989 223.299 122.92C223.542 122.816 223.784 122.746 224.027 122.642C225.518 122.053 226.801 121.359 227.841 120.735C228.5 120.354 229.09 119.972 229.54 119.66C229.714 119.556 229.783 119.487 229.853 119.452C230.095 119.279 230.303 119.14 230.477 119.002C230.719 118.828 230.858 118.724 230.893 118.689C230.789 119.21 230.754 119.418 230.719 119.626C230.442 121.949 230.095 124.931 229.957 127.878C229.853 130.791 228.049 134.015 230.719 136.339C231.725 137.205 233.008 137.691 234.256 138.107C236.128 138.731 238.035 139.251 239.943 139.667C242.3 140.187 244.728 140.534 247.12 140.742C248.403 140.846 249.755 140.915 251.038 141.193C251.836 141.366 252.599 141.574 253.258 141.921C255.858 143.239 257.384 146.151 257.696 149.029C258.181 153.398 256.378 158.877 254.887 163.003Z" fill="#F5A784"/>
<path d="M230.928 118.62C227.356 134.847 211.025 133.738 207.211 131.588L207.904 124.272C221.323 126.976 230.928 118.62 230.928 118.62Z" fill="#E0855C"/>
<path d="M203.153 95.2144C201.108 97.3295 200.934 102.08 200.761 107.35C200.241 123.3 205.026 128.259 213.174 129.126C221.323 129.992 229.818 126.872 231.586 112.101C232.453 104.715 233.389 97.8843 230.719 94.6943C226.697 89.9786 209.429 88.7303 203.153 95.2144Z" fill="#F5A784"/>
<path d="M230.442 109.986C230.442 109.986 232.938 103.398 236.856 106.9C240.775 110.402 235.365 120.354 229.332 119.626C229.367 119.626 228.535 112.275 230.442 109.986Z" fill="#F5A784"/>
<path d="M235.054 109.917C234.187 110.055 233.285 110.887 232.661 111.477C232.002 112.101 231.239 112.864 230.893 113.696C230.789 113.973 231.17 114.112 231.343 113.973C231.864 113.488 232.245 112.933 232.73 112.413C233.077 112.795 233.424 113.141 233.875 113.315C234.221 113.453 234.499 113.003 234.36 112.69C234.152 112.309 233.771 112.032 233.424 111.789C234.048 111.303 234.811 110.922 235.331 110.367C235.504 110.159 235.296 109.847 235.054 109.917Z" fill="#E0855C"/>
<path d="M214.041 113.488C213.348 113.384 211.753 113.8 211.406 113.037C211.128 112.413 212.238 108.703 212.411 108.079C212.966 105.791 213.59 104.23 214.006 101.491C214.041 101.387 213.833 101.318 213.764 101.422C212.134 105.062 211.545 109.57 210.574 113.453C210.504 113.662 210.678 113.904 210.92 113.904C211.961 113.904 212.931 114.112 213.972 114.112C214.284 114.112 214.388 113.558 214.041 113.488Z" fill="#E0855C"/>
<path d="M209.291 99.5839C208.32 99.0638 206.447 98.9599 205.754 99.9654C205.615 100.139 205.789 100.451 206.031 100.416C206.517 100.381 206.967 100.139 207.453 100.104C207.973 100.069 208.493 100.173 208.979 100.347C209.429 100.52 209.741 99.8267 209.291 99.5839Z" fill="#00103D"/>
<path d="M223.819 100.797C223.264 99.4104 220.802 99.2717 219.762 100.139C219.52 100.347 219.693 100.728 219.936 100.797C220.56 100.971 221.184 100.763 221.808 100.832C222.363 100.867 222.814 101.109 223.334 101.317C223.576 101.352 223.923 101.075 223.819 100.797Z" fill="#00103D"/>
<path d="M218.792 105.167C219.867 104.716 221.115 104.681 222.259 104.785C223.23 104.854 224.478 104.993 225.172 105.756C225.241 105.825 225.241 105.964 225.102 105.999C224.166 106.137 223.195 105.721 222.259 105.652C221.149 105.548 220.109 105.791 219 105.86C218.618 105.895 218.445 105.34 218.792 105.167Z" fill="#00103D"/>
<path d="M206.655 104.161C207.73 104.161 208.84 104.473 209.672 105.167C210.157 105.583 209.533 106.242 209.048 105.999C208.181 105.617 207.453 105.305 206.482 105.34C205.719 105.375 205.06 105.86 204.332 105.791C204.02 105.756 203.847 105.479 203.985 105.201C204.436 104.334 205.754 104.161 206.655 104.161Z" fill="#00103D"/>
<path d="M209.846 117.961C211.406 118.273 212.793 118.793 214.423 118.516C215.914 118.273 216.954 117.372 218.306 116.886C218.583 116.782 218.757 117.129 218.653 117.337C217.196 120.146 211.683 120.527 209.429 118.689C209.083 118.377 209.464 117.857 209.846 117.961Z" fill="#E0855C"/>
<path d="M372.467 377.427C371.357 380.825 370.144 384.258 368.583 387.483C366.087 392.684 360.192 392.233 354.957 392.129C353.396 392.094 351.767 392.025 350.518 391.089C349.27 390.187 348.75 388.072 349.964 387.101C350.414 386.755 350.969 386.581 351.489 386.408C354.367 385.333 355.927 382.663 357.314 380.097C359.013 376.872 359.464 372.191 359.291 368.551C358.736 368.447 356.031 367.961 355.234 367.822C322.467 361.72 289.596 351.907 259.776 336.858C214.076 313.835 197.432 233.46 197.606 232.732C200.276 220.839 227.46 216.886 242.647 233.772C257.835 250.693 267.266 305.964 276.524 311.234C286.233 316.782 341.815 346.012 368.202 354.473C369.658 354.924 371.011 355.34 372.294 355.687C379.54 357.628 374.235 372.087 372.467 377.427Z" fill="#F5A784"/>
<path d="M81.205 393.169C79.0552 394.729 76.108 394.521 73.6115 394.66C68.0983 394.972 62.5851 394.764 57.1066 394.591C53.5005 394.487 49.8944 394.348 46.2883 394.14C43.3063 393.966 38.5906 394.521 36.0594 392.926C35.7474 392.718 35.4006 392.475 35.3313 392.094C35.2619 391.782 35.366 391.435 35.5393 391.158C36.1981 390.014 37.4811 389.459 38.6947 389.043C44.2079 387.136 50.1024 386.442 55.5462 384.396C59.291 383.009 62.8625 380.756 65.359 377.6C65.6711 377.184 65.9832 376.803 66.2259 376.352C66.6073 375.693 66.9193 375 67.2314 374.341C68.1676 372.191 68.8611 370.111 71.3923 369.001C76.6281 366.678 83.5975 370.388 82.8347 376.56C82.696 377.635 82.592 378.675 82.5226 379.75C82.488 380.339 82.4186 380.964 82.4186 381.553C82.1759 385.506 85.2272 390.256 81.205 393.169Z" fill="#F5A784"/>
<path d="M263.972 246.983L280.789 270.805C277.773 272.954 277.044 277.115 279.194 280.132C281.344 283.149 285.505 283.877 288.521 281.727L295.595 276.734C298.612 274.584 299.34 270.423 297.19 267.406C295.04 264.39 290.879 263.662 287.863 265.811L271.046 241.99C274.062 239.841 274.791 235.68 272.641 232.663C270.491 229.646 266.33 228.918 263.313 231.068L256.24 236.061C253.223 238.211 252.495 242.372 254.645 245.388C256.795 248.405 260.956 249.133 263.972 246.983Z" fill="#3965CF"/>
<path d="M311.302 185.645C309.811 179.958 305.65 175.381 301.455 171.29C298.265 168.135 294.971 164.979 291.538 161.997C279.887 151.63 266.85 142.857 251.108 141.193C250.692 141.158 250.311 141.089 249.964 141.089C245.734 140.777 241.434 141.748 238.175 143.932C235.262 145.839 233.147 148.752 232.696 152.427C232.523 153.849 232.592 155.34 232.939 156.969C233.32 158.668 233.91 160.264 234.707 161.72C237.897 167.649 244.173 171.602 250.553 174.723C253.431 176.11 256.309 177.358 258.944 178.537C264.319 180.929 269.832 183.114 275.033 185.784C278.57 187.587 281.933 189.667 285.019 192.164C285.817 192.823 286.614 193.516 287.065 194.418C287.585 195.562 287.481 196.879 287.377 198.162C286.06 212.691 286.753 230.964 278.639 243.655C277.356 245.631 275.692 247.399 273.404 248.89C272.433 249.48 271.427 250.104 270.491 250.728C269 251.664 267.648 252.774 266.538 254.126C264.7 256.345 263.764 259.639 265.22 262.136C268.272 267.406 277.842 269.001 281.413 264.147C282.245 263.003 283.043 261.859 283.84 260.68C285.123 258.773 286.337 256.762 287.481 254.785C290.602 249.376 293.376 243.793 296.011 238.28C300.068 229.889 304.055 221.429 307.488 212.795C310.539 205.062 313.452 193.793 311.302 185.645ZM278.951 247.122C278.986 247.053 279.021 246.983 279.09 246.914C279.09 247.018 279.021 247.053 278.951 247.122Z" fill="#F5A784"/>
<path d="M81.205 393.169C79.0552 394.729 76.108 394.521 73.6115 394.66C67.4048 395.041 61.1981 394.729 55.0261 394.521C52.0095 394.417 49.0275 394.244 46.0109 394.105C43.0289 393.966 38.5213 394.452 36.0594 392.926C35.7474 392.718 35.4006 392.475 35.3313 392.094C35.2619 391.782 35.366 391.435 35.5393 391.158C36.1981 390.013 37.4811 389.459 38.6947 389.043C44.2079 387.136 50.1024 386.442 55.5462 384.396C57.9387 383.495 60.3313 382.281 62.377 380.651C64.3534 379.091 65.4284 376.664 65.4284 374.133C66.0178 374.098 66.6419 374.202 67.2314 374.341C69.8666 375.104 72.0511 377.323 72.4325 380.027C74.8943 382.142 78.6045 380.339 81.8985 379.819C82.1066 379.785 82.28 379.75 82.488 379.715C82.4534 380.305 82.384 380.929 82.384 381.518C82.176 385.506 85.2272 390.256 81.205 393.169Z" fill="#00103D"/>
<path d="M372.467 377.427C371.358 380.825 370.144 384.258 368.584 387.483C366.087 392.684 360.193 392.233 354.957 392.129C353.397 392.095 351.767 392.025 350.519 391.089C349.27 390.187 348.75 388.072 349.964 387.102C350.415 386.755 350.97 386.581 351.49 386.408C354.368 385.333 355.928 382.663 357.315 380.097C359.014 376.873 359.465 372.192 359.291 368.551C358.737 368.447 360.228 365.673 362.031 365.326C362.967 365.153 363.903 365.118 364.804 364.841C366.92 364.147 368.341 361.963 368.688 359.709C368.965 358.01 368.445 356.207 368.203 354.508C369.659 354.959 371.011 355.375 372.294 355.721C379.541 357.628 374.236 372.088 372.467 377.427Z" fill="#00103D"/>
<path d="M39.8737 215.152L47.71 243.238C44.1386 244.244 42.0581 247.919 43.0636 251.491C44.0692 255.062 47.7446 257.143 51.3161 256.137L59.6725 253.814C63.244 252.808 65.3244 249.133 64.3188 245.561C63.3133 241.99 59.6378 239.91 56.0664 240.915L48.2301 212.829C51.8015 211.824 53.882 208.148 52.8764 204.577C51.8709 201.005 48.1954 198.925 44.624 199.93L36.2675 202.254C32.6961 203.259 30.6157 206.934 31.6212 210.506C32.6268 214.043 36.3022 216.123 39.8737 215.152Z" fill="#FA763C"/>
<path d="M47.8139 224.757C48.6461 225.693 49.2008 226.872 49.6862 228.016C50.5184 230.132 51.1079 232.42 50.9692 234.709C50.8305 236.997 49.825 239.286 47.9872 240.638C46.8083 241.505 45.352 241.955 43.8957 242.267C42.8555 242.476 41.8153 242.649 40.7751 242.441C38.9374 242.06 37.4464 240.569 36.6489 238.87C35.8514 237.17 35.6086 235.263 35.4353 233.391C35.1232 230.166 35.3312 226.456 38.3479 224.514C41.0871 222.746 45.4214 222.087 47.8139 224.757Z" fill="#F5A784"/>
<path d="M291.573 161.963C288.556 170.111 283.667 177.566 277.391 183.599C276.663 184.293 275.9 184.986 275.103 185.645C269.902 182.975 264.388 180.791 259.014 178.398C256.413 177.254 253.501 176.006 250.623 174.584C250.311 175.52 250.033 176.491 249.791 177.497C249.34 179.334 248.924 181.172 248.542 182.975C248.3 184.119 248.092 185.16 247.953 186.2C246.774 193.412 243.237 228.259 242.682 233.738C242.648 234.189 242.613 234.466 242.613 234.466C226.42 238.904 209.881 238.176 198.889 236.789C191.018 235.784 186.025 234.466 186.025 234.466C186.025 234.466 185.99 233.946 185.852 232.906C185.817 232.455 185.748 231.97 185.713 231.345C184.95 223.37 182.904 201.352 181.344 180.34C177.46 182.802 173.196 184.639 169.451 187.275C164.562 185.784 160.123 183.079 156.24 179.785C155.338 179.022 154.506 178.225 153.709 177.393C150.657 174.203 146.774 169.417 145.734 164.598C152.773 158.842 159.915 153.259 167.093 147.781C170.942 144.868 175.623 141.193 180.651 140.846C182.558 139.771 186.788 139.841 189.943 139.39C190.671 139.286 191.399 139.216 192.128 139.112C192.856 139.008 193.584 138.939 194.312 138.904C194.624 145.839 196.67 152.809 201.871 157.212C208.112 162.483 217.717 162.587 224.964 158.703C227.981 157.073 230.581 154.854 232.8 152.289C235.019 149.723 236.822 146.845 238.279 143.793C238.903 142.51 239.423 141.193 239.908 139.875C239.943 139.771 240.013 139.632 240.013 139.528C242.37 140.049 244.798 140.395 247.19 140.603C248.473 140.707 249.825 140.777 251.108 141.054C266.885 142.753 279.922 151.63 291.573 161.963Z" fill="#658AE5"/>
<path d="M65.255 354.369C74.4783 360.263 88.2092 355.374 88.2092 355.374C100.033 333.53 100.935 293.758 100.935 293.758C100.935 293.758 168.618 288.731 195.421 288.731C201.247 288.731 205.65 289.91 209.256 291.99C222.398 299.549 225.588 318.863 248.75 336.928C278.292 359.986 333.286 363.211 333.286 363.211C341.261 357.281 340.81 343.516 340.81 343.516C340.81 343.516 332.488 333.322 316.85 324.48C314.007 322.85 310.886 321.255 307.557 319.799C286.649 310.645 276.559 302.843 275.935 302.358C265.567 267.164 242.856 231.38 242.856 231.38C210.123 239.043 185.366 228.675 185.366 228.675C171.08 228.675 81.0664 257.698 69.2772 267.164C57.488 276.595 55.997 348.44 65.255 354.369Z" fill="#00103D"/>
<path d="M100.935 293.724C100.935 293.724 168.618 288.696 195.422 288.696C201.247 288.696 205.65 289.875 209.257 291.956C209.153 291.227 206.24 276.214 179.541 276.976C152.183 277.774 100.935 293.724 100.935 293.724Z" fill="#000C2D"/>
<path d="M292.89 323.127C301.628 324.896 310.366 324.896 316.885 324.445C314.041 322.815 310.921 321.22 307.592 319.764C286.684 310.61 276.594 302.808 275.969 302.323C275.969 302.323 275.553 319.59 292.89 323.127Z" fill="#000C2D"/>
<path d="M181.309 180.409C177.426 182.871 173.161 184.709 169.416 187.344C164.527 185.853 160.054 183.218 156.205 179.854C169.277 176.699 181.309 180.409 181.309 180.409Z" fill="#3965CF"/>
<path d="M277.426 30.4436C272.537 35.8874 269.381 43.4117 265.879 49.7918C262.516 55.9638 257.315 63.0719 256.17 70.076C256.101 70.4228 256.482 70.7002 256.76 70.4228C261.822 65.4644 264.735 57.316 268.168 51.144C271.739 44.7293 276.559 38.2452 278.917 31.3104C279.229 30.4783 278.015 29.7501 277.426 30.4436Z" fill="#658AE5"/>
<path d="M333.771 63.3841C321.219 69.6601 309.152 77.3578 297.259 84.7781C285.921 91.8516 274.097 98.8904 263.798 107.49C263.001 108.148 264.006 109.327 264.873 108.876C276.836 102.219 288.07 94.0361 299.721 86.8585C311.406 79.6116 323.577 73.1622 335.262 65.9154C336.857 64.9098 335.435 62.5519 333.771 63.3841Z" fill="#658AE5"/>
<path d="M319.902 110.264C311.545 109.605 302.634 111.027 294.277 111.547C292.37 111.651 292.37 114.633 294.277 114.529C302.772 114.043 311.892 114.425 320.248 112.76C321.739 112.448 321.254 110.368 319.902 110.264Z" fill="#658AE5"/>
</svg>
