<svg width="300" height="300" viewBox="0 0 300 300" fill="none" xmlns="http://www.w3.org/2000/svg">
<rect width="300" height="300" rx="21.7195" fill="#2550B9"/>
<path d="M25.3032 46.7195L27.3665 42.5059L21.9693 31.0815H24.9231L28.7349 39.7475L32.6661 31.0815H35.457L28.0941 46.7195H25.3032ZM36.1994 46.7195V34.991H44.5614V37.4453H38.8166V46.7195H36.1994ZM45.3368 46.7195V44.5258C45.764 44.6055 46.0934 44.5982 46.3251 44.5041C46.5568 44.4027 46.7305 44.2145 46.8463 43.9394C46.9622 43.6643 47.0635 43.2987 47.1504 42.8426C47.2663 42.1982 47.3676 41.4561 47.4545 40.6163C47.5486 39.7765 47.6283 38.8788 47.6934 37.9231C47.7658 36.9674 47.831 35.9901 47.8889 34.991H56.5224V46.7195H53.916V37.4453H50.1911C50.1549 37.9159 50.1115 38.4444 50.0608 39.0308C50.0102 39.61 49.9559 40.1964 49.8979 40.7901C49.84 41.3837 49.7749 41.9484 49.7025 42.4842C49.6373 43.0127 49.5685 43.4652 49.4961 43.8417C49.3296 44.6887 49.0907 45.3584 48.7794 45.8507C48.4753 46.343 48.0482 46.6579 47.4979 46.7955C46.9477 46.9403 46.2273 46.915 45.3368 46.7195ZM64.9054 47.0453C63.7181 47.0453 62.6755 46.7883 61.7778 46.2742C60.8801 45.7602 60.1778 45.0471 59.671 44.1349C59.1715 43.2226 58.9217 42.1729 58.9217 40.9855C58.9217 39.7041 59.1678 38.5928 59.6601 37.6516C60.1525 36.7032 60.8366 35.9684 61.7126 35.4471C62.5887 34.9258 63.6022 34.6652 64.7534 34.6652C65.9697 34.6652 67.0013 34.9512 67.8484 35.5231C68.7027 36.0878 69.3362 36.8878 69.7488 37.9231C70.1615 38.9584 70.3172 40.1783 70.2158 41.5828H67.6203V40.6272C67.6131 39.353 67.3887 38.4226 66.947 37.8362C66.5054 37.2498 65.8104 36.9566 64.862 36.9566C63.7905 36.9566 62.9941 37.2896 62.4728 37.9557C61.9516 38.6145 61.6909 39.581 61.6909 40.8552C61.6909 42.0426 61.9516 42.962 62.4728 43.6136C62.9941 44.2652 63.7543 44.591 64.7534 44.591C65.3977 44.591 65.9516 44.4498 66.4149 44.1674C66.8855 43.8779 67.2475 43.4616 67.5009 42.9186L70.0855 43.7005C69.6366 44.7575 68.9416 45.5792 68.0004 46.1656C67.0665 46.7521 66.0348 47.0453 64.9054 47.0453ZM60.8656 41.5828V39.6064H68.9344V41.5828H60.8656ZM72.6172 46.7195V34.991H77.9493C78.333 34.991 78.6914 35.0127 79.0244 35.0561C79.3574 35.0996 79.6434 35.1539 79.8823 35.219C80.447 35.3855 80.9466 35.7113 81.381 36.1964C81.8154 36.6742 82.0326 37.3367 82.0326 38.1837C82.0326 38.6833 81.9529 39.096 81.7936 39.4217C81.6344 39.7403 81.4244 40.0082 81.1638 40.2254C81.0407 40.3267 80.914 40.4136 80.7837 40.486C80.6534 40.5584 80.523 40.6163 80.3927 40.6598C80.6751 40.7032 80.943 40.7865 81.1964 40.9095C81.5945 41.105 81.9276 41.3946 82.1954 41.7783C82.4706 42.162 82.6081 42.7014 82.6081 43.3964C82.6081 44.1855 82.4163 44.8516 82.0326 45.3946C81.6561 45.9303 81.1022 46.3032 80.371 46.5131C80.1031 46.5855 79.7954 46.6398 79.4479 46.676C79.1004 46.705 78.7457 46.7195 78.3837 46.7195H72.6172ZM75.2669 44.6996H78.1991C78.3511 44.6996 78.5176 44.6851 78.6986 44.6561C78.8796 44.6272 79.0425 44.5874 79.1873 44.5367C79.4479 44.4426 79.6362 44.276 79.752 44.0371C79.8751 43.7982 79.9366 43.5484 79.9366 43.2878C79.9366 42.9331 79.8461 42.6507 79.6651 42.4407C79.4914 42.2236 79.2814 42.0788 79.0353 42.0064C78.8905 41.9484 78.7312 41.9159 78.5574 41.9086C78.3909 41.8941 78.2534 41.8869 78.1448 41.8869H75.2669V44.6996ZM75.2669 39.8344H77.4389C77.6633 39.8344 77.8805 39.8236 78.0905 39.8018C78.3077 39.7729 78.4887 39.7258 78.6335 39.6607C78.8724 39.5665 79.0461 39.4073 79.1547 39.1828C79.2706 38.9584 79.3285 38.7086 79.3285 38.4335C79.3285 38.1439 79.2633 37.8833 79.133 37.6516C79.0099 37.4127 78.8108 37.2534 78.5357 37.1738C78.3547 37.1014 78.1339 37.0616 77.8733 37.0543C77.6199 37.0471 77.457 37.0435 77.3846 37.0435H75.2669V39.8344ZM89.9513 47.0453C88.7785 47.0453 87.754 46.781 86.878 46.2525C86.002 45.724 85.3215 44.9964 84.8364 44.0697C84.3586 43.1358 84.1197 42.0643 84.1197 40.8552C84.1197 39.6245 84.3658 38.5457 84.8581 37.619C85.3504 36.6923 86.0346 35.9684 86.9106 35.4471C87.7866 34.9258 88.8002 34.6652 89.9513 34.6652C91.1314 34.6652 92.1595 34.9294 93.0355 35.4579C93.9115 35.9864 94.5921 36.7177 95.0771 37.6516C95.5622 38.5783 95.8047 39.6462 95.8047 40.8552C95.8047 42.0715 95.5586 43.1466 95.0663 44.0806C94.5812 45.0073 93.9006 45.7349 93.0246 46.2634C92.1486 46.7846 91.1242 47.0453 89.9513 47.0453ZM89.9513 44.591C90.9939 44.591 91.7685 44.2435 92.2753 43.5484C92.7821 42.8534 93.0355 41.9557 93.0355 40.8552C93.0355 39.7186 92.7785 38.8136 92.2644 38.1403C91.7504 37.4598 90.9794 37.1195 89.9513 37.1195C89.2491 37.1195 88.6699 37.2788 88.2138 37.5973C87.7649 37.9086 87.4319 38.3466 87.2147 38.9113C86.9975 39.4688 86.8889 40.1168 86.8889 40.8552C86.8889 41.9919 87.1459 42.9005 87.6599 43.581C88.1812 44.2543 88.945 44.591 89.9513 44.591ZM97.3286 49.3258V44.667C97.9658 44.667 98.4182 44.4498 98.6861 44.0154C98.954 43.581 99.1676 42.8281 99.3268 41.7566C99.4282 41.1195 99.5115 40.4462 99.5766 39.7367C99.6418 39.0272 99.6961 38.2779 99.7395 37.4887C99.7902 36.6996 99.8336 35.867 99.8698 34.991H108.601V44.667H109.785V49.3258H107.309V46.7195H99.7938V49.3258H97.3286ZM100.836 44.667H105.995V37.0435H102.161C102.14 37.4779 102.114 37.9231 102.085 38.3792C102.056 38.8281 102.024 39.2769 101.987 39.7258C101.951 40.1747 101.911 40.6055 101.868 41.0181C101.832 41.4236 101.788 41.8 101.738 42.1475C101.658 42.7557 101.56 43.2552 101.444 43.6462C101.329 44.0371 101.126 44.3774 100.836 44.667ZM111.952 46.7195L111.941 34.991H114.558V38.9005H115.872C116.198 38.9005 116.564 38.9077 116.969 38.9222C117.382 38.9367 117.726 38.9693 118.001 39.0199C118.66 39.1647 119.221 39.3964 119.684 39.715C120.155 40.0335 120.513 40.4498 120.759 40.9638C121.006 41.4779 121.129 42.0969 121.129 42.8208C121.129 43.8561 120.861 44.6851 120.325 45.3077C119.789 45.9231 119.04 46.343 118.077 46.5674C117.795 46.6326 117.444 46.676 117.024 46.6978C116.604 46.7122 116.231 46.7195 115.905 46.7195H111.952ZM114.558 44.667H116.133C116.292 44.667 116.47 44.6598 116.665 44.6453C116.861 44.6308 117.045 44.5982 117.219 44.5475C117.545 44.4607 117.834 44.2652 118.088 43.9611C118.341 43.6498 118.468 43.2697 118.468 42.8208C118.468 42.3503 118.341 41.9629 118.088 41.6588C117.834 41.3548 117.523 41.1557 117.154 41.0616C116.98 41.0181 116.803 40.9892 116.622 40.9747C116.448 40.9602 116.285 40.953 116.133 40.953H114.558V44.667ZM122.356 46.7195V34.991H124.973V46.7195H122.356Z" fill="white"/>
<rect x="245.701" y="22.1404" width="32.5792" height="32.5792" rx="16.2896" fill="#F6F6F6"/>
<path d="M255.475 39.2444C258.326 37.6155 261.991 37.6155 263.62 40.8734C264.309 40.5215 265.078 40.3542 265.851 40.3877C266.624 40.4212 267.375 40.6543 268.031 41.0644C268.687 41.4745 269.226 42.0476 269.595 42.7278C269.964 43.408 270.15 44.1721 270.136 44.9458M256.412 43.2272C260.908 41.9892 263.457 37.6155 262.113 33.4535C261.624 31.9141 261.584 30.2852 262.805 30.2852C265.428 30.2852 266.878 34.7648 266.878 36.801C266.878 42.0951 263.457 46.5748 258.334 46.5748C256.379 46.5748 253.846 46.5748 253.846 44.9458C253.846 43.7241 254.775 43.6833 256.412 43.2272Z" stroke="#2550B9" stroke-width="1.62896" stroke-linecap="round" stroke-linejoin="round"/>
<path d="M150 208.371C182.238 208.371 208.371 182.237 208.371 150C208.371 117.762 182.238 91.6287 150 91.6287C117.763 91.6287 91.629 117.762 91.629 150C91.629 182.237 117.763 208.371 150 208.371Z" fill="#EBEBEE"/>
<path d="M150 200.226C177.739 200.226 200.226 177.739 200.226 150C200.226 122.261 177.739 99.7737 150 99.7737C122.261 99.7737 99.7738 122.261 99.7738 150C99.7738 177.739 122.261 200.226 150 200.226Z" fill="#2550B9"/>
<path d="M204.146 150C204.706 150 205.261 149.884 205.775 149.66C206.288 149.436 206.75 149.108 207.131 148.697C207.513 148.286 207.805 147.801 207.99 147.272C208.175 146.742 208.249 146.181 208.207 145.622C207.434 135.344 203.953 125.455 198.119 116.958C192.285 108.462 184.305 101.662 174.991 97.249C165.677 92.8364 155.36 90.9686 145.09 91.8356C134.82 92.7025 124.963 96.2733 116.52 102.185C108.077 108.097 101.35 116.138 97.023 125.492C92.6957 134.847 90.9224 145.18 91.8833 155.442C92.8441 165.703 96.505 175.528 102.494 183.916C108.482 192.304 116.585 198.957 125.978 203.199C126.489 203.429 127.042 203.552 127.603 203.559C128.163 203.566 128.719 203.458 129.236 203.24C129.752 203.022 130.218 202.7 130.605 202.294C130.991 201.888 131.289 201.407 131.481 200.88C131.832 199.915 131.806 198.852 131.407 197.906C131.008 196.959 130.266 196.198 129.33 195.776C121.248 192.126 114.275 186.401 109.122 179.183C103.969 171.966 100.819 163.512 99.9926 154.682C99.1658 145.852 100.692 136.961 104.415 128.912C108.139 120.863 113.927 113.944 121.192 108.857C128.456 103.77 136.938 100.697 145.775 99.9515C154.612 99.2055 163.489 100.813 171.504 104.61C179.518 108.406 186.385 114.258 191.405 121.569C196.425 128.88 199.42 137.389 200.085 146.233C200.162 147.257 200.623 148.214 201.376 148.913C202.129 149.612 203.119 150 204.146 150Z" fill="#01012E" fill-opacity="0.08"/>
<path d="M204.146 150C204.706 150 205.261 149.884 205.775 149.66C206.288 149.436 206.75 149.108 207.131 148.697C207.513 148.286 207.805 147.801 207.99 147.272C208.175 146.742 208.249 146.181 208.207 145.622C207.434 135.344 203.953 125.455 198.119 116.958C192.285 108.462 184.305 101.662 174.991 97.249C165.677 92.8364 155.36 90.9686 145.09 91.8356C134.82 92.7025 124.963 96.2733 116.52 102.185C108.077 108.097 101.35 116.138 97.023 125.492C92.6957 134.847 90.9224 145.18 91.8833 155.442C92.8441 165.703 96.505 175.528 102.494 183.916C108.482 192.304 116.585 198.957 125.978 203.199C126.489 203.429 127.042 203.552 127.603 203.559C128.163 203.566 128.719 203.458 129.236 203.24C129.752 203.022 130.218 202.7 130.605 202.294C130.991 201.888 131.289 201.407 131.481 200.88C131.832 199.915 131.806 198.852 131.407 197.906C131.008 196.959 130.266 196.198 129.33 195.776C121.248 192.126 114.275 186.401 109.122 179.183C103.969 171.966 100.819 163.512 99.9926 154.682C99.1658 145.852 100.692 136.961 104.415 128.912C108.139 120.863 113.927 113.944 121.192 108.857C128.456 103.77 136.938 100.697 145.775 99.9515C154.612 99.2055 163.489 100.813 171.504 104.61C179.518 108.406 186.385 114.258 191.405 121.569C196.425 128.88 199.42 137.389 200.085 146.233C200.162 147.257 200.623 148.214 201.376 148.913C202.129 149.612 203.119 150 204.146 150Z" fill="#FA763C"/>
<path d="M128.201 152.028V149.462L135.726 142.755C136.313 142.234 136.72 141.741 136.948 141.277C137.176 140.813 137.29 140.365 137.29 139.933C137.29 139.347 137.164 138.825 136.912 138.369C136.659 137.905 136.309 137.538 135.861 137.27C135.421 137.001 134.912 136.867 134.334 136.867C133.723 136.867 133.181 137.009 132.709 137.294C132.245 137.571 131.882 137.942 131.621 138.406C131.361 138.87 131.239 139.371 131.255 139.909H128.225C128.225 138.736 128.486 137.714 129.007 136.842C129.536 135.971 130.261 135.295 131.182 134.814C132.11 134.333 133.181 134.093 134.395 134.093C135.519 134.093 136.529 134.346 137.425 134.851C138.321 135.348 139.025 136.04 139.538 136.928C140.051 137.807 140.308 138.821 140.308 139.97C140.308 140.809 140.194 141.513 139.966 142.083C139.738 142.653 139.396 143.179 138.94 143.659C138.492 144.14 137.934 144.673 137.266 145.26L131.927 149.988L131.658 149.255H140.308V152.028H128.201ZM149.574 152.419C148.327 152.419 147.228 152.154 146.275 151.625C145.322 151.087 144.577 150.342 144.039 149.389C143.51 148.436 143.245 147.337 143.245 146.09V140.422C143.245 139.176 143.51 138.076 144.039 137.123C144.577 136.17 145.322 135.429 146.275 134.9C147.228 134.362 148.327 134.093 149.574 134.093C150.82 134.093 151.915 134.362 152.86 134.9C153.813 135.429 154.558 136.17 155.096 137.123C155.633 138.076 155.902 139.176 155.902 140.422V146.09C155.902 147.337 155.633 148.436 155.096 149.389C154.558 150.342 153.813 151.087 152.86 151.625C151.915 152.154 150.82 152.419 149.574 152.419ZM149.574 149.621C150.193 149.621 150.755 149.475 151.259 149.181C151.764 148.88 152.164 148.481 152.457 147.984C152.75 147.479 152.897 146.917 152.897 146.298V140.202C152.897 139.575 152.75 139.013 152.457 138.516C152.164 138.011 151.764 137.612 151.259 137.319C150.755 137.017 150.193 136.867 149.574 136.867C148.955 136.867 148.393 137.017 147.888 137.319C147.383 137.612 146.983 138.011 146.69 138.516C146.397 139.013 146.25 139.575 146.25 140.202V146.298C146.25 146.917 146.397 147.479 146.69 147.984C146.983 148.481 147.383 148.88 147.888 149.181C148.393 149.475 148.955 149.621 149.574 149.621ZM165.656 152.419C164.41 152.419 163.311 152.154 162.358 151.625C161.405 151.087 160.659 150.342 160.122 149.389C159.592 148.436 159.328 147.337 159.328 146.09V140.422C159.328 139.176 159.592 138.076 160.122 137.123C160.659 136.17 161.405 135.429 162.358 134.9C163.311 134.362 164.41 134.093 165.656 134.093C166.902 134.093 167.998 134.362 168.943 134.9C169.896 135.429 170.641 136.17 171.178 137.123C171.716 138.076 171.985 139.176 171.985 140.422V146.09C171.985 147.337 171.716 148.436 171.178 149.389C170.641 150.342 169.896 151.087 168.943 151.625C167.998 152.154 166.902 152.419 165.656 152.419ZM165.656 149.621C166.275 149.621 166.837 149.475 167.342 149.181C167.847 148.88 168.246 148.481 168.54 147.984C168.833 147.479 168.979 146.917 168.979 146.298V140.202C168.979 139.575 168.833 139.013 168.54 138.516C168.246 138.011 167.847 137.612 167.342 137.319C166.837 137.017 166.275 136.867 165.656 136.867C165.037 136.867 164.475 137.017 163.97 137.319C163.465 137.612 163.066 138.011 162.773 138.516C162.48 139.013 162.333 139.575 162.333 140.202V146.298C162.333 146.917 162.48 147.479 162.773 147.984C163.066 148.481 163.465 148.88 163.97 149.181C164.475 149.475 165.037 149.621 165.656 149.621Z" fill="white"/>
<path d="M131.33 170.767L131.99 169.379L129.905 164.903H130.569L132.304 168.735L134.071 164.903H134.711L131.982 170.767H131.33ZM135.089 170.767V166.369H138.103V166.943H135.688V170.767H135.089ZM138.389 170.767V170.242C138.552 170.272 138.675 170.265 138.759 170.222C138.846 170.175 138.91 170.099 138.951 169.994C138.991 169.885 139.025 169.751 139.052 169.59C139.096 169.324 139.135 169.031 139.171 168.711C139.206 168.39 139.237 168.037 139.264 167.652C139.294 167.264 139.324 166.836 139.354 166.369H142.343V170.767H141.748V166.943H139.908C139.889 167.231 139.867 167.518 139.843 167.803C139.818 168.088 139.792 168.362 139.765 168.625C139.741 168.886 139.714 169.126 139.684 169.346C139.654 169.566 139.623 169.756 139.59 169.916C139.541 170.158 139.476 170.351 139.395 170.494C139.316 170.638 139.198 170.733 139.04 170.78C138.883 170.826 138.666 170.822 138.389 170.767ZM145.342 170.89C144.913 170.89 144.541 170.794 144.226 170.604C143.914 170.414 143.671 170.147 143.497 169.802C143.323 169.457 143.236 169.053 143.236 168.589C143.236 168.108 143.322 167.693 143.493 167.342C143.664 166.992 143.904 166.722 144.214 166.532C144.526 166.342 144.894 166.247 145.317 166.247C145.752 166.247 146.122 166.347 146.429 166.548C146.736 166.747 146.968 167.032 147.126 167.404C147.283 167.775 147.355 168.219 147.341 168.735H146.731V168.523C146.72 167.953 146.596 167.523 146.36 167.232C146.126 166.942 145.784 166.797 145.334 166.797C144.861 166.797 144.499 166.95 144.246 167.257C143.997 167.564 143.872 168.001 143.872 168.568C143.872 169.122 143.997 169.552 144.246 169.859C144.499 170.163 144.856 170.315 145.317 170.315C145.632 170.315 145.907 170.243 146.14 170.099C146.376 169.953 146.562 169.742 146.698 169.468L147.256 169.684C147.082 170.067 146.826 170.364 146.486 170.576C146.15 170.785 145.768 170.89 145.342 170.89ZM143.66 168.735V168.234H147.02V168.735H143.66ZM148.241 170.767V166.369H150.053C150.146 166.369 150.257 166.375 150.387 166.385C150.52 166.396 150.644 166.417 150.758 166.447C151.005 166.512 151.203 166.645 151.352 166.846C151.504 167.047 151.58 167.288 151.58 167.571C151.58 167.728 151.556 167.869 151.507 167.994C151.461 168.116 151.394 168.222 151.308 168.312C151.267 168.358 151.222 168.399 151.173 168.434C151.124 168.466 151.077 168.494 151.031 168.515C151.118 168.532 151.211 168.57 151.312 168.629C151.469 168.722 151.589 168.847 151.67 169.004C151.751 169.159 151.792 169.347 151.792 169.57C151.792 169.871 151.72 170.117 151.576 170.307C151.432 170.497 151.24 170.628 150.998 170.698C150.889 170.728 150.771 170.747 150.644 170.755C150.519 170.763 150.401 170.767 150.289 170.767H148.241ZM148.844 170.258H150.261C150.318 170.258 150.39 170.254 150.477 170.246C150.564 170.235 150.641 170.222 150.709 170.205C150.869 170.165 150.986 170.083 151.059 169.961C151.135 169.836 151.173 169.7 151.173 169.554C151.173 169.361 151.116 169.204 151.002 169.081C150.891 168.956 150.742 168.88 150.554 168.853C150.492 168.84 150.427 168.832 150.359 168.829C150.291 168.826 150.23 168.825 150.175 168.825H148.844V170.258ZM148.844 168.312H150.074C150.144 168.312 150.223 168.308 150.31 168.299C150.399 168.289 150.477 168.271 150.542 168.247C150.683 168.198 150.786 168.113 150.851 167.994C150.919 167.875 150.953 167.744 150.953 167.603C150.953 167.448 150.917 167.313 150.843 167.196C150.773 167.079 150.666 166.998 150.522 166.951C150.424 166.916 150.318 166.896 150.204 166.89C150.093 166.885 150.022 166.882 149.992 166.882H148.844V168.312ZM154.441 170.89C154.003 170.89 153.63 170.79 153.321 170.592C153.011 170.394 152.774 170.12 152.608 169.77C152.442 169.419 152.36 169.018 152.36 168.564C152.36 168.103 152.444 167.698 152.612 167.351C152.78 167.003 153.019 166.733 153.329 166.54C153.641 166.345 154.012 166.247 154.441 166.247C154.88 166.247 155.255 166.346 155.565 166.544C155.877 166.74 156.114 167.013 156.277 167.363C156.443 167.71 156.526 168.111 156.526 168.564C156.526 169.026 156.443 169.432 156.277 169.782C156.112 170.129 155.873 170.401 155.56 170.596C155.248 170.792 154.875 170.89 154.441 170.89ZM154.441 170.315C154.929 170.315 155.293 170.154 155.532 169.831C155.771 169.505 155.89 169.083 155.89 168.564C155.89 168.032 155.769 167.609 155.528 167.294C155.289 166.979 154.927 166.821 154.441 166.821C154.112 166.821 153.841 166.896 153.626 167.045C153.414 167.192 153.255 167.397 153.15 167.66C153.046 167.921 152.995 168.222 152.995 168.564C152.995 169.094 153.117 169.518 153.361 169.839C153.606 170.156 153.965 170.315 154.441 170.315ZM157.098 171.745V170.254C157.348 170.254 157.527 170.174 157.636 170.014C157.744 169.851 157.833 169.592 157.9 169.236C157.947 169.005 157.985 168.757 158.014 168.491C158.044 168.225 158.07 167.921 158.092 167.579C158.114 167.234 158.134 166.831 158.153 166.369H161.061V170.254H161.484V171.745H160.906V170.767H157.672V171.745H157.098ZM158.112 170.254H160.466V166.882H158.707C158.699 167.089 158.686 167.307 158.67 167.538C158.657 167.769 158.639 167.999 158.617 168.23C158.598 168.461 158.575 168.678 158.548 168.882C158.523 169.083 158.494 169.259 158.458 169.411C158.418 169.607 158.373 169.774 158.324 169.912C158.278 170.051 158.207 170.165 158.112 170.254ZM164.136 170.89C163.699 170.89 163.326 170.79 163.016 170.592C162.707 170.394 162.469 170.12 162.304 169.77C162.138 169.419 162.055 169.018 162.055 168.564C162.055 168.103 162.14 167.698 162.308 167.351C162.476 167.003 162.715 166.733 163.025 166.54C163.337 166.345 163.707 166.247 164.136 166.247C164.576 166.247 164.951 166.346 165.26 166.544C165.573 166.74 165.81 167.013 165.973 167.363C166.139 167.71 166.221 168.111 166.221 168.564C166.221 169.026 166.139 169.432 165.973 169.782C165.807 170.129 165.568 170.401 165.256 170.596C164.944 170.792 164.571 170.89 164.136 170.89ZM164.136 170.315C164.625 170.315 164.989 170.154 165.228 169.831C165.467 169.505 165.586 169.083 165.586 168.564C165.586 168.032 165.465 167.609 165.224 167.294C164.985 166.979 164.622 166.821 164.136 166.821C163.808 166.821 163.536 166.896 163.322 167.045C163.11 167.192 162.951 167.397 162.845 167.66C162.742 167.921 162.691 168.222 162.691 168.564C162.691 169.094 162.813 169.518 163.057 169.839C163.301 170.156 163.661 170.315 164.136 170.315ZM167.116 170.767V166.369H168.928C169.02 166.369 169.132 166.375 169.262 166.385C169.395 166.396 169.518 166.417 169.632 166.447C169.879 166.512 170.078 166.645 170.227 166.846C170.379 167.047 170.455 167.288 170.455 167.571C170.455 167.728 170.431 167.869 170.382 167.994C170.336 168.116 170.269 168.222 170.182 168.312C170.141 168.358 170.097 168.399 170.048 168.434C169.999 168.466 169.951 168.494 169.905 168.515C169.992 168.532 170.086 168.57 170.186 168.629C170.344 168.722 170.463 168.847 170.545 169.004C170.626 169.159 170.667 169.347 170.667 169.57C170.667 169.871 170.595 170.117 170.451 170.307C170.307 170.497 170.114 170.628 169.873 170.698C169.764 170.728 169.646 170.747 169.518 170.755C169.394 170.763 169.275 170.767 169.164 170.767H167.116ZM167.718 170.258H169.136C169.193 170.258 169.265 170.254 169.351 170.246C169.438 170.235 169.516 170.222 169.584 170.205C169.744 170.165 169.86 170.083 169.934 169.961C170.01 169.836 170.048 169.7 170.048 169.554C170.048 169.361 169.991 169.204 169.877 169.081C169.765 168.956 169.616 168.88 169.429 168.853C169.366 168.84 169.301 168.832 169.233 168.829C169.165 168.826 169.104 168.825 169.05 168.825H167.718V170.258ZM167.718 168.312H168.948C169.019 168.312 169.098 168.308 169.184 168.299C169.274 168.289 169.351 168.271 169.417 168.247C169.558 168.198 169.661 168.113 169.726 167.994C169.794 167.875 169.828 167.744 169.828 167.603C169.828 167.448 169.791 167.313 169.718 167.196C169.647 167.079 169.54 166.998 169.396 166.951C169.298 166.916 169.193 166.896 169.079 166.89C168.967 166.885 168.897 166.882 168.867 166.882H167.718V168.312Z" fill="white"/>
<path d="M22.9435 270.259V267.978L29.6331 262.016C30.1543 261.553 30.5163 261.115 30.719 260.702C30.9217 260.29 31.0231 259.891 31.0231 259.508C31.0231 258.986 30.9109 258.523 30.6865 258.118C30.462 257.705 30.1507 257.379 29.7525 257.14C29.3616 256.901 28.9091 256.782 28.395 256.782C27.8521 256.782 27.3706 256.909 26.9507 257.162C26.538 257.408 26.2159 257.738 25.9842 258.15C25.7525 258.563 25.6439 259.008 25.6584 259.486H22.9652C22.9652 258.443 23.1969 257.535 23.6602 256.76C24.1308 255.985 24.7751 255.385 25.5932 254.957C26.4186 254.53 27.3706 254.317 28.4493 254.317C29.4484 254.317 30.3462 254.541 31.1426 254.99C31.9389 255.432 32.5652 256.047 33.0213 256.836C33.4774 257.618 33.7055 258.519 33.7055 259.54C33.7055 260.286 33.6041 260.912 33.4014 261.419C33.1987 261.926 32.8946 262.393 32.4892 262.82C32.091 263.247 31.595 263.721 31.0014 264.243L26.2557 268.445L26.0168 267.794H33.7055V270.259H22.9435ZM41.7243 270.606C40.7035 270.606 39.7841 270.367 38.966 269.89C38.1551 269.404 37.5108 268.735 37.0329 267.881C36.5551 267.026 36.3162 266.045 36.3162 264.938V260.181C36.3162 258.994 36.5515 257.962 37.0221 257.086C37.4999 256.21 38.166 255.533 39.0203 255.055C39.8818 254.577 40.8809 254.338 42.0176 254.338C42.8067 254.338 43.556 254.472 44.2655 254.74C44.975 255.001 45.6049 255.421 46.1551 256L44.2655 257.835C43.9904 257.509 43.6538 257.252 43.2556 257.064C42.8646 256.876 42.4519 256.782 42.0176 256.782C41.4094 256.782 40.8773 256.927 40.4212 257.216C39.9651 257.499 39.6103 257.871 39.3569 258.335C39.1108 258.798 38.9877 259.294 38.9877 259.823V262.418L38.5099 261.897C38.9587 261.376 39.4981 260.97 40.128 260.681C40.7578 260.384 41.4167 260.235 42.1044 260.235C43.0891 260.235 43.9578 260.46 44.7108 260.909C45.4637 261.35 46.0574 261.958 46.4918 262.733C46.9262 263.5 47.1434 264.376 47.1434 265.361C47.1434 266.338 46.8936 267.225 46.394 268.022C45.9017 268.811 45.2465 269.441 44.4284 269.911C43.6103 270.375 42.709 270.606 41.7243 270.606ZM41.7243 268.098C42.2311 268.098 42.6945 267.978 43.1144 267.739C43.5343 267.493 43.8673 267.164 44.1135 266.751C44.3669 266.331 44.4936 265.868 44.4936 265.361C44.4936 264.854 44.3705 264.391 44.1243 263.971C43.8782 263.551 43.5452 263.218 43.1253 262.972C42.7126 262.719 42.2529 262.592 41.7461 262.592C41.2393 262.592 40.7759 262.719 40.356 262.972C39.9361 263.218 39.6031 263.551 39.3569 263.971C39.1108 264.391 38.9877 264.854 38.9877 265.361C38.9877 265.853 39.1072 266.309 39.3461 266.729C39.5922 267.142 39.9216 267.475 40.3343 267.728C40.7542 267.975 41.2176 268.098 41.7243 268.098ZM55.4314 270.606C54.3237 270.606 53.3463 270.371 52.4992 269.9C51.6522 269.423 50.9897 268.76 50.5119 267.913C50.0413 267.066 49.806 266.089 49.806 264.981V259.942C49.806 258.834 50.0413 257.857 50.5119 257.01C50.9897 256.163 51.6522 255.504 52.4992 255.033C53.3463 254.556 54.3237 254.317 55.4314 254.317C56.5391 254.317 57.5128 254.556 58.3526 255.033C59.1997 255.504 59.8621 256.163 60.34 257.01C60.8178 257.857 61.0567 258.834 61.0567 259.942V264.981C61.0567 266.089 60.8178 267.066 60.34 267.913C59.8621 268.76 59.1997 269.423 58.3526 269.9C57.5128 270.371 56.5391 270.606 55.4314 270.606ZM55.4314 268.119C55.9816 268.119 56.4811 267.989 56.93 267.728C57.3789 267.461 57.7336 267.106 57.9943 266.664C58.2549 266.215 58.3852 265.716 58.3852 265.166V259.747C58.3852 259.189 58.2549 258.69 57.9943 258.248C57.7336 257.799 57.3789 257.444 56.93 257.184C56.4811 256.916 55.9816 256.782 55.4314 256.782C54.8811 256.782 54.3816 256.916 53.9327 257.184C53.4839 257.444 53.1291 257.799 52.8685 258.248C52.6078 258.69 52.4775 259.189 52.4775 259.747V265.166C52.4775 265.716 52.6078 266.215 52.8685 266.664C53.1291 267.106 53.4839 267.461 53.9327 267.728C54.3816 267.989 54.8811 268.119 55.4314 268.119Z" fill="white"/>
<path opacity="0.6" d="M69.9519 270.281V258.552H78.3139V261.006H72.5691V270.281H69.9519Z" fill="white"/>
</svg>
