<svg width="300" height="219" viewBox="0 0 300 219" fill="none" xmlns="http://www.w3.org/2000/svg">
<path d="M0 16C0 7.16345 7.16344 0 16 0H284C292.837 0 300 7.16344 300 16V203C300 211.837 292.837 219 284 219H16C7.16345 219 0 211.837 0 203V16Z" fill="#F6F6F6"/>
<path d="M20 14V22M20 14L16 18M20 14L24 18M12.93 22.93L14.34 24.34M10 30H12M28 30H30M27.07 22.93L25.66 24.34M30 34H10M24 30C24 28.9391 23.5786 27.9217 22.8284 27.1716C22.0783 26.4214 21.0609 26 20 26C18.9391 26 17.9217 26.4214 17.1716 27.1716C16.4214 27.9217 16 28.9391 16 30" stroke="#00103D" stroke-width="2" stroke-linecap="round" stroke-linejoin="round"/>
<path d="M53.064 30.24C52.264 30.24 51.568 30.1227 50.976 29.888C50.384 29.6533 49.888 29.3493 49.488 28.976C49.0933 28.5973 48.792 28.1947 48.584 27.768L50.04 26.824C50.168 27.1387 50.36 27.4347 50.616 27.712C50.8773 27.9893 51.2133 28.216 51.624 28.392C52.04 28.5627 52.544 28.648 53.136 28.648C53.728 28.648 54.216 28.56 54.6 28.384C54.984 28.2027 55.2693 27.9627 55.456 27.664C55.648 27.36 55.744 27.0187 55.744 26.64C55.744 26.1973 55.6267 25.856 55.392 25.616C55.1627 25.3707 54.856 25.2 54.472 25.104C54.088 25.0027 53.672 24.944 53.224 24.928C52.8507 24.9173 52.5813 24.9093 52.416 24.904C52.2507 24.8933 52.1387 24.888 52.08 24.888C52.0267 24.888 51.976 24.888 51.928 24.888V23.304C51.9867 23.304 52.088 23.304 52.232 23.304C52.3813 23.304 52.536 23.304 52.696 23.304C52.856 23.2987 52.9867 23.2933 53.088 23.288C53.7493 23.256 54.2827 23.0933 54.688 22.8C55.0987 22.5067 55.304 22.0907 55.304 21.552C55.304 21.0133 55.104 20.5893 54.704 20.28C54.3093 19.9707 53.7893 19.816 53.144 19.816C52.5307 19.816 52.0027 19.9573 51.56 20.24C51.1173 20.5173 50.776 20.8613 50.536 21.272L49.304 20.112C49.688 19.5787 50.2133 19.1333 50.88 18.776C51.5467 18.4187 52.3173 18.24 53.192 18.24C53.688 18.24 54.168 18.3067 54.632 18.44C55.096 18.568 55.512 18.7653 55.88 19.032C56.248 19.2987 56.5387 19.6373 56.752 20.048C56.9707 20.4533 57.08 20.936 57.08 21.496C57.08 22.056 56.9653 22.5627 56.736 23.016C56.512 23.4693 56.2107 23.8293 55.832 24.096C56.36 24.2933 56.7733 24.6053 57.072 25.032C57.3707 25.4533 57.52 25.992 57.52 26.648C57.52 27.384 57.3253 28.0213 56.936 28.56C56.552 29.0933 56.024 29.5067 55.352 29.8C54.6853 30.0933 53.9227 30.24 53.064 30.24ZM61.6694 30.24C61.0294 30.24 60.4934 30.1227 60.0614 29.888C59.6294 29.648 59.3014 29.3333 59.0774 28.944C58.8587 28.5493 58.7494 28.1173 58.7494 27.648C58.7494 27.2107 58.8267 26.8267 58.9814 26.496C59.136 26.1653 59.3654 25.8853 59.6694 25.656C59.9734 25.4213 60.3467 25.232 60.7894 25.088C61.1734 24.976 61.608 24.8773 62.0934 24.792C62.5787 24.7067 63.088 24.6267 63.6214 24.552C64.16 24.4773 64.6934 24.4027 65.2214 24.328L64.6134 24.664C64.624 23.9867 64.48 23.4853 64.1814 23.16C63.888 22.8293 63.3814 22.664 62.6614 22.664C62.208 22.664 61.792 22.7707 61.4134 22.984C61.0347 23.192 60.7707 23.5387 60.6214 24.024L59.0614 23.544C59.2747 22.8027 59.68 22.2133 60.2774 21.776C60.88 21.3387 61.68 21.12 62.6774 21.12C63.4507 21.12 64.1227 21.2533 64.6934 21.52C65.2694 21.7813 65.6907 22.1973 65.9574 22.768C66.096 23.0507 66.1814 23.3493 66.2134 23.664C66.2454 23.9787 66.2614 24.3173 66.2614 24.68V30H64.7814V28.024L65.0694 28.28C64.712 28.9413 64.256 29.4347 63.7014 29.76C63.152 30.08 62.4747 30.24 61.6694 30.24ZM61.9654 28.872C62.44 28.872 62.848 28.7893 63.1894 28.624C63.5307 28.4533 63.8054 28.2373 64.0134 27.976C64.2214 27.7147 64.3574 27.4427 64.4214 27.16C64.512 26.904 64.5627 26.616 64.5734 26.296C64.5894 25.976 64.5974 25.72 64.5974 25.528L65.1414 25.728C64.6134 25.808 64.1334 25.88 63.7014 25.944C63.2694 26.008 62.8774 26.072 62.5254 26.136C62.1787 26.1947 61.8694 26.2667 61.5974 26.352C61.368 26.432 61.1627 26.528 60.9814 26.64C60.8054 26.752 60.664 26.888 60.5574 27.048C60.456 27.208 60.4054 27.4027 60.4054 27.632C60.4054 27.856 60.4614 28.064 60.5734 28.256C60.6854 28.4427 60.856 28.592 61.0854 28.704C61.3147 28.816 61.608 28.872 61.9654 28.872ZM68.3308 30V21.36H72.1308C72.3814 21.36 72.6321 21.376 72.8828 21.408C73.1334 21.4347 73.3548 21.4747 73.5468 21.528C73.9841 21.6507 74.3574 21.896 74.6668 22.264C74.9761 22.6267 75.1308 23.112 75.1308 23.72C75.1308 24.0667 75.0774 24.36 74.9708 24.6C74.8641 24.8347 74.7174 25.0373 74.5308 25.208C74.4454 25.2827 74.3548 25.3493 74.2588 25.408C74.1628 25.4667 74.0668 25.512 73.9708 25.544C74.1681 25.576 74.3628 25.6453 74.5548 25.752C74.8481 25.9067 75.0881 26.1307 75.2748 26.424C75.4668 26.712 75.5628 27.0987 75.5628 27.584C75.5628 28.1653 75.4214 28.6533 75.1388 29.048C74.8561 29.4373 74.4561 29.704 73.9388 29.848C73.7361 29.9067 73.5068 29.9467 73.2508 29.968C73.0001 29.9893 72.7494 30 72.4988 30H68.3308ZM70.0268 28.68H72.3948C72.5068 28.68 72.6348 28.6693 72.7788 28.648C72.9228 28.6267 73.0508 28.5973 73.1628 28.56C73.4028 28.4853 73.5734 28.3493 73.6748 28.152C73.7814 27.9547 73.8348 27.744 73.8348 27.52C73.8348 27.216 73.7548 26.9733 73.5948 26.792C73.4348 26.6053 73.2321 26.4853 72.9868 26.432C72.8801 26.3947 72.7628 26.3733 72.6348 26.368C72.5068 26.3627 72.3974 26.36 72.3068 26.36H70.0268V28.68ZM70.0268 25.016H71.8988C72.0534 25.016 72.2108 25.008 72.3708 24.992C72.5308 24.9707 72.6694 24.936 72.7868 24.888C72.9948 24.808 73.1494 24.6747 73.2508 24.488C73.3521 24.296 73.4028 24.088 73.4028 23.864C73.4028 23.6187 73.3468 23.4 73.2348 23.208C73.1228 23.016 72.9548 22.8827 72.7308 22.808C72.5761 22.7547 72.3974 22.7253 72.1948 22.72C71.9974 22.7093 71.8721 22.704 71.8188 22.704H70.0268V25.016ZM79.3989 30V22.864H76.4469V21.36H84.0229V22.864H81.0709V30H79.3989ZM89.5979 30.24C88.7712 30.24 88.0779 30.04 87.5179 29.64C86.9579 29.2347 86.5339 28.688 86.2459 28C85.9579 27.312 85.8139 26.536 85.8139 25.672C85.8139 24.808 85.9552 24.032 86.2379 23.344C86.5259 22.656 86.9472 22.1147 87.5019 21.72C88.0619 21.32 88.7499 21.12 89.5659 21.12C90.3765 21.12 91.0752 21.32 91.6619 21.72C92.2539 22.1147 92.7099 22.656 93.0299 23.344C93.3499 24.0267 93.5099 24.8027 93.5099 25.672C93.5099 26.536 93.3499 27.3147 93.0299 28.008C92.7152 28.696 92.2645 29.24 91.6779 29.64C91.0965 30.04 90.4032 30.24 89.5979 30.24ZM85.5339 33.84V21.36H87.0219V27.576H87.2139V33.84H85.5339ZM89.3659 28.728C89.8992 28.728 90.3392 28.592 90.6859 28.32C91.0379 28.048 91.2992 27.6827 91.4699 27.224C91.6459 26.76 91.7339 26.2427 91.7339 25.672C91.7339 25.1067 91.6459 24.5947 91.4699 24.136C91.2992 23.6773 91.0352 23.312 90.6779 23.04C90.3205 22.768 89.8645 22.632 89.3099 22.632C88.7872 22.632 88.3552 22.76 88.0139 23.016C87.6779 23.272 87.4272 23.6293 87.2619 24.088C87.1019 24.5467 87.0219 25.0747 87.0219 25.672C87.0219 26.2693 87.1019 26.7973 87.2619 27.256C87.4219 27.7147 87.6752 28.0747 88.0219 28.336C88.3685 28.5973 88.8165 28.728 89.3659 28.728ZM97.7163 30.24C97.0763 30.24 96.5403 30.1227 96.1083 29.888C95.6763 29.648 95.3483 29.3333 95.1243 28.944C94.9056 28.5493 94.7963 28.1173 94.7963 27.648C94.7963 27.2107 94.8736 26.8267 95.0283 26.496C95.1829 26.1653 95.4123 25.8853 95.7163 25.656C96.0203 25.4213 96.3936 25.232 96.8363 25.088C97.2203 24.976 97.6549 24.8773 98.1403 24.792C98.6256 24.7067 99.1349 24.6267 99.6683 24.552C100.207 24.4773 100.74 24.4027 101.268 24.328L100.66 24.664C100.671 23.9867 100.527 23.4853 100.228 23.16C99.9349 22.8293 99.4283 22.664 98.7083 22.664C98.2549 22.664 97.8389 22.7707 97.4603 22.984C97.0816 23.192 96.8176 23.5387 96.6683 24.024L95.1083 23.544C95.3216 22.8027 95.7269 22.2133 96.3243 21.776C96.9269 21.3387 97.7269 21.12 98.7243 21.12C99.4976 21.12 100.17 21.2533 100.74 21.52C101.316 21.7813 101.738 22.1973 102.004 22.768C102.143 23.0507 102.228 23.3493 102.26 23.664C102.292 23.9787 102.308 24.3173 102.308 24.68V30H100.828V28.024L101.116 28.28C100.759 28.9413 100.303 29.4347 99.7483 29.76C99.1989 30.08 98.5216 30.24 97.7163 30.24ZM98.0123 28.872C98.4869 28.872 98.8949 28.7893 99.2363 28.624C99.5776 28.4533 99.8523 28.2373 100.06 27.976C100.268 27.7147 100.404 27.4427 100.468 27.16C100.559 26.904 100.61 26.616 100.62 26.296C100.636 25.976 100.644 25.72 100.644 25.528L101.188 25.728C100.66 25.808 100.18 25.88 99.7483 25.944C99.3163 26.008 98.9243 26.072 98.5723 26.136C98.2256 26.1947 97.9163 26.2667 97.6443 26.352C97.4149 26.432 97.2096 26.528 97.0283 26.64C96.8523 26.752 96.7109 26.888 96.6043 27.048C96.5029 27.208 96.4523 27.4027 96.4523 27.632C96.4523 27.856 96.5083 28.064 96.6203 28.256C96.7323 28.4427 96.9029 28.592 97.1323 28.704C97.3616 28.816 97.6549 28.872 98.0123 28.872ZM104.378 30L104.386 21.36H106.082V25.52L109.474 21.36H111.602L108.018 25.68L111.97 30H109.698L106.082 25.84V30H104.378Z" fill="#00103D"/>
<g clip-path="url(#clip0_352_2820)">
<rect x="260" y="8" width="32" height="32" rx="16" fill="white"/>
<path d="M271.333 23.9999H280.667M276 19.3333V28.6666" stroke="#00103D" stroke-width="1.33333" stroke-linecap="round" stroke-linejoin="round"/>
</g>
<rect x="292" y="57" width="284" height="1" transform="rotate(-180 292 57)" fill="white"/>
<path d="M12.375 88V86.593C11.857 86.6817 11.36 86.6607 10.884 86.53C10.4127 86.3993 9.99033 86.166 9.617 85.83C9.24833 85.494 8.95667 85.06 8.742 84.528C8.52733 83.996 8.42 83.3753 8.42 82.666C8.42 81.952 8.52733 81.329 8.742 80.797C8.95667 80.2603 9.24833 79.8217 9.617 79.481C9.99033 79.1403 10.4127 78.9023 10.884 78.767C11.36 78.627 11.857 78.6013 12.375 78.69V77.92H13.831V78.69C14.349 78.6013 14.8437 78.627 15.315 78.767C15.791 78.9023 16.2133 79.1403 16.582 79.481C16.9553 79.8217 17.2493 80.2603 17.464 80.797C17.6833 81.329 17.793 81.952 17.793 82.666C17.793 83.3753 17.6833 83.996 17.464 84.528C17.2493 85.06 16.9553 85.494 16.582 85.83C16.2133 86.166 15.791 86.3993 15.315 86.53C14.8437 86.6607 14.349 86.6817 13.831 86.593V88H12.375ZM12.375 85.235V80.027C11.955 79.9617 11.5887 79.9897 11.276 80.111C10.968 80.2323 10.7137 80.4213 10.513 80.678C10.3123 80.93 10.163 81.2287 10.065 81.574C9.967 81.9147 9.918 82.2787 9.918 82.666C9.918 83.0487 9.967 83.4103 10.065 83.751C10.163 84.087 10.3123 84.3787 10.513 84.626C10.7137 84.8687 10.968 85.046 11.276 85.158C11.5887 85.27 11.955 85.2957 12.375 85.235ZM13.831 85.235C14.251 85.2957 14.615 85.27 14.923 85.158C15.231 85.046 15.4853 84.8687 15.686 84.626C15.8913 84.3833 16.043 84.0963 16.141 83.765C16.2437 83.429 16.295 83.0743 16.295 82.701C16.295 82.3277 16.2437 81.9683 16.141 81.623C16.043 81.2777 15.8913 80.9743 15.686 80.713C15.4853 80.447 15.231 80.251 14.923 80.125C14.615 79.9943 14.251 79.9617 13.831 80.027V85.235ZM21.3279 88.21C20.7679 88.21 20.2989 88.1073 19.9209 87.902C19.5429 87.692 19.2559 87.4167 19.0599 87.076C18.8686 86.7307 18.7729 86.3527 18.7729 85.942C18.7729 85.5593 18.8406 85.2233 18.9759 84.934C19.1112 84.6447 19.3119 84.3997 19.5779 84.199C19.8439 83.9937 20.1706 83.828 20.5579 83.702C20.8939 83.604 21.2742 83.5177 21.6989 83.443C22.1236 83.3683 22.5692 83.2983 23.0359 83.233C23.5072 83.1677 23.9739 83.1023 24.4359 83.037L23.9039 83.331C23.9132 82.7383 23.7872 82.2997 23.5259 82.015C23.2692 81.7257 22.8259 81.581 22.1959 81.581C21.7992 81.581 21.4352 81.6743 21.1039 81.861C20.7726 82.043 20.5416 82.3463 20.4109 82.771L19.0459 82.351C19.2326 81.7023 19.5872 81.1867 20.1099 80.804C20.6372 80.4213 21.3372 80.23 22.2099 80.23C22.8866 80.23 23.4746 80.3467 23.9739 80.58C24.4779 80.8087 24.8466 81.1727 25.0799 81.672C25.2012 81.9193 25.2759 82.1807 25.3039 82.456C25.3319 82.7313 25.3459 83.0277 25.3459 83.345V88H24.0509V86.271L24.3029 86.495C23.9902 87.0737 23.5912 87.5053 23.1059 87.79C22.6252 88.07 22.0326 88.21 21.3279 88.21ZM21.5869 87.013C22.0022 87.013 22.3592 86.9407 22.6579 86.796C22.9566 86.6467 23.1969 86.4577 23.3789 86.229C23.5609 86.0003 23.6799 85.7623 23.7359 85.515C23.8152 85.291 23.8596 85.039 23.8689 84.759C23.8829 84.479 23.8899 84.255 23.8899 84.087L24.3659 84.262C23.9039 84.332 23.4839 84.395 23.1059 84.451C22.7279 84.507 22.3849 84.563 22.0769 84.619C21.7736 84.6703 21.5029 84.7333 21.2649 84.808C21.0642 84.878 20.8846 84.962 20.7259 85.06C20.5719 85.158 20.4482 85.277 20.3549 85.417C20.2662 85.557 20.2219 85.7273 20.2219 85.928C20.2219 86.124 20.2709 86.306 20.3689 86.474C20.4669 86.6373 20.6162 86.768 20.8169 86.866C21.0176 86.964 21.2742 87.013 21.5869 87.013ZM30.7126 88.21C29.9893 88.21 29.3826 88.035 28.8926 87.685C28.4026 87.3303 28.0316 86.852 27.7796 86.25C27.5276 85.648 27.4016 84.969 27.4016 84.213C27.4016 83.457 27.5253 82.778 27.7726 82.176C28.0246 81.574 28.3933 81.1003 28.8786 80.755C29.3686 80.405 29.9706 80.23 30.6846 80.23C31.3939 80.23 32.0053 80.405 32.5186 80.755C33.0366 81.1003 33.4356 81.574 33.7156 82.176C33.9956 82.7733 34.1356 83.4523 34.1356 84.213C34.1356 84.969 33.9956 85.6503 33.7156 86.257C33.4403 86.859 33.0459 87.335 32.5326 87.685C32.0239 88.035 31.4173 88.21 30.7126 88.21ZM27.1566 91.36V80.44H28.4586V85.879H28.6266V91.36H27.1566ZM30.5096 86.887C30.9763 86.887 31.3613 86.768 31.6646 86.53C31.9726 86.292 32.2013 85.9723 32.3506 85.571C32.5046 85.165 32.5816 84.7123 32.5816 84.213C32.5816 83.7183 32.5046 83.2703 32.3506 82.869C32.2013 82.4677 31.9703 82.148 31.6576 81.91C31.3449 81.672 30.9459 81.553 30.4606 81.553C30.0033 81.553 29.6253 81.665 29.3266 81.889C29.0326 82.113 28.8133 82.4257 28.6686 82.827C28.5286 83.2283 28.4586 83.6903 28.4586 84.213C28.4586 84.7357 28.5286 85.1977 28.6686 85.599C28.8086 86.0003 29.0303 86.3153 29.3336 86.544C29.6369 86.7727 30.0289 86.887 30.5096 86.887ZM35.6742 88V80.44H37.0812V86.684H39.4542V80.44H40.8612V86.684H43.2272V80.44H44.6342V88H35.6742ZM49.3941 88V80.44H54.7141V81.819H50.8571V88H49.3941ZM59.1849 88.21C58.4289 88.21 57.7732 88.0397 57.2179 87.699C56.6625 87.3583 56.2332 86.8893 55.9299 86.292C55.6312 85.69 55.4819 84.997 55.4819 84.213C55.4819 83.4243 55.6359 82.7313 55.9439 82.134C56.2519 81.532 56.6835 81.0653 57.2389 80.734C57.7942 80.398 58.4429 80.23 59.1849 80.23C59.9409 80.23 60.5965 80.4003 61.1519 80.741C61.7072 81.0817 62.1365 81.5507 62.4399 82.148C62.7432 82.7453 62.8949 83.4337 62.8949 84.213C62.8949 85.0017 62.7409 85.697 62.4329 86.299C62.1295 86.8963 61.7002 87.3653 61.1449 87.706C60.5895 88.042 59.9362 88.21 59.1849 88.21ZM59.1849 86.831C59.9082 86.831 60.4472 86.5883 60.8019 86.103C61.1612 85.613 61.3409 84.983 61.3409 84.213C61.3409 83.4243 61.1589 82.7943 60.7949 82.323C60.4355 81.847 59.8989 81.609 59.1849 81.609C58.6949 81.609 58.2912 81.721 57.9739 81.945C57.6565 82.1643 57.4209 82.47 57.2669 82.862C57.1129 83.2493 57.0359 83.6997 57.0359 84.213C57.0359 85.0063 57.2179 85.641 57.5819 86.117C57.9459 86.593 58.4802 86.831 59.1849 86.831ZM64.4261 88V80.44H67.7511C67.9705 80.44 68.1898 80.454 68.4091 80.482C68.6285 80.5053 68.8221 80.5403 68.9901 80.587C69.3728 80.6943 69.6995 80.909 69.9701 81.231C70.2408 81.5483 70.3761 81.973 70.3761 82.505C70.3761 82.8083 70.3295 83.065 70.2361 83.275C70.1428 83.4803 70.0145 83.6577 69.8511 83.807C69.7765 83.8723 69.6971 83.9307 69.6131 83.982C69.5291 84.0333 69.4451 84.073 69.3611 84.101C69.5338 84.129 69.7041 84.1897 69.8721 84.283C70.1288 84.4183 70.3388 84.6143 70.5021 84.871C70.6701 85.123 70.7541 85.4613 70.7541 85.886C70.7541 86.3947 70.6305 86.8217 70.3831 87.167C70.1358 87.5077 69.7858 87.741 69.3331 87.867C69.1558 87.9183 68.9551 87.9533 68.7311 87.972C68.5118 87.9907 68.2925 88 68.0731 88H64.4261ZM65.9101 86.845H67.9821C68.0801 86.845 68.1921 86.8357 68.3181 86.817C68.4441 86.7983 68.5561 86.7727 68.6541 86.74C68.8641 86.6747 69.0135 86.5557 69.1021 86.383C69.1955 86.2103 69.2421 86.026 69.2421 85.83C69.2421 85.564 69.1721 85.3517 69.0321 85.193C68.8921 85.0297 68.7148 84.9247 68.5001 84.878C68.4068 84.8453 68.3041 84.8267 68.1921 84.822C68.0801 84.8173 67.9845 84.815 67.9051 84.815H65.9101V86.845ZM65.9101 83.639H67.5481C67.6835 83.639 67.8211 83.632 67.9611 83.618C68.1011 83.5993 68.2225 83.569 68.3251 83.527C68.5071 83.457 68.6425 83.3403 68.7311 83.177C68.8198 83.009 68.8641 82.827 68.8641 82.631C68.8641 82.4163 68.8151 82.225 68.7171 82.057C68.6191 81.889 68.4721 81.7723 68.2761 81.707C68.1408 81.6603 67.9845 81.6347 67.8071 81.63C67.6345 81.6207 67.5248 81.616 67.4781 81.616H65.9101V83.639ZM76.7567 88V85.375H75.2587C75.0814 85.375 74.8691 85.368 74.6217 85.354C74.3791 85.34 74.1504 85.3143 73.9357 85.277C73.3711 85.1743 72.8997 84.9293 72.5217 84.542C72.1437 84.15 71.9547 83.611 71.9547 82.925C71.9547 82.2623 72.1321 81.7303 72.4867 81.329C72.8461 80.923 73.3011 80.6617 73.8517 80.545C74.0897 80.489 74.3324 80.4587 74.5797 80.454C74.8317 80.4447 75.0441 80.44 75.2167 80.44H78.2197L78.2267 88H76.7567ZM71.7377 88L73.6487 85.011H75.1957L73.2987 88H71.7377ZM75.1327 84.199H76.7567V81.616H75.1327C75.0301 81.616 74.9041 81.6207 74.7547 81.63C74.6054 81.6393 74.4607 81.665 74.3207 81.707C74.1761 81.749 74.0361 81.8237 73.9007 81.931C73.7701 82.0383 73.6627 82.176 73.5787 82.344C73.4947 82.5073 73.4527 82.6963 73.4527 82.911C73.4527 83.233 73.5437 83.499 73.7257 83.709C73.9077 83.9143 74.1247 84.0497 74.3767 84.115C74.5121 84.1523 74.6474 84.1757 74.7827 84.185C74.9181 84.1943 75.0347 84.199 75.1327 84.199ZM79.3431 88L82.2551 84.22L79.5041 80.44H81.1141L83.7461 84.129V80.44H85.0621V84.129L87.6941 80.44H89.3111L86.5601 84.22L89.4721 88H87.7711L85.0621 84.311V88H83.7461V84.311L81.0441 88H79.3431ZM96.9574 80.44V88H95.5504V82.743L91.7704 88H90.5804V80.44H91.9874V85.592L95.7744 80.44H96.9574ZM102.288 79.572C101.919 79.572 101.581 79.481 101.273 79.299C100.969 79.117 100.727 78.8743 100.545 78.571C100.363 78.2677 100.272 77.9293 100.272 77.556H101.434C101.434 77.7893 101.518 77.99 101.686 78.158C101.854 78.326 102.054 78.41 102.288 78.41C102.526 78.41 102.726 78.326 102.89 78.158C103.058 77.99 103.142 77.7893 103.142 77.556H104.304C104.304 77.9293 104.213 78.2677 104.031 78.571C103.849 78.8743 103.604 79.117 103.296 79.299C102.992 79.481 102.656 79.572 102.288 79.572ZM105.284 80.44V88H103.877V82.743L100.097 88H98.9066V80.44H100.314V85.592L104.101 80.44H105.284Z" fill="#00103D"/>
<path opacity="0.6" d="M10.346 112V104.74L8.72 105.73V104.332L10.346 103.36H11.624V112H10.346ZM16.9145 112.18C16.3265 112.18 15.8065 112.052 15.3545 111.796C14.9025 111.536 14.5465 111.18 14.2865 110.728C14.0305 110.276 13.9025 109.756 13.9025 109.168V106.192C13.9025 105.604 14.0305 105.084 14.2865 104.632C14.5465 104.18 14.9025 103.826 15.3545 103.57C15.8065 103.31 16.3265 103.18 16.9145 103.18C17.5025 103.18 18.0225 103.31 18.4745 103.57C18.9265 103.826 19.2805 104.18 19.5365 104.632C19.7965 105.084 19.9265 105.604 19.9265 106.192V109.168C19.9265 109.756 19.7965 110.276 19.5365 110.728C19.2805 111.18 18.9265 111.536 18.4745 111.796C18.0225 112.052 17.5025 112.18 16.9145 112.18ZM16.9145 110.98C17.2345 110.98 17.5245 110.904 17.7845 110.752C18.0485 110.596 18.2585 110.388 18.4145 110.128C18.5705 109.864 18.6485 109.57 18.6485 109.246V106.102C18.6485 105.782 18.5705 105.492 18.4145 105.232C18.2585 104.968 18.0485 104.76 17.7845 104.608C17.5245 104.452 17.2345 104.374 16.9145 104.374C16.5945 104.374 16.3025 104.452 16.0385 104.608C15.7785 104.76 15.5705 104.968 15.4145 105.232C15.2585 105.492 15.1805 105.782 15.1805 106.102V109.246C15.1805 109.57 15.2585 109.864 15.4145 110.128C15.5705 110.388 15.7785 110.596 16.0385 110.752C16.3025 110.904 16.5945 110.98 16.9145 110.98ZM24.6137 112.18C24.0257 112.18 23.5057 112.052 23.0537 111.796C22.6017 111.536 22.2457 111.18 21.9857 110.728C21.7297 110.276 21.6017 109.756 21.6017 109.168V106.192C21.6017 105.604 21.7297 105.084 21.9857 104.632C22.2457 104.18 22.6017 103.826 23.0537 103.57C23.5057 103.31 24.0257 103.18 24.6137 103.18C25.2017 103.18 25.7217 103.31 26.1737 103.57C26.6257 103.826 26.9797 104.18 27.2357 104.632C27.4957 105.084 27.6257 105.604 27.6257 106.192V109.168C27.6257 109.756 27.4957 110.276 27.2357 110.728C26.9797 111.18 26.6257 111.536 26.1737 111.796C25.7217 112.052 25.2017 112.18 24.6137 112.18ZM24.6137 110.98C24.9337 110.98 25.2237 110.904 25.4837 110.752C25.7477 110.596 25.9577 110.388 26.1137 110.128C26.2697 109.864 26.3477 109.57 26.3477 109.246V106.102C26.3477 105.782 26.2697 105.492 26.1137 105.232C25.9577 104.968 25.7477 104.76 25.4837 104.608C25.2237 104.452 24.9337 104.374 24.6137 104.374C24.2937 104.374 24.0017 104.452 23.7377 104.608C23.4777 104.76 23.2697 104.968 23.1137 105.232C22.9577 105.492 22.8797 105.782 22.8797 106.102V109.246C22.8797 109.57 22.9577 109.864 23.1137 110.128C23.2697 110.388 23.4777 110.596 23.7377 110.752C24.0017 110.904 24.2937 110.98 24.6137 110.98ZM29.3009 112V105.52H33.8609V106.702H30.5549V112H29.3009Z" fill="#00103D"/>
<g clip-path="url(#clip1_352_2820)">
<path d="M8.12 142L11.756 137.554L8.426 133.36H9.74L12.86 137.356V133.36H13.928V137.356L17.048 133.36H18.362L15.032 137.554L18.668 142H17.318L13.928 137.836V142H12.86V137.836L9.47 142H8.12ZM24.937 135.52V142H23.905V137.224L20.509 142H19.627V135.52H20.659V140.23L24.061 135.52H24.937ZM29.5933 142.18C28.9853 142.18 28.4733 142.03 28.0573 141.73C27.6413 141.426 27.3253 141.016 27.1093 140.5C26.8973 139.98 26.7913 139.398 26.7913 138.754C26.7913 138.102 26.8973 137.518 27.1093 137.002C27.3253 136.486 27.6413 136.08 28.0573 135.784C28.4773 135.488 28.9913 135.34 29.5993 135.34C30.1993 135.34 30.7153 135.49 31.1473 135.79C31.5833 136.086 31.9173 136.492 32.1493 137.008C32.3813 137.524 32.4973 138.106 32.4973 138.754C32.4973 139.402 32.3813 139.984 32.1493 140.5C31.9173 141.016 31.5833 141.426 31.1473 141.73C30.7153 142.03 30.1973 142.18 29.5933 142.18ZM26.6113 144.88V135.52H27.5653V140.29H27.6853V144.88H26.6113ZM29.4613 141.202C29.8893 141.202 30.2433 141.094 30.5233 140.878C30.8033 140.662 31.0133 140.37 31.1533 140.002C31.2933 139.63 31.3633 139.214 31.3633 138.754C31.3633 138.298 31.2933 137.886 31.1533 137.518C31.0173 137.15 30.8053 136.858 30.5173 136.642C30.2333 136.426 29.8713 136.318 29.4313 136.318C29.0113 136.318 28.6633 136.422 28.3873 136.63C28.1113 136.834 27.9053 137.12 27.7693 137.488C27.6333 137.852 27.5653 138.274 27.5653 138.754C27.5653 139.226 27.6313 139.648 27.7633 140.02C27.8993 140.388 28.1073 140.678 28.3873 140.89C28.6673 141.098 29.0253 141.202 29.4613 141.202ZM33.8127 142L33.8067 135.52H34.8807V137.866H35.8707C36.0587 137.866 36.2507 137.87 36.4467 137.878C36.6427 137.886 36.8127 137.904 36.9567 137.932C37.2927 138 37.5867 138.114 37.8387 138.274C38.0907 138.434 38.2867 138.65 38.4267 138.922C38.5667 139.194 38.6367 139.532 38.6367 139.936C38.6367 140.496 38.4907 140.94 38.1987 141.268C37.9107 141.592 37.5327 141.808 37.0647 141.916C36.9047 141.952 36.7207 141.976 36.5127 141.988C36.3087 141.996 36.1147 142 35.9307 142H33.8127ZM34.8807 141.118H35.9487C36.0687 141.118 36.2027 141.114 36.3507 141.106C36.4987 141.098 36.6307 141.078 36.7467 141.046C36.9507 140.986 37.1327 140.868 37.2927 140.692C37.4567 140.516 37.5387 140.264 37.5387 139.936C37.5387 139.604 37.4587 139.348 37.2987 139.168C37.1427 138.988 36.9367 138.87 36.6807 138.814C36.5647 138.786 36.4427 138.768 36.3147 138.76C36.1867 138.752 36.0647 138.748 35.9487 138.748H34.8807V141.118ZM39.3807 142V135.52H40.4487V142H39.3807Z" fill="#00103D" fill-opacity="0.6"/>
<path d="M81.19 142L82.222 139.858L79.18 133.36H80.374L82.78 138.718L85.24 133.36H86.38L82.348 142H81.19ZM86.8947 142V135.52H91.3947V136.534H87.9627V142H86.8947ZM91.8142 142V141.082C92.0542 141.126 92.2362 141.118 92.3602 141.058C92.4882 140.994 92.5822 140.884 92.6422 140.728C92.7062 140.568 92.7582 140.368 92.7982 140.128C92.8662 139.748 92.9242 139.324 92.9722 138.856C93.0242 138.388 93.0702 137.876 93.1102 137.32C93.1542 136.76 93.1942 136.16 93.2302 135.52H97.7602V142H96.6922V136.534H94.2022C94.1782 136.902 94.1482 137.28 94.1122 137.668C94.0802 138.056 94.0462 138.434 94.0102 138.802C93.9742 139.166 93.9342 139.506 93.8902 139.822C93.8502 140.134 93.8062 140.404 93.7582 140.632C93.6822 141.024 93.5762 141.338 93.4402 141.574C93.3042 141.806 93.1082 141.956 92.8522 142.024C92.5962 142.096 92.2502 142.088 91.8142 142ZM102.253 142.18C101.617 142.18 101.061 142.04 100.585 141.76C100.113 141.476 99.7455 141.082 99.4815 140.578C99.2175 140.07 99.0855 139.478 99.0855 138.802C99.0855 138.094 99.2155 137.482 99.4755 136.966C99.7355 136.446 100.097 136.046 100.561 135.766C101.029 135.482 101.577 135.34 102.205 135.34C102.857 135.34 103.411 135.49 103.867 135.79C104.327 136.09 104.671 136.518 104.899 137.074C105.131 137.63 105.231 138.292 105.199 139.06H104.119V138.676C104.107 137.88 103.945 137.286 103.633 136.894C103.321 136.498 102.857 136.3 102.241 136.3C101.581 136.3 101.079 136.512 100.735 136.936C100.391 137.36 100.219 137.968 100.219 138.76C100.219 139.524 100.391 140.116 100.735 140.536C101.079 140.956 101.569 141.166 102.205 141.166C102.633 141.166 103.005 141.068 103.321 140.872C103.637 140.676 103.885 140.394 104.065 140.026L105.091 140.38C104.839 140.952 104.459 141.396 103.951 141.712C103.447 142.024 102.881 142.18 102.253 142.18ZM99.8595 139.06V138.202H104.647V139.06H99.8595ZM106.529 142V135.52H109.289C109.453 135.52 109.629 135.53 109.817 135.55C110.009 135.566 110.183 135.596 110.339 135.64C110.687 135.732 110.973 135.922 111.197 136.21C111.425 136.494 111.539 136.854 111.539 137.29C111.539 137.534 111.501 137.746 111.425 137.926C111.353 138.106 111.249 138.262 111.113 138.394C111.053 138.454 110.987 138.508 110.915 138.556C110.843 138.604 110.771 138.642 110.699 138.67C110.839 138.694 110.981 138.748 111.125 138.832C111.353 138.956 111.531 139.13 111.659 139.354C111.791 139.578 111.857 139.864 111.857 140.212C111.857 140.652 111.751 141.016 111.539 141.304C111.327 141.588 111.035 141.784 110.663 141.892C110.507 141.936 110.335 141.966 110.147 141.982C109.959 141.994 109.777 142 109.601 142H106.529ZM107.609 141.13H109.541C109.625 141.13 109.725 141.122 109.841 141.106C109.961 141.09 110.067 141.07 110.159 141.046C110.367 140.986 110.517 140.874 110.609 140.71C110.705 140.546 110.753 140.368 110.753 140.176C110.753 139.92 110.681 139.712 110.537 139.552C110.397 139.392 110.211 139.292 109.979 139.252C109.895 139.228 109.803 139.214 109.703 139.21C109.607 139.206 109.521 139.204 109.445 139.204H107.609V141.13ZM107.609 138.322H109.217C109.329 138.322 109.447 138.316 109.571 138.304C109.695 138.288 109.803 138.262 109.895 138.226C110.079 138.158 110.213 138.046 110.297 137.89C110.385 137.73 110.429 137.556 110.429 137.368C110.429 137.16 110.381 136.978 110.285 136.822C110.193 136.662 110.051 136.552 109.859 136.492C109.731 136.444 109.587 136.418 109.427 136.414C109.271 136.406 109.171 136.402 109.127 136.402H107.609V138.322ZM115.823 142.18C115.179 142.18 114.623 142.034 114.155 141.742C113.691 141.45 113.333 141.046 113.081 140.53C112.829 140.014 112.703 139.422 112.703 138.754C112.703 138.074 112.831 137.478 113.087 136.966C113.343 136.454 113.705 136.056 114.173 135.772C114.641 135.484 115.191 135.34 115.823 135.34C116.471 135.34 117.029 135.486 117.497 135.778C117.965 136.066 118.323 136.468 118.571 136.984C118.823 137.496 118.949 138.086 118.949 138.754C118.949 139.43 118.823 140.026 118.571 140.542C118.319 141.054 117.959 141.456 117.491 141.748C117.023 142.036 116.467 142.18 115.823 142.18ZM115.823 141.166C116.495 141.166 116.995 140.942 117.323 140.494C117.651 140.046 117.815 139.466 117.815 138.754C117.815 138.022 117.649 137.44 117.317 137.008C116.985 136.572 116.487 136.354 115.823 136.354C115.371 136.354 114.999 136.456 114.707 136.66C114.415 136.864 114.197 137.146 114.053 137.506C113.909 137.866 113.837 138.282 113.837 138.754C113.837 139.482 114.005 140.066 114.341 140.506C114.677 140.946 115.171 141.166 115.823 141.166ZM119.79 143.44V141.118C120.154 141.118 120.414 141 120.57 140.764C120.726 140.524 120.852 140.13 120.948 139.582C121.012 139.238 121.064 138.87 121.104 138.478C121.144 138.086 121.178 137.65 121.206 137.17C121.238 136.686 121.268 136.136 121.296 135.52H125.76V141.118H126.39V143.44H125.37V142H120.81V143.44H119.79ZM121.434 141.118H124.692V136.402H122.262C122.25 136.686 122.234 136.984 122.214 137.296C122.194 137.604 122.17 137.912 122.142 138.22C122.118 138.528 122.088 138.82 122.052 139.096C122.02 139.368 121.982 139.612 121.938 139.828C121.886 140.128 121.826 140.382 121.758 140.59C121.69 140.798 121.582 140.974 121.434 141.118ZM127.594 142L127.588 135.52H128.662V137.866H129.652C129.84 137.866 130.032 137.87 130.228 137.878C130.424 137.886 130.594 137.904 130.738 137.932C131.074 138 131.368 138.114 131.62 138.274C131.872 138.434 132.068 138.65 132.208 138.922C132.348 139.194 132.418 139.532 132.418 139.936C132.418 140.496 132.272 140.94 131.98 141.268C131.692 141.592 131.314 141.808 130.846 141.916C130.686 141.952 130.502 141.976 130.294 141.988C130.09 141.996 129.896 142 129.712 142H127.594ZM128.662 141.118H129.73C129.85 141.118 129.984 141.114 130.132 141.106C130.28 141.098 130.412 141.078 130.528 141.046C130.732 140.986 130.914 140.868 131.074 140.692C131.238 140.516 131.32 140.264 131.32 139.936C131.32 139.604 131.24 139.348 131.08 139.168C130.924 138.988 130.718 138.87 130.462 138.814C130.346 138.786 130.224 138.768 130.096 138.76C129.968 138.752 129.846 138.748 129.73 138.748H128.662V141.118ZM133.162 142V135.52H134.23V142H133.162Z" fill="#00103D" fill-opacity="0.6"/>
<path d="M150.84 142V133.36H156.324V134.374H151.908V136.672H154.254C154.338 136.672 154.438 136.676 154.554 136.684C154.67 136.688 154.782 136.698 154.89 136.714C155.346 136.77 155.732 136.922 156.048 137.17C156.368 137.414 156.61 137.724 156.774 138.1C156.942 138.476 157.026 138.888 157.026 139.336C157.026 139.78 156.944 140.19 156.78 140.566C156.616 140.942 156.374 141.254 156.054 141.502C155.738 141.746 155.35 141.898 154.89 141.958C154.782 141.97 154.67 141.98 154.554 141.988C154.438 141.996 154.338 142 154.254 142H150.84ZM151.908 140.986H154.218C154.294 140.986 154.38 140.982 154.476 140.974C154.576 140.966 154.67 140.954 154.758 140.938C155.174 140.854 155.474 140.656 155.658 140.344C155.842 140.028 155.934 139.692 155.934 139.336C155.934 138.972 155.842 138.636 155.658 138.328C155.474 138.016 155.174 137.818 154.758 137.734C154.67 137.714 154.576 137.702 154.476 137.698C154.38 137.69 154.294 137.686 154.218 137.686H151.908V140.986ZM161.031 142.18C160.395 142.18 159.839 142.04 159.363 141.76C158.891 141.476 158.523 141.082 158.259 140.578C157.995 140.07 157.863 139.478 157.863 138.802C157.863 138.094 157.993 137.482 158.253 136.966C158.513 136.446 158.875 136.046 159.339 135.766C159.807 135.482 160.355 135.34 160.983 135.34C161.635 135.34 162.189 135.49 162.645 135.79C163.105 136.09 163.449 136.518 163.677 137.074C163.909 137.63 164.009 138.292 163.977 139.06H162.897V138.676C162.885 137.88 162.723 137.286 162.411 136.894C162.099 136.498 161.635 136.3 161.019 136.3C160.359 136.3 159.857 136.512 159.513 136.936C159.169 137.36 158.997 137.968 158.997 138.76C158.997 139.524 159.169 140.116 159.513 140.536C159.857 140.956 160.347 141.166 160.983 141.166C161.411 141.166 161.783 141.068 162.099 140.872C162.415 140.676 162.663 140.394 162.843 140.026L163.869 140.38C163.617 140.952 163.237 141.396 162.729 141.712C162.225 142.024 161.659 142.18 161.031 142.18ZM158.637 139.06V138.202H163.425V139.06H158.637ZM164.713 142V141.082C164.953 141.126 165.135 141.118 165.259 141.058C165.387 140.994 165.481 140.884 165.541 140.728C165.605 140.568 165.657 140.368 165.697 140.128C165.765 139.748 165.823 139.324 165.871 138.856C165.923 138.388 165.969 137.876 166.009 137.32C166.053 136.76 166.093 136.16 166.129 135.52H170.659V142H169.591V136.534H167.101C167.077 136.902 167.047 137.28 167.011 137.668C166.979 138.056 166.945 138.434 166.909 138.802C166.873 139.166 166.833 139.506 166.789 139.822C166.749 140.134 166.705 140.404 166.657 140.632C166.581 141.024 166.475 141.338 166.339 141.574C166.203 141.806 166.007 141.956 165.751 142.024C165.495 142.096 165.149 142.088 164.713 142ZM172.338 142L172.344 135.52H173.424V138.64L176.142 135.52H177.528L174.666 138.76L177.864 142H176.37L173.424 138.88V142H172.338ZM183.765 135.52V142H182.733V137.224L179.337 142H178.455V135.52H179.487V140.23L182.889 135.52H183.765Z" fill="#00103D" fill-opacity="0.6"/>
<path d="M221.84 142V133.36H222.908V137.416L226.688 133.36H228.032L224.108 137.554L228.338 142H226.958L222.908 137.776V142H221.84ZM231.018 142.18C230.534 142.18 230.128 142.092 229.8 141.916C229.476 141.736 229.23 141.5 229.062 141.208C228.898 140.916 228.816 140.596 228.816 140.248C228.816 139.908 228.88 139.614 229.008 139.366C229.14 139.114 229.324 138.906 229.56 138.742C229.796 138.574 230.078 138.442 230.406 138.346C230.714 138.262 231.058 138.19 231.438 138.13C231.822 138.066 232.21 138.008 232.602 137.956C232.994 137.904 233.36 137.854 233.7 137.806L233.316 138.028C233.328 137.452 233.212 137.026 232.968 136.75C232.728 136.474 232.312 136.336 231.72 136.336C231.328 136.336 230.984 136.426 230.688 136.606C230.396 136.782 230.19 137.07 230.07 137.47L229.056 137.164C229.212 136.596 229.514 136.15 229.962 135.826C230.41 135.502 231 135.34 231.732 135.34C232.32 135.34 232.824 135.446 233.244 135.658C233.668 135.866 233.972 136.182 234.156 136.606C234.248 136.806 234.306 137.024 234.33 137.26C234.354 137.492 234.366 137.736 234.366 137.992V142H233.418V140.446L233.64 140.59C233.396 141.114 233.054 141.51 232.614 141.778C232.178 142.046 231.646 142.18 231.018 142.18ZM231.18 141.286C231.564 141.286 231.896 141.218 232.176 141.082C232.46 140.942 232.688 140.76 232.86 140.536C233.032 140.308 233.144 140.06 233.196 139.792C233.256 139.592 233.288 139.37 233.292 139.126C233.3 138.878 233.304 138.688 233.304 138.556L233.676 138.718C233.328 138.766 232.986 138.812 232.65 138.856C232.314 138.9 231.996 138.948 231.696 139C231.396 139.048 231.126 139.106 230.886 139.174C230.71 139.23 230.544 139.302 230.388 139.39C230.236 139.478 230.112 139.592 230.016 139.732C229.924 139.868 229.878 140.038 229.878 140.242C229.878 140.418 229.922 140.586 230.01 140.746C230.102 140.906 230.242 141.036 230.43 141.136C230.622 141.236 230.872 141.286 231.18 141.286ZM235.326 142V141.082C235.566 141.126 235.748 141.118 235.872 141.058C236 140.994 236.094 140.884 236.154 140.728C236.218 140.568 236.27 140.368 236.31 140.128C236.378 139.748 236.436 139.324 236.484 138.856C236.536 138.388 236.582 137.876 236.622 137.32C236.666 136.76 236.706 136.16 236.742 135.52H241.272V142H240.204V136.534H237.714C237.69 136.902 237.66 137.28 237.624 137.668C237.592 138.056 237.558 138.434 237.522 138.802C237.486 139.166 237.446 139.506 237.402 139.822C237.362 140.134 237.318 140.404 237.27 140.632C237.194 141.024 237.088 141.338 236.952 141.574C236.816 141.806 236.62 141.956 236.364 142.024C236.108 142.096 235.762 142.088 235.326 142ZM245.717 142.18C245.073 142.18 244.517 142.034 244.049 141.742C243.585 141.45 243.227 141.046 242.975 140.53C242.723 140.014 242.597 139.422 242.597 138.754C242.597 138.074 242.725 137.478 242.981 136.966C243.237 136.454 243.599 136.056 244.067 135.772C244.535 135.484 245.085 135.34 245.717 135.34C246.365 135.34 246.923 135.486 247.391 135.778C247.859 136.066 248.217 136.468 248.465 136.984C248.717 137.496 248.843 138.086 248.843 138.754C248.843 139.43 248.717 140.026 248.465 140.542C248.213 141.054 247.853 141.456 247.385 141.748C246.917 142.036 246.361 142.18 245.717 142.18ZM245.717 141.166C246.389 141.166 246.889 140.942 247.217 140.494C247.545 140.046 247.709 139.466 247.709 138.754C247.709 138.022 247.543 137.44 247.211 137.008C246.879 136.572 246.381 136.354 245.717 136.354C245.265 136.354 244.893 136.456 244.601 136.66C244.309 136.864 244.091 137.146 243.947 137.506C243.803 137.866 243.731 138.282 243.731 138.754C243.731 139.482 243.899 140.066 244.235 140.506C244.571 140.946 245.065 141.166 245.717 141.166ZM253.14 142.18C252.532 142.18 252.02 142.03 251.604 141.73C251.188 141.426 250.872 141.016 250.656 140.5C250.444 139.98 250.338 139.398 250.338 138.754C250.338 138.102 250.444 137.518 250.656 137.002C250.872 136.486 251.188 136.08 251.604 135.784C252.024 135.488 252.538 135.34 253.146 135.34C253.746 135.34 254.262 135.49 254.694 135.79C255.13 136.086 255.464 136.492 255.696 137.008C255.928 137.524 256.044 138.106 256.044 138.754C256.044 139.402 255.928 139.984 255.696 140.5C255.464 141.016 255.13 141.426 254.694 141.73C254.262 142.03 253.744 142.18 253.14 142.18ZM250.158 144.88V135.52H251.112V140.29H251.232V144.88H250.158ZM253.008 141.202C253.436 141.202 253.79 141.094 254.07 140.878C254.35 140.662 254.56 140.37 254.7 140.002C254.84 139.63 254.91 139.214 254.91 138.754C254.91 138.298 254.84 137.886 254.7 137.518C254.564 137.15 254.352 136.858 254.064 136.642C253.78 136.426 253.418 136.318 252.978 136.318C252.558 136.318 252.21 136.422 251.934 136.63C251.658 136.834 251.452 137.12 251.316 137.488C251.18 137.852 251.112 138.274 251.112 138.754C251.112 139.226 251.178 139.648 251.31 140.02C251.446 140.388 251.654 140.678 251.934 140.89C252.214 141.098 252.572 141.202 253.008 141.202ZM262.664 135.52V142H261.632V137.224L258.236 142H257.354V135.52H258.386V140.23L261.788 135.52H262.664ZM269.648 135.52V142H268.616V137.224L265.22 142H264.338V135.52H265.37V140.23L268.772 135.52H269.648Z" fill="#00103D" fill-opacity="0.6"/>
</g>
<g clip-path="url(#clip2_352_2820)">
<rect width="284" height="26" transform="translate(8 145)" fill="white" fill-opacity="0.01"/>
<path d="M10.737 167V158.299L8.84 159.447V158.054L10.737 156.92H12.004V167H10.737ZM17.9645 156.717C18.6085 156.717 19.1895 156.871 19.7075 157.179C20.2255 157.487 20.6362 157.907 20.9395 158.439C21.2475 158.971 21.4015 159.575 21.4015 160.252V163.605C21.4015 164.31 21.2498 164.933 20.9465 165.474C20.6432 166.015 20.2232 166.44 19.6865 166.748C19.1545 167.056 18.5432 167.21 17.8525 167.21C17.3018 167.21 16.7862 167.096 16.3055 166.867C15.8295 166.638 15.4258 166.314 15.0945 165.894L16.0255 165.068C16.2308 165.357 16.4945 165.591 16.8165 165.768C17.1385 165.941 17.4838 166.027 17.8525 166.027C18.3005 166.027 18.6948 165.92 19.0355 165.705C19.3808 165.49 19.6492 165.21 19.8405 164.865C20.0365 164.52 20.1345 164.146 20.1345 163.745V161.722L20.4075 162.03C20.1182 162.45 19.7472 162.786 19.2945 163.038C18.8418 163.29 18.3495 163.416 17.8175 163.416C17.1922 163.416 16.6322 163.269 16.1375 162.975C15.6428 162.681 15.2508 162.284 14.9615 161.785C14.6722 161.281 14.5275 160.716 14.5275 160.091C14.5275 159.466 14.6838 158.899 14.9965 158.39C15.3092 157.877 15.7245 157.471 16.2425 157.172C16.7652 156.869 17.3392 156.717 17.9645 156.717ZM17.9645 157.921C17.5632 157.921 17.1968 158.019 16.8655 158.215C16.5388 158.406 16.2775 158.668 16.0815 158.999C15.8855 159.326 15.7875 159.69 15.7875 160.091C15.7875 160.492 15.8832 160.859 16.0745 161.19C16.2705 161.517 16.5318 161.778 16.8585 161.974C17.1898 162.17 17.5562 162.268 17.9575 162.268C18.3588 162.268 18.7252 162.17 19.0565 161.974C19.3878 161.778 19.6492 161.517 19.8405 161.19C20.0365 160.859 20.1345 160.492 20.1345 160.091C20.1345 159.694 20.0365 159.333 19.8405 159.006C19.6492 158.675 19.3878 158.411 19.0565 158.215C18.7298 158.019 18.3658 157.921 17.9645 157.921Z" fill="#00103D"/>
<path d="M83.382 167.21C82.7287 167.21 82.1453 167.063 81.632 166.769C81.1233 166.47 80.7197 166.067 80.421 165.558C80.127 165.045 79.98 164.461 79.98 163.808V160.112C79.98 159.459 80.127 158.875 80.421 158.362C80.7197 157.849 81.1233 157.445 81.632 157.151C82.1453 156.857 82.7287 156.71 83.382 156.71C84.0353 156.71 84.6187 156.857 85.132 157.151C85.6453 157.445 86.049 157.849 86.343 158.362C86.637 158.875 86.784 159.459 86.784 160.112V163.808C86.784 164.461 86.637 165.045 86.343 165.558C86.049 166.067 85.6453 166.47 85.132 166.769C84.6187 167.063 84.0353 167.21 83.382 167.21ZM83.382 166.013C83.7787 166.013 84.138 165.917 84.46 165.726C84.782 165.535 85.0387 165.278 85.23 164.956C85.4213 164.629 85.517 164.27 85.517 163.878V160.035C85.517 159.638 85.4213 159.279 85.23 158.957C85.0387 158.635 84.782 158.378 84.46 158.187C84.138 157.996 83.7787 157.9 83.382 157.9C82.99 157.9 82.6307 157.996 82.304 158.187C81.982 158.378 81.7253 158.635 81.534 158.957C81.3427 159.279 81.247 159.638 81.247 160.035V163.878C81.247 164.27 81.3427 164.629 81.534 164.956C81.7253 165.278 81.982 165.535 82.304 165.726C82.6307 165.917 82.99 166.013 83.382 166.013Z" fill="#00103D"/>
<path d="M150.7 166.993L150.707 165.873L155.18 161.848C155.553 161.512 155.803 161.195 155.929 160.896C156.06 160.593 156.125 160.282 156.125 159.965C156.125 159.578 156.036 159.228 155.859 158.915C155.682 158.602 155.439 158.355 155.131 158.173C154.828 157.991 154.482 157.9 154.095 157.9C153.694 157.9 153.337 157.996 153.024 158.187C152.711 158.374 152.464 158.623 152.282 158.936C152.105 159.249 152.018 159.589 152.023 159.958H150.749C150.749 159.323 150.896 158.763 151.19 158.278C151.484 157.788 151.883 157.405 152.387 157.13C152.896 156.85 153.472 156.71 154.116 156.71C154.741 156.71 155.301 156.855 155.796 157.144C156.291 157.429 156.68 157.818 156.965 158.313C157.254 158.803 157.399 159.358 157.399 159.979C157.399 160.418 157.343 160.798 157.231 161.12C157.124 161.442 156.956 161.741 156.727 162.016C156.498 162.287 156.211 162.576 155.866 162.884L152.149 166.223L151.988 165.803H157.399V166.993H150.7ZM162.511 167.21C161.871 167.21 161.29 167.056 160.768 166.748C160.25 166.44 159.837 166.02 159.529 165.488C159.225 164.951 159.074 164.347 159.074 163.675V160.322C159.074 159.617 159.225 158.994 159.529 158.453C159.837 157.907 160.257 157.482 160.789 157.179C161.325 156.871 161.937 156.717 162.623 156.717C163.178 156.717 163.694 156.831 164.17 157.06C164.65 157.284 165.054 157.608 165.381 158.033L164.45 158.859C164.249 158.565 163.988 158.332 163.666 158.159C163.344 157.986 162.996 157.9 162.623 157.9C162.179 157.9 161.785 158.007 161.44 158.222C161.099 158.432 160.831 158.712 160.635 159.062C160.439 159.407 160.341 159.781 160.341 160.182V162.205L160.068 161.897C160.362 161.477 160.735 161.141 161.188 160.889C161.64 160.637 162.13 160.511 162.658 160.511C163.283 160.511 163.843 160.658 164.338 160.952C164.837 161.246 165.229 161.645 165.514 162.149C165.803 162.648 165.948 163.211 165.948 163.836C165.948 164.461 165.791 165.028 165.479 165.537C165.166 166.046 164.748 166.452 164.226 166.755C163.708 167.058 163.136 167.21 162.511 167.21ZM162.511 166.006C162.912 166.006 163.278 165.91 163.61 165.719C163.941 165.523 164.202 165.262 164.394 164.935C164.59 164.604 164.688 164.237 164.688 163.836C164.688 163.435 164.59 163.068 164.394 162.737C164.202 162.406 163.941 162.144 163.61 161.953C163.283 161.757 162.919 161.659 162.518 161.659C162.116 161.659 161.75 161.757 161.419 161.953C161.092 162.144 160.831 162.406 160.635 162.737C160.439 163.068 160.341 163.435 160.341 163.836C160.341 164.233 160.436 164.597 160.628 164.928C160.824 165.255 161.085 165.516 161.412 165.712C161.743 165.908 162.109 166.006 162.511 166.006Z" fill="#00103D"/>
<path d="M221.7 166.993L221.707 165.873L226.18 161.848C226.553 161.512 226.803 161.195 226.929 160.896C227.06 160.593 227.125 160.282 227.125 159.965C227.125 159.578 227.036 159.228 226.859 158.915C226.682 158.602 226.439 158.355 226.131 158.173C225.828 157.991 225.482 157.9 225.095 157.9C224.694 157.9 224.337 157.996 224.024 158.187C223.711 158.374 223.464 158.623 223.282 158.936C223.105 159.249 223.018 159.589 223.023 159.958H221.749C221.749 159.323 221.896 158.763 222.19 158.278C222.484 157.788 222.883 157.405 223.387 157.13C223.896 156.85 224.472 156.71 225.116 156.71C225.741 156.71 226.301 156.855 226.796 157.144C227.291 157.429 227.68 157.818 227.965 158.313C228.254 158.803 228.399 159.358 228.399 159.979C228.399 160.418 228.343 160.798 228.231 161.12C228.124 161.442 227.956 161.741 227.727 162.016C227.498 162.287 227.211 162.576 226.866 162.884L223.149 166.223L222.988 165.803H228.399V166.993H221.7ZM233.224 167.21C232.58 167.21 232.01 167.082 231.516 166.825C231.021 166.564 230.634 166.202 230.354 165.74C230.074 165.278 229.934 164.739 229.934 164.123C229.934 163.521 230.076 162.977 230.361 162.492C230.65 162.007 231.084 161.633 231.663 161.372L231.642 161.827C231.17 161.598 230.809 161.276 230.557 160.861C230.305 160.441 230.179 159.977 230.179 159.468C230.179 158.899 230.309 158.409 230.571 157.998C230.832 157.587 231.191 157.27 231.649 157.046C232.106 156.822 232.631 156.71 233.224 156.71C233.816 156.71 234.341 156.822 234.799 157.046C235.256 157.27 235.615 157.587 235.877 157.998C236.138 158.409 236.269 158.899 236.269 159.468C236.269 159.977 236.15 160.439 235.912 160.854C235.674 161.265 235.307 161.589 234.813 161.827L234.785 161.379C235.363 161.631 235.797 162.002 236.087 162.492C236.381 162.977 236.528 163.521 236.528 164.123C236.528 164.739 236.385 165.278 236.101 165.74C235.821 166.202 235.431 166.564 234.932 166.825C234.437 167.082 233.868 167.21 233.224 167.21ZM233.224 166.02C233.812 166.02 234.288 165.859 234.652 165.537C235.02 165.21 235.205 164.739 235.205 164.123C235.205 163.502 235.023 163.031 234.659 162.709C234.299 162.382 233.821 162.219 233.224 162.219C232.631 162.219 232.153 162.382 231.789 162.709C231.429 163.031 231.25 163.502 231.25 164.123C231.25 164.739 231.432 165.21 231.796 165.537C232.16 165.859 232.636 166.02 233.224 166.02ZM233.224 161.022C233.737 161.022 234.152 160.894 234.47 160.637C234.787 160.376 234.946 159.986 234.946 159.468C234.946 158.95 234.787 158.563 234.47 158.306C234.152 158.045 233.737 157.914 233.224 157.914C232.715 157.914 232.3 158.045 231.978 158.306C231.66 158.563 231.502 158.95 231.502 159.468C231.502 159.986 231.66 160.376 231.978 160.637C232.3 160.894 232.715 161.022 233.224 161.022ZM241.747 167.21C241.094 167.21 240.511 167.063 239.997 166.769C239.489 166.47 239.085 166.067 238.786 165.558C238.492 165.045 238.345 164.461 238.345 163.808V160.112C238.345 159.459 238.492 158.875 238.786 158.362C239.085 157.849 239.489 157.445 239.997 157.151C240.511 156.857 241.094 156.71 241.747 156.71C242.401 156.71 242.984 156.857 243.497 157.151C244.011 157.445 244.414 157.849 244.708 158.362C245.002 158.875 245.149 159.459 245.149 160.112V163.808C245.149 164.461 245.002 165.045 244.708 165.558C244.414 166.067 244.011 166.47 243.497 166.769C242.984 167.063 242.401 167.21 241.747 167.21ZM241.747 166.013C242.144 166.013 242.503 165.917 242.825 165.726C243.147 165.535 243.404 165.278 243.595 164.956C243.787 164.629 243.882 164.27 243.882 163.878V160.035C243.882 159.638 243.787 159.279 243.595 158.957C243.404 158.635 243.147 158.378 242.825 158.187C242.503 157.996 242.144 157.9 241.747 157.9C241.355 157.9 240.996 157.996 240.669 158.187C240.347 158.378 240.091 158.635 239.899 158.957C239.708 159.279 239.612 159.638 239.612 160.035V163.878C239.612 164.27 239.708 164.629 239.899 164.956C240.091 165.278 240.347 165.535 240.669 165.726C240.996 165.917 241.355 166.013 241.747 166.013Z" fill="#00103D"/>
</g>
<g clip-path="url(#clip3_352_2820)">
<rect x="260" y="179" width="32" height="32" rx="16" fill="white"/>
<g clip-path="url(#clip4_352_2820)">
<path d="M282.116 191.541C282.468 191.189 282.667 190.711 282.667 190.212C282.667 189.714 282.469 189.236 282.116 188.884C281.764 188.531 281.286 188.333 280.788 188.333C280.289 188.333 279.811 188.531 279.459 188.883L270.561 197.783C270.407 197.937 270.292 198.127 270.228 198.336L269.347 201.237C269.33 201.295 269.329 201.356 269.344 201.414C269.358 201.473 269.389 201.526 269.431 201.569C269.474 201.611 269.527 201.641 269.585 201.656C269.644 201.671 269.705 201.669 269.763 201.652L272.665 200.772C272.873 200.708 273.063 200.595 273.218 200.441L282.116 191.541Z" stroke="#00103D" stroke-width="1.33333" stroke-linecap="round" stroke-linejoin="round"/>
</g>
</g>
<defs>
<clipPath id="clip0_352_2820">
<rect width="32" height="32" fill="white" transform="translate(260 8)"/>
</clipPath>
<clipPath id="clip1_352_2820">
<rect width="284" height="16" fill="white" transform="translate(8 129)"/>
</clipPath>
<clipPath id="clip2_352_2820">
<rect width="284" height="26" fill="white" transform="translate(8 145)"/>
</clipPath>
<clipPath id="clip3_352_2820">
<rect width="32" height="32" fill="white" transform="translate(260 179)"/>
</clipPath>
<clipPath id="clip4_352_2820">
<rect width="16" height="16" fill="white" transform="translate(268 187)"/>
</clipPath>
</defs>
</svg>
