<svg width="300" height="175" viewBox="0 0 300 175" fill="none" xmlns="http://www.w3.org/2000/svg">
<path d="M0 7.89472C0 3.53457 3.53459 0 7.89474 0H292.105C296.465 0 300 3.53459 300 7.89474V166.711C300 171.071 296.465 174.605 292.105 174.605H7.89474C3.5346 174.605 0 171.071 0 166.711V7.89472Z" fill="#F6F6F6"/>
<path d="M8.99998 29.8291V18.4607H10.65V23.3633H16.3342V18.4607H17.9921V29.8291H16.3342V24.9186H10.65V29.8291H8.99998ZM23.9125 30.0659C23.0599 30.0659 22.3204 29.8738 21.6941 29.4896C21.0678 29.1054 20.5836 28.5765 20.2415 27.9028C19.9046 27.2238 19.7362 26.4423 19.7362 25.558C19.7362 24.6686 19.9099 23.887 20.2573 23.2133C20.6046 22.5344 21.0915 22.008 21.7178 21.6344C22.3441 21.2554 23.0757 21.0659 23.9125 21.0659C24.7652 21.0659 25.5046 21.258 26.1309 21.6423C26.7573 22.0265 27.2415 22.5554 27.5836 23.2291C27.9257 23.9028 28.0967 24.6791 28.0967 25.558C28.0967 26.4475 27.923 27.2317 27.5757 27.9107C27.2336 28.5844 26.7494 29.1133 26.123 29.4975C25.4967 29.8765 24.7599 30.0659 23.9125 30.0659ZM23.9125 28.5107C24.7283 28.5107 25.3362 28.237 25.7362 27.6896C26.1415 27.137 26.3441 26.4265 26.3441 25.558C26.3441 24.6686 26.1388 23.958 25.7283 23.4265C25.323 22.8896 24.7178 22.6212 23.9125 22.6212C23.3599 22.6212 22.9046 22.7475 22.5467 23.0002C22.1888 23.2475 21.923 23.5923 21.7494 24.0344C21.5757 24.4712 21.4888 24.9791 21.4888 25.558C21.4888 26.4528 21.6941 27.1686 22.1046 27.7054C22.5152 28.2423 23.1178 28.5107 23.9125 28.5107ZM29.8316 29.8291V21.3028H35.8316V22.858H31.4816V29.8291H29.8316ZM44.5096 21.3028V29.8291H42.9228V23.9002L38.6596 29.8291H37.3175V21.3028H38.9044V27.1133L43.1754 21.3028H44.5096Z" fill="#00103D"/>
<g clip-path="url(#clip0_352_2795)">
<rect x="260.526" y="7.89478" width="31.5789" height="31.5789" rx="15.7895" fill="white"/>
<path d="M271.711 23.6844H280.921M276.316 19.0791V28.2896" stroke="#00103D" stroke-width="1.31579" stroke-linecap="round" stroke-linejoin="round"/>
</g>
<rect x="292.105" y="57.2368" width="284.211" height="1.97368" transform="rotate(-180 292.105 57.2368)" fill="white"/>
<path d="M8.86182 88.0264V78.079H15.3483V79.4399H10.3056V81.8369H12.8822C12.9743 81.8369 13.0918 81.8415 13.2345 81.8507C13.3819 81.8553 13.52 81.8668 13.649 81.8852C14.1878 81.9497 14.6414 82.1247 15.0098 82.4102C15.3829 82.6958 15.6638 83.0573 15.8526 83.4948C16.046 83.9323 16.1427 84.4112 16.1427 84.9316C16.1427 85.452 16.0483 85.931 15.8595 86.3685C15.6707 86.806 15.3898 87.1675 15.0168 87.453C14.6483 87.7385 14.1924 87.9135 13.649 87.978C13.52 87.9964 13.3842 88.0102 13.2414 88.0195C13.0987 88.0241 12.9789 88.0264 12.8822 88.0264H8.86182ZM10.3056 86.6655H12.827C12.9191 86.6655 13.0204 86.6609 13.1309 86.6517C13.246 86.6425 13.3543 86.6287 13.4556 86.6102C13.9023 86.5181 14.2154 86.3063 14.395 85.9747C14.5793 85.6431 14.6714 85.2954 14.6714 84.9316C14.6714 84.5632 14.5793 84.2155 14.395 83.8885C14.2154 83.557 13.9023 83.3451 13.4556 83.253C13.3543 83.23 13.246 83.2162 13.1309 83.2116C13.0204 83.2024 12.9191 83.1977 12.827 83.1977H10.3056V86.6655ZM20.8326 88.2336C20.0911 88.2336 19.4395 88.0724 18.8776 87.7501C18.3204 87.4231 17.8852 86.9695 17.572 86.3892C17.2635 85.8043 17.1092 85.1274 17.1092 84.3583C17.1092 83.5431 17.2612 82.8362 17.5651 82.2376C17.8737 81.6389 18.302 81.176 18.85 80.8491C19.398 80.5221 20.0358 80.3586 20.7635 80.3586C21.5233 80.3586 22.1704 80.5359 22.7046 80.8905C23.2388 81.2405 23.6372 81.7402 23.8997 82.3895C24.1668 83.0389 24.2727 83.8102 24.2174 84.7037H22.7737V84.1787C22.7645 83.3129 22.5987 82.6727 22.2763 82.2583C21.9585 81.8438 21.4727 81.6366 20.8187 81.6366C20.0957 81.6366 19.5523 81.8645 19.1885 82.3204C18.8247 82.7764 18.6428 83.4349 18.6428 84.2961C18.6428 85.1158 18.8247 85.7514 19.1885 86.2027C19.5523 86.6494 20.0773 86.8727 20.7635 86.8727C21.2148 86.8727 21.6039 86.7714 21.9309 86.5688C22.2625 86.3616 22.5204 86.0668 22.7046 85.6846L24.1207 86.1336C23.8306 86.8014 23.3908 87.3195 22.8013 87.6879C22.2118 88.0517 21.5556 88.2336 20.8326 88.2336ZM18.173 84.7037V83.5777H23.499V84.7037H18.173ZM25.7673 88.0264V80.5658H31.0173V81.9267H27.211V88.0264H25.7673ZM35.4293 88.2336C34.6832 88.2336 34.0362 88.0655 33.4881 87.7293C32.9401 87.3931 32.5164 86.9303 32.2171 86.3408C31.9224 85.7468 31.775 85.0629 31.775 84.2892C31.775 83.5109 31.927 82.827 32.2309 82.2376C32.5349 81.6435 32.9608 81.1829 33.5089 80.856C34.0569 80.5244 34.697 80.3586 35.4293 80.3586C36.1753 80.3586 36.8224 80.5267 37.3704 80.8629C37.9184 81.1991 38.3421 81.6619 38.6414 82.2514C38.9408 82.8408 39.0904 83.5201 39.0904 84.2892C39.0904 85.0675 38.9385 85.7537 38.6345 86.3477C38.3352 86.9372 37.9115 87.4001 37.3635 87.7362C36.8154 88.0678 36.1707 88.2336 35.4293 88.2336ZM35.4293 86.8727C36.1431 86.8727 36.675 86.6333 37.025 86.1543C37.3796 85.6708 37.5569 85.0491 37.5569 84.2892C37.5569 83.5109 37.3773 82.8892 37.0181 82.4241C36.6635 81.9543 36.1339 81.7195 35.4293 81.7195C34.9457 81.7195 34.5474 81.83 34.2342 82.051C33.921 82.2675 33.6885 82.5691 33.5365 82.956C33.3845 83.3382 33.3085 83.7826 33.3085 84.2892C33.3085 85.0721 33.4881 85.6984 33.8474 86.1681C34.2066 86.6379 34.7339 86.8727 35.4293 86.8727ZM40.6015 88.0264V80.5658H43.8828C44.0992 80.5658 44.3157 80.5797 44.5321 80.6073C44.7486 80.6303 44.9397 80.6649 45.1055 80.7109C45.4831 80.8168 45.8055 81.0287 46.0726 81.3464C46.3397 81.6596 46.4733 82.0787 46.4733 82.6037C46.4733 82.903 46.4272 83.1563 46.3351 83.3635C46.243 83.5662 46.1163 83.7412 45.9552 83.8885C45.8815 83.953 45.8032 84.0106 45.7203 84.0612C45.6374 84.1119 45.5545 84.151 45.4716 84.1787C45.642 84.2063 45.8101 84.2662 45.9759 84.3583C46.2292 84.4918 46.4364 84.6852 46.5976 84.9385C46.7634 85.1872 46.8463 85.5211 46.8463 85.9402C46.8463 86.4422 46.7242 86.8635 46.4802 87.2043C46.2361 87.5405 45.8907 87.7708 45.444 87.8951C45.269 87.9458 45.071 87.9803 44.8499 87.9987C44.6335 88.0172 44.417 88.0264 44.2006 88.0264H40.6015ZM42.066 86.8866H44.1108C44.2075 86.8866 44.318 86.8774 44.4423 86.8589C44.5667 86.8405 44.6772 86.8152 44.7739 86.7829C44.9811 86.7185 45.1285 86.601 45.216 86.4306C45.3081 86.2602 45.3542 86.0783 45.3542 85.8849C45.3542 85.6224 45.2851 85.4129 45.1469 85.2563C45.0088 85.0951 44.8338 84.9915 44.6219 84.9454C44.5298 84.9132 44.4285 84.8948 44.318 84.8902C44.2075 84.8856 44.1131 84.8833 44.0348 84.8833H42.066V86.8866ZM42.066 83.7227H43.6825C43.816 83.7227 43.9519 83.7158 44.09 83.702C44.2282 83.6836 44.3479 83.6537 44.4492 83.6122C44.6288 83.5431 44.7624 83.428 44.8499 83.2668C44.9374 83.101 44.9811 82.9214 44.9811 82.728C44.9811 82.5162 44.9328 82.3274 44.8361 82.1616C44.7394 81.9958 44.5943 81.8806 44.4009 81.8162C44.2673 81.7701 44.1131 81.7448 43.9381 81.7402C43.7677 81.731 43.6594 81.7264 43.6134 81.7264H42.066V83.7227ZM50.3383 88.2336C49.7857 88.2336 49.3229 88.1323 48.9498 87.9297C48.5768 87.7224 48.2936 87.4507 48.1002 87.1145C47.9114 86.7737 47.8169 86.4007 47.8169 85.9954C47.8169 85.6178 47.8837 85.2862 48.0173 85.0007C48.1508 84.7152 48.3489 84.4734 48.6114 84.2754C48.8739 84.0727 49.1962 83.9093 49.5785 83.7849C49.91 83.6882 50.2854 83.603 50.7044 83.5293C51.1235 83.4556 51.5633 83.3866 52.0239 83.3221C52.489 83.2576 52.9495 83.1931 53.4054 83.1287L52.8804 83.4188C52.8896 82.8339 52.7653 82.401 52.5074 82.1201C52.2541 81.8346 51.8166 81.6918 51.1949 81.6918C50.8035 81.6918 50.4443 81.7839 50.1173 81.9681C49.7903 82.1477 49.5623 82.4471 49.4334 82.8662L48.0864 82.4517C48.2706 81.8116 48.6206 81.3027 49.1364 80.9251C49.6568 80.5474 50.3475 80.3586 51.2087 80.3586C51.8765 80.3586 52.4568 80.4737 52.9495 80.704C53.4469 80.9297 53.8107 81.2889 54.041 81.7816C54.1607 82.0257 54.2344 82.2836 54.262 82.5553C54.2896 82.827 54.3035 83.1195 54.3035 83.4326V88.0264H53.0255V86.3201L53.2742 86.5412C52.9656 87.1122 52.5719 87.5382 52.0929 87.8191C51.6186 88.0954 51.0337 88.2336 50.3383 88.2336ZM50.5939 87.0524C51.0038 87.0524 51.3561 86.981 51.6508 86.8382C51.9456 86.6908 52.1827 86.5043 52.3623 86.2787C52.5419 86.053 52.6594 85.8181 52.7146 85.5741C52.7929 85.353 52.8367 85.1043 52.8459 84.828C52.8597 84.5517 52.8666 84.3306 52.8666 84.1649L53.3364 84.3376C52.8804 84.4066 52.466 84.4688 52.0929 84.5241C51.7199 84.5793 51.3814 84.6346 51.0775 84.6899C50.7781 84.7405 50.511 84.8027 50.2762 84.8764C50.0781 84.9454 49.9008 85.0283 49.7443 85.1251C49.5923 85.2218 49.4702 85.3392 49.3781 85.4774C49.2906 85.6155 49.2469 85.7836 49.2469 85.9816C49.2469 86.1751 49.2952 86.3547 49.3919 86.5204C49.4887 86.6816 49.636 86.8106 49.8341 86.9073C50.0321 87.004 50.2854 87.0524 50.5939 87.0524ZM60.6357 88.0264V85.4359H59.1574C58.9824 85.4359 58.7729 85.429 58.5288 85.4152C58.2894 85.4014 58.0637 85.376 57.8519 85.3392C57.2946 85.2379 56.8295 84.9961 56.4565 84.6139C56.0834 84.227 55.8969 83.6951 55.8969 83.0181C55.8969 82.3642 56.0719 81.8392 56.4219 81.4431C56.7765 81.0425 57.2255 80.7846 57.769 80.6695C58.0038 80.6142 58.2433 80.5843 58.4874 80.5797C58.7361 80.5704 58.9456 80.5658 59.116 80.5658H62.0795L62.0864 88.0264H60.6357ZM55.6828 88.0264L57.5686 85.0767H59.0953L57.2232 88.0264H55.6828ZM59.0331 84.2754H60.6357V81.7264H59.0331C58.9318 81.7264 58.8074 81.731 58.6601 81.7402C58.5127 81.7494 58.3699 81.7747 58.2318 81.8162C58.089 81.8576 57.9509 81.9313 57.8173 82.0372C57.6884 82.1431 57.5824 82.279 57.4996 82.4448C57.4167 82.606 57.3752 82.7925 57.3752 83.0043C57.3752 83.3221 57.465 83.5846 57.6446 83.7918C57.8242 83.9945 58.0384 84.128 58.2871 84.1925C58.4206 84.2293 58.5542 84.2524 58.6877 84.2616C58.8213 84.2708 58.9364 84.2754 59.0331 84.2754ZM66.2303 89.6843V86.8658C66.6401 86.8658 66.9326 86.73 67.1076 86.4583C67.2872 86.182 67.4299 85.7145 67.5359 85.056C67.6003 84.6553 67.6533 84.2293 67.6947 83.778C67.7408 83.3267 67.7799 82.8385 67.8122 82.3135C67.8444 81.7839 67.8766 81.2014 67.9089 80.5658H73.2556V86.8658H73.9878V89.6843H72.6201V88.0264H67.6049V89.6843H66.2303ZM68.2957 86.8658H71.8049V81.7264H69.1938C69.1753 82.0303 69.1546 82.3435 69.1316 82.6658C69.1132 82.9882 69.0901 83.3083 69.0625 83.626C69.0395 83.9438 69.0118 84.2477 68.9796 84.5379C68.9474 84.828 68.9105 85.0905 68.8691 85.3254C68.8138 85.6892 68.747 85.9931 68.6688 86.2372C68.5951 86.4813 68.4707 86.6908 68.2957 86.8658ZM78.6036 88.2336C77.8575 88.2336 77.2105 88.0655 76.6625 87.7293C76.1145 87.3931 75.6908 86.9303 75.3914 86.3408C75.0967 85.7468 74.9493 85.0629 74.9493 84.2892C74.9493 83.5109 75.1013 82.827 75.4052 82.2376C75.7092 81.6435 76.1352 81.1829 76.6832 80.856C77.2312 80.5244 77.8714 80.3586 78.6036 80.3586C79.3497 80.3586 79.9967 80.5267 80.5447 80.8629C81.0927 81.1991 81.5164 81.6619 81.8158 82.2514C82.1151 82.8408 82.2648 83.5201 82.2648 84.2892C82.2648 85.0675 82.1128 85.7537 81.8089 86.3477C81.5095 86.9372 81.0858 87.4001 80.5378 87.7362C79.9898 88.0678 79.345 88.2336 78.6036 88.2336ZM78.6036 86.8727C79.3174 86.8727 79.8493 86.6333 80.1993 86.1543C80.5539 85.6708 80.7312 85.0491 80.7312 84.2892C80.7312 83.5109 80.5516 82.8892 80.1924 82.4241C79.8378 81.9543 79.3082 81.7195 78.6036 81.7195C78.12 81.7195 77.7217 81.83 77.4085 82.051C77.0954 82.2675 76.8628 82.5691 76.7108 82.956C76.5589 83.3382 76.4829 83.7826 76.4829 84.2892C76.4829 85.0721 76.6625 85.6984 77.0217 86.1681C77.3809 86.6379 77.9082 86.8727 78.6036 86.8727ZM87.2851 88.2336C86.5713 88.2336 85.9726 88.0609 85.489 87.7155C85.0055 87.3655 84.6394 86.8935 84.3907 86.2994C84.142 85.7053 84.0177 85.0352 84.0177 84.2892C84.0177 83.5431 84.1397 82.8731 84.3838 82.279C84.6325 81.6849 84.9963 81.2175 85.4752 80.8767C85.9588 80.5313 86.5529 80.3586 87.2575 80.3586C87.9575 80.3586 88.5608 80.5313 89.0673 80.8767C89.5785 81.2175 89.9723 81.6849 90.2486 82.279C90.5249 82.8685 90.6631 83.5385 90.6631 84.2892C90.6631 85.0352 90.5249 85.7076 90.2486 86.3063C89.9769 86.9004 89.5877 87.3701 89.0811 87.7155C88.5792 88.0609 87.9805 88.2336 87.2851 88.2336ZM83.7759 91.3422V80.5658H85.0608V85.9333H85.2265V91.3422H83.7759ZM87.0848 86.928C87.5453 86.928 87.9252 86.8106 88.2246 86.5757C88.5285 86.3408 88.7542 86.0254 88.9015 85.6293C89.0535 85.2287 89.1295 84.782 89.1295 84.2892C89.1295 83.801 89.0535 83.3589 88.9015 82.9629C88.7542 82.5668 88.5262 82.2514 88.2177 82.0165C87.9091 81.7816 87.5154 81.6642 87.0364 81.6642C86.5851 81.6642 86.2121 81.7747 85.9173 81.9958C85.6272 82.2168 85.4108 82.5254 85.268 82.9214C85.1298 83.3175 85.0608 83.7734 85.0608 84.2892C85.0608 84.805 85.1298 85.2609 85.268 85.657C85.4061 86.053 85.6249 86.3639 85.9242 86.5895C86.2236 86.8152 86.6104 86.928 87.0848 86.928ZM95.4281 88.2336C94.682 88.2336 94.035 88.0655 93.487 87.7293C92.939 87.3931 92.5153 86.9303 92.2159 86.3408C91.9212 85.7468 91.7738 85.0629 91.7738 84.2892C91.7738 83.5109 91.9258 82.827 92.2297 82.2376C92.5337 81.6435 92.9597 81.1829 93.5077 80.856C94.0557 80.5244 94.6959 80.3586 95.4281 80.3586C96.1742 80.3586 96.8212 80.5267 97.3692 80.8629C97.9172 81.1991 98.3409 81.6619 98.6403 82.2514C98.9396 82.8408 99.0893 83.5201 99.0893 84.2892C99.0893 85.0675 98.9373 85.7537 98.6334 86.3477C98.334 86.9372 97.9103 87.4001 97.3623 87.7362C96.8143 88.0678 96.1695 88.2336 95.4281 88.2336ZM95.4281 86.8727C96.1419 86.8727 96.6738 86.6333 97.0238 86.1543C97.3784 85.6708 97.5557 85.0491 97.5557 84.2892C97.5557 83.5109 97.3761 82.8892 97.0169 82.4241C96.6623 81.9543 96.1327 81.7195 95.4281 81.7195C94.9445 81.7195 94.5462 81.83 94.233 82.051C93.9199 82.2675 93.6873 82.5691 93.5353 82.956C93.3834 83.3382 93.3074 83.7826 93.3074 84.2892C93.3074 85.0721 93.487 85.6984 93.8462 86.1681C94.2054 86.6379 94.7327 86.8727 95.4281 86.8727ZM99.576 88.0264L102.45 84.2961L99.7348 80.5658H101.324L103.921 84.2063V80.5658H105.22V84.2063L107.817 80.5658H109.413L106.698 84.2961L109.572 88.0264H107.893L105.22 84.3859V88.0264H103.921V84.3859L101.255 88.0264H99.576ZM110.665 88.0264L110.672 80.5658H112.137V84.1579L115.066 80.5658H116.903L113.808 84.2961L117.221 88.0264H115.259L112.137 84.4343V88.0264H110.665ZM120.024 88.2336C119.472 88.2336 119.009 88.1323 118.636 87.9297C118.263 87.7224 117.98 87.4507 117.786 87.1145C117.597 86.7737 117.503 86.4007 117.503 85.9954C117.503 85.6178 117.57 85.2862 117.703 85.0007C117.837 84.7152 118.035 84.4734 118.297 84.2754C118.56 84.0727 118.882 83.9093 119.265 83.7849C119.596 83.6882 119.971 83.603 120.391 83.5293C120.81 83.4556 121.249 83.3866 121.71 83.3221C122.175 83.2576 122.636 83.1931 123.092 83.1287L122.567 83.4188C122.576 82.8339 122.451 82.401 122.193 82.1201C121.94 81.8346 121.503 81.6918 120.881 81.6918C120.49 81.6918 120.13 81.7839 119.803 81.9681C119.476 82.1477 119.248 82.4471 119.119 82.8662L117.772 82.4517C117.957 81.8116 118.307 81.3027 118.822 80.9251C119.343 80.5474 120.034 80.3586 120.895 80.3586C121.563 80.3586 122.143 80.4737 122.636 80.704C123.133 80.9297 123.497 81.2889 123.727 81.7816C123.847 82.0257 123.92 82.2836 123.948 82.5553C123.976 82.827 123.99 83.1195 123.99 83.4326V88.0264H122.712V86.3201L122.96 86.5412C122.652 87.1122 122.258 87.5382 121.779 87.8191C121.305 88.0954 120.72 88.2336 120.024 88.2336ZM120.28 87.0524C120.69 87.0524 121.042 86.981 121.337 86.8382C121.632 86.6908 121.869 86.5043 122.048 86.2787C122.228 86.053 122.345 85.8181 122.401 85.5741C122.479 85.353 122.523 85.1043 122.532 84.828C122.546 84.5517 122.553 84.3306 122.553 84.1649L123.022 84.3376C122.567 84.4066 122.152 84.4688 121.779 84.5241C121.406 84.5793 121.068 84.6346 120.764 84.6899C120.464 84.7405 120.197 84.8027 119.962 84.8764C119.764 84.9454 119.587 85.0283 119.43 85.1251C119.278 85.2218 119.156 85.3392 119.064 85.4774C118.977 85.6155 118.933 85.7836 118.933 85.9816C118.933 86.1751 118.981 86.3547 119.078 86.5204C119.175 86.6816 119.322 86.8106 119.52 86.9073C119.718 87.004 119.971 87.0524 120.28 87.0524Z" fill="#00103D"/>
<path opacity="0.6" d="M11.252 109.151C10.8138 109.151 10.4052 109.062 10.0263 108.885C9.65129 108.703 9.32958 108.455 9.06116 108.139C8.79274 107.819 8.60129 107.452 8.48682 107.037L9.67695 106.718C9.74406 106.97 9.85853 107.189 10.0204 107.375C10.1862 107.56 10.3796 107.705 10.6006 107.807C10.8217 107.906 11.0506 107.955 11.2875 107.955C11.5993 107.955 11.8816 107.88 12.1342 107.73C12.3908 107.58 12.5921 107.379 12.7381 107.126C12.8881 106.874 12.9631 106.595 12.9631 106.291C12.9631 105.98 12.8862 105.697 12.7322 105.445C12.5822 105.192 12.3789 104.993 12.1223 104.847C11.8697 104.697 11.5914 104.622 11.2875 104.622C10.9401 104.622 10.646 104.691 10.4052 104.829C10.1645 104.967 9.97695 105.127 9.84274 105.309L8.76511 104.93L9.02564 100.447H13.6263V101.614H9.65919L10.1625 101.146L9.95524 104.503L9.71248 104.189C9.93748 103.964 10.2059 103.793 10.5177 103.674C10.8296 103.556 11.1395 103.497 11.4473 103.497C11.9763 103.497 12.448 103.619 12.8625 103.864C13.2809 104.109 13.6105 104.442 13.8513 104.864C14.0921 105.283 14.2125 105.759 14.2125 106.291C14.2125 106.82 14.0763 107.302 13.8039 107.736C13.5316 108.166 13.1704 108.51 12.7204 108.766C12.2704 109.023 11.7809 109.151 11.252 109.151ZM15.6218 108.974V102.579H16.658L19.0205 107.268L21.377 102.579H22.4191V108.974H21.2231V105.113L19.2988 108.974H18.7363L16.8119 105.113V108.974H15.6218ZM29.4696 102.579V108.974H28.2794V104.527L25.0821 108.974H24.0755V102.579H25.2656V106.937L28.4689 102.579H29.4696ZM31.1183 108.974V102.579H32.3558V105.19H35.4762V102.579H36.7137V108.974H35.4762V106.357H32.3558V108.974H31.1183Z" fill="#00103D"/>
<rect x="260.526" y="76.7107" width="31.5789" height="31.5789" rx="15.7895" fill="white"/>
<path d="M282.351 89.0869C282.699 88.7392 282.895 88.2675 282.895 87.7757C282.895 87.2838 282.7 86.8121 282.352 86.4642C282.004 86.1164 281.532 85.921 281.041 85.9209C280.549 85.9208 280.077 86.1162 279.729 86.4639L270.949 95.2461C270.796 95.3985 270.683 95.586 270.62 95.7922L269.751 98.6554C269.734 98.7123 269.733 98.7727 269.747 98.8303C269.762 98.8878 269.792 98.9404 269.834 98.9823C269.876 99.0243 269.928 99.0541 269.986 99.0686C270.043 99.083 270.104 99.0817 270.161 99.0646L273.025 98.1961C273.231 98.1335 273.418 98.0212 273.571 97.8692L282.351 89.0869Z" stroke="#00103D" stroke-width="1.31579" stroke-linecap="round" stroke-linejoin="round"/>
<path d="M8.03287 142.763L11.998 137.672L8.35754 132.816H10.1052L13.4418 137.368V132.816H14.8855V137.368L18.222 132.816H19.9697L16.3293 137.672L20.2944 142.763H18.4845L14.8855 138.1V142.763H13.4418V138.1L9.83583 142.763H8.03287ZM27.6821 135.303V142.763H26.2936V137.575L22.5633 142.763H21.389V135.303H22.7774V140.387L26.5146 135.303H27.6821ZM29.6056 142.763V135.303H30.8145L33.5707 140.774L36.3201 135.303H37.5358V142.763H36.1404V138.259L33.8954 142.763H33.2391L30.9941 138.259V142.763H29.6056ZM41.5502 142.763V141.54C41.8265 141.591 42.036 141.584 42.1788 141.52C42.3262 141.451 42.4344 141.326 42.5035 141.147C42.5772 140.967 42.6393 140.735 42.69 140.449C42.7683 140.03 42.8351 139.553 42.8903 139.019C42.9502 138.48 43.0032 137.898 43.0492 137.271C43.0953 136.645 43.1367 135.989 43.1735 135.303H48.5341V142.763H47.0834V136.664H44.4722C44.4446 137.027 44.4124 137.414 44.3755 137.824C44.3433 138.229 44.3064 138.632 44.265 139.033C44.2235 139.434 44.1798 139.809 44.1337 140.159C44.0877 140.509 44.0393 140.808 43.9887 141.057C43.8966 141.554 43.7607 141.95 43.5811 142.245C43.4061 142.535 43.1574 142.722 42.8351 142.805C42.5127 142.892 42.0844 142.878 41.5502 142.763ZM53.78 142.97C53.0385 142.97 52.3869 142.809 51.825 142.487C51.2678 142.16 50.8326 141.706 50.5194 141.126C50.2109 140.541 50.0566 139.864 50.0566 139.095C50.0566 138.28 50.2086 137.573 50.5125 136.974C50.8211 136.376 51.2494 135.913 51.7974 135.586C52.3454 135.259 52.9833 135.095 53.7109 135.095C54.4708 135.095 55.1178 135.273 55.652 135.627C56.1862 135.977 56.5846 136.477 56.8471 137.126C57.1142 137.776 57.2201 138.547 57.1648 139.44H55.7211V138.915C55.7119 138.05 55.5461 137.41 55.2237 136.995C54.906 136.581 54.4201 136.373 53.7662 136.373C53.0431 136.373 52.4997 136.601 52.1359 137.057C51.7721 137.513 51.5902 138.172 51.5902 139.033C51.5902 139.853 51.7721 140.488 52.1359 140.939C52.4997 141.386 53.0247 141.61 53.7109 141.61C54.1622 141.61 54.5514 141.508 54.8783 141.306C55.2099 141.098 55.4678 140.804 55.652 140.421L57.0681 140.87C56.778 141.538 56.3382 142.056 55.7487 142.425C55.1592 142.789 54.503 142.97 53.78 142.97ZM51.1204 139.44V138.314H56.4464V139.44H51.1204ZM57.6159 142.763L60.4896 139.033L57.7748 135.303H59.3636L61.961 138.943V135.303H63.2597V138.943L65.857 135.303H67.4527L64.7379 139.033L67.6116 142.763H65.933L63.2597 139.123V142.763H61.961V139.123L59.2945 142.763H57.6159ZM70.5493 142.97C69.9967 142.97 69.5339 142.869 69.1608 142.666C68.7878 142.459 68.5046 142.188 68.3112 141.851C68.1223 141.511 68.0279 141.138 68.0279 140.732C68.0279 140.355 68.0947 140.023 68.2283 139.738C68.3618 139.452 68.5598 139.21 68.8223 139.012C69.0848 138.81 69.4072 138.646 69.7894 138.522C70.121 138.425 70.4964 138.34 70.9154 138.266C71.3345 138.192 71.7743 138.123 72.2348 138.059C72.7 137.994 73.1605 137.93 73.6164 137.865L73.0914 138.156C73.1006 137.571 72.9763 137.138 72.7184 136.857C72.4651 136.571 72.0276 136.429 71.4059 136.429C71.0144 136.429 70.6552 136.521 70.3283 136.705C70.0013 136.885 69.7733 137.184 69.6444 137.603L68.2973 137.189C68.4816 136.548 68.8316 136.039 69.3473 135.662C69.8677 135.284 70.5585 135.095 71.4197 135.095C72.0875 135.095 72.6677 135.211 73.1605 135.441C73.6579 135.666 74.0217 136.026 74.2519 136.518C74.3717 136.763 74.4454 137.02 74.473 137.292C74.5006 137.564 74.5144 137.856 74.5144 138.169V142.763H73.2365V141.057L73.4852 141.278C73.1766 141.849 72.7829 142.275 72.3039 142.556C71.8296 142.832 71.2447 142.97 70.5493 142.97ZM70.8049 141.789C71.2148 141.789 71.5671 141.718 71.8618 141.575C72.1566 141.428 72.3937 141.241 72.5733 141.015C72.7529 140.79 72.8704 140.555 72.9256 140.311C73.0039 140.09 73.0477 139.841 73.0569 139.565C73.0707 139.289 73.0776 139.067 73.0776 138.902L73.5473 139.074C73.0914 139.143 72.6769 139.206 72.3039 139.261C71.9309 139.316 71.5924 139.371 71.2885 139.427C70.9891 139.477 70.722 139.539 70.4871 139.613C70.2891 139.682 70.1118 139.765 69.9552 139.862C69.8033 139.959 69.6812 140.076 69.5891 140.214C69.5016 140.352 69.4579 140.52 69.4579 140.718C69.4579 140.912 69.5062 141.091 69.6029 141.257C69.6996 141.418 69.847 141.547 70.045 141.644C70.2431 141.741 70.4964 141.789 70.8049 141.789Z" fill="#00103D"/>
<path opacity="0.6" d="M12.3355 163.71V162.224H8.48682V161.052L11.2579 155.184H12.673L9.90195 161.052H12.3355V158.743H13.5908V161.052H14.4375V162.224H13.5908V163.71H12.3355ZM14.975 163.71L17.3671 160.478L15.0283 157.316H16.4967L18.0895 159.512L19.6645 157.316H21.1329L18.7941 160.478L21.1921 163.71H19.7178L18.0895 161.443L16.4493 163.71H14.975ZM23.6247 163.71V156.546L22.0201 157.523V156.143L23.6247 155.184H24.8859V163.71H23.6247ZM26.8976 163.705L26.9035 162.603L30.616 159.276C30.916 159.011 31.1193 158.758 31.2259 158.518C31.3364 158.277 31.3917 158.036 31.3917 157.795C31.3917 157.491 31.3246 157.219 31.1904 156.978C31.0561 156.733 30.8706 156.54 30.6338 156.398C30.3969 156.256 30.1246 156.185 29.8167 156.185C29.5009 156.185 29.2186 156.26 28.97 156.41C28.7252 156.556 28.5338 156.751 28.3956 156.996C28.2575 157.241 28.1904 157.505 28.1943 157.789H26.9272C26.9272 157.237 27.0515 156.753 27.3002 156.339C27.5529 155.92 27.8982 155.595 28.3364 155.362C28.7746 155.125 29.2759 155.007 29.8404 155.007C30.3772 155.007 30.8588 155.129 31.2851 155.374C31.7114 155.614 32.0469 155.946 32.2917 156.368C32.5404 156.791 32.6647 157.272 32.6647 157.813C32.6647 158.204 32.6134 158.535 32.5108 158.808C32.4081 159.08 32.2542 159.333 32.0489 159.566C31.8436 159.799 31.5871 160.051 31.2792 160.324L28.4134 162.882L28.2772 162.526H32.6647V163.705H26.8976ZM33.3742 163.71L35.7663 160.478L33.4275 157.316H34.8959L36.4887 159.512L38.0637 157.316H39.5321L37.1933 160.478L39.5913 163.71H38.117L36.4887 161.443L34.8485 163.71H33.3742ZM42.0239 163.71V156.546L40.4193 157.523V156.143L42.0239 155.184H43.2851V163.71H42.0239ZM48.506 163.888C47.9257 163.888 47.4126 163.762 46.9665 163.509C46.5205 163.253 46.1692 162.901 45.9126 162.455C45.66 162.009 45.5336 161.496 45.5336 160.916V157.979C45.5336 157.399 45.66 156.885 45.9126 156.439C46.1692 155.993 46.5205 155.644 46.9665 155.391C47.4126 155.135 47.9257 155.007 48.506 155.007C49.0863 155.007 49.5994 155.135 50.0455 155.391C50.4915 155.644 50.8409 155.993 51.0935 156.439C51.3501 156.885 51.4784 157.399 51.4784 157.979V160.916C51.4784 161.496 51.3501 162.009 51.0935 162.455C50.8409 162.901 50.4915 163.253 50.0455 163.509C49.5994 163.762 49.0863 163.888 48.506 163.888ZM48.506 162.704C48.8218 162.704 49.108 162.629 49.3646 162.479C49.6251 162.325 49.8323 162.12 49.9863 161.863C50.1402 161.603 50.2172 161.312 50.2172 160.993V157.89C50.2172 157.574 50.1402 157.288 49.9863 157.032C49.8323 156.771 49.6251 156.566 49.3646 156.416C49.108 156.262 48.8218 156.185 48.506 156.185C48.1902 156.185 47.9021 156.262 47.6415 156.416C47.385 156.566 47.1797 156.771 47.0257 157.032C46.8718 157.288 46.7948 157.574 46.7948 157.89V160.993C46.7948 161.312 46.8718 161.603 47.0257 161.863C47.1797 162.12 47.385 162.325 47.6415 162.479C47.9021 162.629 48.1902 162.704 48.506 162.704ZM56.1039 163.888C55.5237 163.888 55.0105 163.762 54.5645 163.509C54.1184 163.253 53.7671 162.901 53.5105 162.455C53.2579 162.009 53.1316 161.496 53.1316 160.916V157.979C53.1316 157.399 53.2579 156.885 53.5105 156.439C53.7671 155.993 54.1184 155.644 54.5645 155.391C55.0105 155.135 55.5237 155.007 56.1039 155.007C56.6842 155.007 57.1973 155.135 57.6434 155.391C58.0895 155.644 58.4388 155.993 58.6914 156.439C58.948 156.885 59.0763 157.399 59.0763 157.979V160.916C59.0763 161.496 58.948 162.009 58.6914 162.455C58.4388 162.901 58.0895 163.253 57.6434 163.509C57.1973 163.762 56.6842 163.888 56.1039 163.888ZM56.1039 162.704C56.4197 162.704 56.7059 162.629 56.9625 162.479C57.223 162.325 57.4302 162.12 57.5842 161.863C57.7381 161.603 57.8151 161.312 57.8151 160.993V157.89C57.8151 157.574 57.7381 157.288 57.5842 157.032C57.4302 156.771 57.223 156.566 56.9625 156.416C56.7059 156.262 56.4197 156.185 56.1039 156.185C55.7881 156.185 55.5 156.262 55.2395 156.416C54.9829 156.566 54.7776 156.771 54.6237 157.032C54.4697 157.288 54.3927 157.574 54.3927 157.89V160.993C54.3927 161.312 54.4697 161.603 54.6237 161.863C54.7776 162.12 54.9829 162.325 55.2395 162.479C55.5 162.629 55.7881 162.704 56.1039 162.704ZM63.0943 163.71L63.1002 157.316H64.3555V160.395L66.866 157.316H68.441L65.7884 160.513L68.7134 163.71H67.0318L64.3555 160.632V163.71H63.0943ZM69.3104 163.71V157.316H73.8104V158.482H70.5479V163.71H69.3104Z" fill="#00103D"/>
<rect x="260.526" y="131.448" width="31.5789" height="31.5789" rx="15.7895" fill="white"/>
<path d="M282.351 143.824C282.699 143.476 282.895 143.004 282.895 142.512C282.895 142.021 282.7 141.549 282.352 141.201C282.004 140.853 281.532 140.658 281.041 140.658C280.549 140.658 280.077 140.853 279.729 141.201L270.949 149.983C270.796 150.135 270.683 150.323 270.62 150.529L269.751 153.392C269.734 153.449 269.733 153.51 269.747 153.567C269.762 153.625 269.792 153.677 269.834 153.719C269.876 153.761 269.928 153.791 269.986 153.805C270.043 153.82 270.104 153.818 270.161 153.801L273.025 152.933C273.231 152.87 273.418 152.758 273.571 152.606L282.351 143.824Z" stroke="#00103D" stroke-width="1.31579" stroke-linecap="round" stroke-linejoin="round"/>
<defs>
<clipPath id="clip0_352_2795">
<rect width="31.5789" height="31.5789" fill="white" transform="translate(260.526 7.89478)"/>
</clipPath>
</defs>
</svg>
