<svg width="299" height="485" viewBox="0 0 299 485" fill="none" xmlns="http://www.w3.org/2000/svg">
<path d="M291.99 482.946C288.126 483.371 284.262 483.69 280.328 483.867L57.1475 484.045C56.9348 484.009 56.6868 484.009 56.4741 484.009C56.0841 483.974 55.6942 483.938 55.3043 483.903C53.9927 483.796 52.7166 483.655 51.3696 483.513C47.0095 483.052 47.0095 477.203 51.3696 476.778C52.6811 476.636 53.9927 476.53 55.3397 476.423C55.7296 476.388 56.0841 476.352 56.4741 476.317C56.7222 476.282 56.9349 476.281 57.183 476.281L280.292 476.459C284.227 476.636 288.091 476.955 291.99 477.38C295.535 477.77 295.535 482.52 291.99 482.946Z" fill="#C6C6C6"/>
<path d="M96.8493 80.4341C92.2056 94.3651 85.5059 109.041 72.4256 115.811C63.5637 120.384 52.9647 120.597 44.0673 125.063C33.9292 130.132 27.194 139.987 21.3806 149.664C16.5597 157.711 11.916 166.183 10.8525 175.505C9.36373 188.444 14.8582 201.028 19.0765 213.364C25.5635 232.399 29.0728 252.427 29.4982 272.526C29.9945 296.986 26.0242 321.976 32.4403 345.549C42.0467 380.678 77.5655 407.689 113.864 404.924C125.597 404.038 136.976 400.352 148.639 398.792C164.59 396.665 181.109 398.579 196.139 404.322C209.184 409.285 221.91 417.225 235.805 416.162C251.083 414.992 263.667 402.904 270.544 389.186C284.865 360.65 279.406 326.336 270.402 295.709C261.363 265.082 248.921 234.526 250.162 202.623C251.792 160.086 277.705 119.072 269.303 77.3501C266.716 64.4825 260.938 52.4657 254.025 41.2996C247.574 30.8779 239.882 20.8816 229.673 14.0756C218.648 6.7024 205.32 3.51208 192.169 1.88148C170.758 -0.77712 146.157 1.59791 132.404 18.1875C116.452 37.5067 104.79 56.684 96.8493 80.4341Z" fill="#F6F6F6"/>
<path d="M182.846 103.476C182.882 104.007 182.988 104.539 183.201 105.035C184.938 108.935 188.624 108.686 187.702 113.756C187.135 116.839 185.186 119.711 182.385 121.2C177.352 123.823 170.014 122.547 166.93 127.332C166.186 128.502 165.796 129.92 164.874 130.948C162.074 134.067 156.934 131.692 152.822 132.472C148.036 133.394 144.846 138.711 139.99 139.207C136.587 139.562 133.503 137.399 130.171 136.726C126.059 135.875 121.876 137.222 117.799 138.073C113.687 138.959 109.044 139.243 105.711 136.655C102.947 134.493 101.848 131.054 100.04 128.147C98.1256 125.028 95.148 123.929 93.0211 121.164C89.689 116.804 94.8998 112.019 96.4241 108.119C97.5584 105.248 96.9558 102.27 97.8774 99.3637C98.5155 97.414 100.394 96.1733 102.238 95.2163C105.144 93.7629 106.598 93.0185 107.626 90.0408C108.795 86.6733 109.079 83.2348 110.107 79.8673C111.596 75.1173 114.963 71.3598 118.402 67.8859C122.868 63.384 129.355 61.4344 135.417 60.4773C142.187 59.4138 148.32 61.3989 154.311 64.6602C158.493 66.9288 162.286 70.2255 164.307 74.5501C164.839 75.6844 165.299 76.9606 165.937 78.0595C166.434 78.9457 167.072 79.7255 167.958 80.2926C169.589 81.2497 171.786 81.1434 173.204 82.455C175.154 84.2274 174.303 87.0987 175.473 89.2255C176.536 91.1752 178.415 91.8841 179.869 93.4439C181.251 94.8972 182.244 96.2088 182.811 98.2293C183.307 99.8245 182.704 101.703 182.846 103.476Z" fill="#00103D"/>
<path d="M157.004 81.4974C157.004 81.4974 157.323 113.046 173.027 116.307C173.027 116.307 169.73 140.944 158.281 145.375C146.831 149.806 143.144 121.589 143.144 121.589L141.514 100.108L157.004 81.4974Z" fill="#000C2D"/>
<path d="M216.841 89.9342C213.048 75.9323 207.341 62.4621 201.421 49.24C198.762 43.2138 195.926 37.0104 192.736 31.1615C191.07 28.1485 189.298 25.1708 187.348 22.3705C186.745 21.4843 185.965 20.7753 185.044 20.279C180.648 17.8331 173.452 19.5346 170.758 23.8593C169.199 26.3761 170.014 29.7791 171.822 32.0832C172.318 32.7213 172.85 33.253 173.417 33.7847C175.012 35.2381 176.891 36.4078 178.699 37.6131C180.506 38.8538 181.924 40.2717 183.059 41.8668C186.497 46.7232 187.242 52.8911 188.872 58.9882C191.637 69.4808 194.473 79.9734 197.238 90.5014C197.238 90.5014 193.87 94.4007 188.979 99.0798C185.008 102.908 180.684 106.347 176.714 110.175C175.083 111.735 173.133 112.905 171.29 114.181C170.617 114.641 169.943 115.138 169.269 115.599C166.505 117.619 163.81 119.781 160.797 121.483C159.309 122.298 157.784 123.007 156.154 123.468C154.381 124 153.176 125.028 151.758 126.197C149.454 128.041 147.15 130.026 145.307 132.33C144.669 133.145 144.066 133.996 143.57 134.918C143.286 135.449 143.109 136.796 142.719 137.222L142.684 137.505C142.364 139.384 147.15 139.597 153.708 139.03C156.225 138.817 159.025 138.498 161.861 138.073C163.35 137.86 164.874 137.612 166.398 137.399C167.143 137.293 167.816 137.222 168.49 137.186C175.508 136.725 178.947 140.058 180.152 141.653C180.542 142.114 180.684 142.468 180.684 142.468C180.684 142.468 201.137 118.399 203.867 114.996C204.398 114.322 204.966 113.649 205.462 112.975C212.303 104.042 218.258 94.6133 216.841 89.9342Z" fill="#F5A784"/>
<path d="M182.704 198.546C182.917 199.291 183.13 200 183.378 200.709C178.344 202.091 173.24 203.367 168.135 204.466C167.143 204.714 166.15 204.927 165.157 205.14C160.833 206.097 156.969 206.203 153.85 208.897C153.389 209.287 152.963 209.642 152.538 210.032C151.226 211.13 149.986 212.194 148.639 213.186C147.434 214.108 146.122 214.994 144.633 215.81C138.891 219.035 132.864 223.679 130.383 229.882C129.249 232.718 128.859 234.987 126.909 237.539C125.988 238.78 119.465 243.92 119.465 244.948C119.359 239.56 119.855 234.455 120.777 229.457C122.017 222.864 123.932 216.589 126.058 210.032C126.236 209.464 126.448 208.897 126.626 208.295C126.945 207.302 127.228 206.274 127.441 205.211C129.355 196.49 128.114 186.352 126.909 177.845C126.838 177.242 126.697 176.675 126.59 176.108C125.669 171.181 124.605 166.36 123.329 161.539C123.294 161.361 123.223 161.149 123.187 160.936C122.974 160.121 122.762 159.341 122.549 158.597C121.805 155.867 120.954 153.138 119.926 150.444C117.976 145.091 115.176 139.207 115.46 133.287C115.601 130.38 117.622 128.785 120.21 127.828C122.478 126.977 124.995 126.623 127.016 126.162C127.405 126.091 127.76 125.984 128.114 125.949C128.221 125.914 128.327 125.878 128.433 125.878C129.249 125.701 130.029 125.559 130.702 125.453C131.34 125.346 131.907 125.24 132.439 125.134C132.616 125.098 132.794 125.063 132.971 125.027C134.495 124.779 135.31 124.602 135.31 124.425L131.766 102.376C131.766 102.376 134.282 101.703 137.473 101.419C142.081 100.994 148.036 101.384 149.064 105.956L153.956 122.014C153.956 122.014 154.169 122.014 154.559 121.979C155.161 121.943 158.635 121.837 159.06 121.837C160.727 121.802 162.676 121.802 164.59 121.873C165.087 121.908 165.654 121.943 166.256 121.979C167.213 122.014 168.277 122.05 169.34 122.085C172.318 122.298 175.118 122.936 176.146 125.843C177.742 130.415 178.309 134.846 180.506 139.419C180.825 140.093 181.145 140.766 181.464 141.44C183.13 145.233 184.229 149.38 182.952 153.244C182.421 154.875 181.464 156.328 180.719 157.888C180.294 158.809 179.939 159.979 179.656 161.362C178.061 169.125 178.805 183.446 181.96 195.604C182.173 196.668 182.421 197.625 182.704 198.546Z" fill="#F5A784"/>
<path d="M138.04 130.522C138.004 130.416 138.004 130.274 137.933 130.203C137.756 129.707 137.508 129.246 137.26 128.785C136.764 127.97 136.126 127.226 135.31 126.588C134.601 126.056 133.857 125.56 133.077 125.17C132.829 124.992 114.29 119.923 106.527 118.47C105.215 118.222 103.868 118.009 102.415 117.726C100.181 117.336 98.0545 116.839 96.1049 116.343C80.7205 112.231 74.9071 105.035 74.9071 105.035C74.5171 94.1528 74.1272 83.3057 73.7373 72.4232C73.5246 66.6806 72.6029 61.0444 73.879 55.869C74.4462 53.494 75.4742 51.2608 77.2112 49.063C77.9556 48.1768 78.6999 47.2551 79.4089 46.3335C80.5078 44.951 81.5004 43.4622 82.1384 41.7607C83.2019 39.0312 82.9892 35.5219 80.7559 33.5723C76.0768 29.4603 66.2577 31.0909 64.4144 36.9752C63.9536 38.3577 63.5637 39.7402 63.2092 41.1581C62.6066 43.4268 62.1104 45.7663 61.6141 48.0705C60.3734 54.3093 59.5581 60.6545 58.8137 66.8579C57.0058 81.2143 55.517 95.7834 55.9424 110.282C55.9778 115.953 72.4257 127.048 88.0582 136.3C90.256 137.612 92.4538 138.888 94.5807 140.093C104.435 145.765 115.637 149.593 122.124 159.306C122.372 159.661 122.62 160.015 122.797 160.37C122.904 160.582 123.045 160.83 123.187 161.043C123.79 161.929 124.534 162.78 125.456 162.851C125.598 162.886 125.739 162.886 125.881 162.851C126.945 162.709 127.618 161.681 128.15 160.759C131.553 154.662 140.805 139.243 138.04 130.522ZM72.3193 52.7496C72.2839 52.6433 72.3194 52.5723 72.3548 52.5015C72.3903 52.5723 72.3548 52.6433 72.3193 52.7496Z" fill="#F5A784"/>
<path d="M206.525 461.145C206.029 461.393 206.525 466.604 206.561 467.135L206.596 467.383C204.93 467.454 203.229 467.561 201.563 467.738C199.967 467.702 198.337 467.667 196.706 467.49C196.387 467.454 196.104 467.49 195.785 467.49C195.607 464.76 195.324 462.031 194.827 459.408C194.367 457.068 193.906 454.729 193.516 452.389C191.07 438.954 151.935 206.274 151.935 206.274C153.034 206.239 154.452 205.884 156.118 205.459C158.21 204.892 160.656 204.147 163.172 203.367C164.342 203.013 165.547 202.623 166.788 202.268C167.603 202.02 168.383 201.808 169.163 201.63C174.764 200.177 179.798 193.052 182.031 195.675C182.704 196.455 183.342 197.27 183.98 198.192C185.505 200.283 187.064 202.8 188.589 205.494C192.062 211.591 195.395 218.787 198.195 225.416C198.975 227.224 199.684 228.996 200.357 230.662C200.818 231.796 201.244 232.895 201.633 233.959C204.434 241.332 206.064 250.548 206.88 260.261C208.014 273.341 207.695 287.308 206.986 298.722C206.632 304.287 206.171 309.25 205.71 313.256C205.533 314.851 205.32 316.304 205.178 317.58C203.016 333.213 202.661 354.553 206.206 389.043C206.844 395.424 207.305 401.911 207.553 408.256C208.227 424.633 207.801 440.018 207.376 449.908C206.88 456.855 206.525 461.145 206.525 461.145Z" fill="#F5A784"/>
<path d="M168.241 203.296C168.241 203.296 168.206 203.686 168.135 204.466C168.135 204.785 168.1 205.211 168.064 205.671C167.32 214.037 148.355 456.855 148.107 459.23C147.823 461.924 147.788 464.654 147.859 467.383C147.54 467.419 147.256 467.419 146.973 467.454C145.342 467.738 143.747 467.951 142.152 468.128C140.486 468.092 138.784 468.163 137.118 468.234V467.986C137.083 467.454 137.118 462.208 136.586 462.031C136.586 462.031 135.842 457.777 134.92 450.865C133.573 440.904 131.765 425.378 130.95 408.753C130.667 402.62 130.525 396.346 130.596 390.142C131.056 355.474 128.788 334.241 125.243 318.857C124.995 317.616 124.64 316.198 124.321 314.603C123.861 312.476 123.4 309.959 122.939 307.159C119.359 286.386 115.247 249.52 120.847 229.492C122.372 224.033 124.463 225.026 126.094 220.666C128.256 214.817 130.454 209.89 132.333 205.99C132.439 205.778 132.545 205.53 132.652 205.317C135.877 199.149 137.933 195.675 137.933 195.675C137.933 195.675 139.883 198.334 145.661 200.496C146.795 200.921 148.107 201.311 149.56 201.701C150.305 201.914 151.085 202.127 151.935 202.268C153.779 202.623 155.693 202.871 157.784 203.048C158.706 203.119 159.663 203.225 160.655 203.261C161.471 203.296 162.286 203.332 163.137 203.332C164.697 203.403 166.398 203.367 168.241 203.296Z" fill="#F5A784"/>
<path d="M133.325 471.709C134.034 470.681 134.85 469.688 135.169 468.696C135.665 467.065 135.275 465.293 135.062 463.591C134.991 463.095 134.956 462.599 135.133 462.138C135.452 461.429 136.232 461.074 136.976 460.755C139.351 459.834 141.868 458.877 144.421 459.16C147.575 459.515 149.419 461.713 149.525 464.726C149.561 466.073 149.383 466.782 149.95 467.987C150.695 469.617 151.971 470.645 152.184 472.56C152.432 474.58 151.439 476.849 149.525 477.558C148.603 477.912 147.611 477.877 146.654 477.806C143.818 477.7 140.947 477.593 138.111 477.451C136.516 477.38 134.779 477.274 133.503 476.317C131.482 474.864 132.262 473.269 133.325 471.709Z" fill="#00103D"/>
<path d="M193.622 471.779C194.225 470.716 194.969 469.617 195.182 468.624C195.536 466.923 194.969 465.221 194.615 463.52C194.508 463.023 194.437 462.527 194.579 462.066C194.827 461.322 195.607 460.897 196.316 460.542C198.62 459.408 201.031 458.238 203.583 458.273C206.773 458.344 208.794 460.365 209.148 463.378C209.326 464.725 209.219 465.434 209.857 466.604C210.743 468.163 212.091 469.05 212.48 470.964C212.906 472.949 212.126 475.288 210.283 476.175C209.397 476.6 208.404 476.635 207.447 476.706C204.611 476.848 201.775 476.99 198.904 477.132C197.309 477.203 195.572 477.274 194.225 476.423C192.098 475.111 192.7 473.445 193.622 471.779Z" fill="#00103D"/>
<path d="M152.006 115.74C144.314 117.229 137.863 115.457 133.538 113.507L132.297 105.921L137.473 101.525C142.116 101.1 148.036 101.49 149.064 106.063L152.006 115.74Z" fill="#E0855C"/>
<path d="M157.394 86.1415C156.26 80.3989 154.878 75.6134 152.573 73.3093C142.471 63.1712 124.782 68.4175 122.336 77.8112C121.557 80.8597 121.805 85.0071 122.762 89.7926C120.387 89.7571 116.098 90.3952 117.764 96.0669C119.146 100.781 123.116 101.136 125.917 100.711C131.305 112.869 142.435 113.153 147.788 112.267C153.531 111.274 160.868 103.475 157.394 86.1415Z" fill="#F5A784"/>
<path d="M149.525 88.5871C149.525 88.5871 151.12 88.9061 150.446 86.2829C149.844 83.9079 148.816 84.4042 148.816 84.4042C148.816 84.4042 147.752 84.5815 148.284 86.6374C148.78 88.7289 149.525 88.5871 149.525 88.5871Z" fill="#00103D"/>
<path d="M135.31 91.3167C135.31 91.3167 136.906 91.6357 136.232 89.0126C135.629 86.6376 134.601 87.1693 134.601 87.1693C134.601 87.1693 133.538 87.3465 134.07 89.4025C134.566 91.4585 135.31 91.3167 135.31 91.3167Z" fill="#00103D"/>
<path d="M142.648 95.6768C143.392 95.4286 145.236 95.6059 145.448 94.7197C145.626 93.9753 143.711 90.1469 143.428 89.4734C143.109 88.729 142.79 88.0909 142.506 87.4528C142.577 87.3819 142.613 87.3465 142.683 87.2756C142.825 87.1692 142.967 87.0629 143.144 87.0275C144.314 89.6861 145.307 92.5219 146.441 95.0387C146.547 95.2514 146.405 95.535 146.157 95.5704C145.023 95.7477 143.995 96.173 142.861 96.3502C142.506 96.3857 142.294 95.7831 142.648 95.6768Z" fill="#E0855C"/>
<path d="M146.512 80.7529C147.504 80.0085 149.489 79.5477 150.482 80.5402C150.659 80.7174 150.517 81.0719 150.269 81.0719C149.738 81.1428 149.206 80.9656 148.674 81.001C148.072 81.0365 147.54 81.2846 147.044 81.5327C146.547 81.8163 146.086 81.0719 146.512 80.7529Z" fill="#00103D"/>
<path d="M131.907 84.936C132.262 83.3054 134.92 82.7028 136.232 83.4826C136.515 83.6599 136.445 84.0852 136.161 84.227C135.523 84.546 134.779 84.4043 134.105 84.5815C133.502 84.7233 133.077 85.0778 132.545 85.3614C132.262 85.5032 131.836 85.2551 131.907 84.936Z" fill="#00103D"/>
<path d="M141.549 100.107C142.683 100.462 143.605 100.923 144.846 100.781C145.803 100.675 146.795 100.037 147.753 100.214C147.894 100.249 148.036 100.391 147.965 100.568C147.433 101.738 145.626 102.128 144.456 102.234C143.215 102.341 141.691 102.128 140.876 101.1C140.486 100.568 140.982 99.9302 141.549 100.107Z" fill="#E0855C"/>
<path d="M123.683 70.0125L117.976 76.2513C117.657 79.7961 117.019 83.1637 118.118 86.5667C118.472 87.6655 118.969 88.7999 119.855 89.5088C120.635 90.1469 121.805 90.3596 122.655 89.9342C122.797 89.8633 122.939 89.7924 123.045 89.6861C123.825 89.0126 123.931 87.8428 123.967 86.8148C124.002 84.8297 123.967 82.8092 124.286 80.8595C124.64 78.7681 125.597 76.464 127.015 74.8688C128.611 73.0255 131.269 72.6002 133.29 71.3949C134.708 70.5442 135.523 68.6654 136.799 67.9919C138.359 67.1766 141.478 68.4173 143.073 68.8073C145.661 69.4453 149.029 70.367 150.907 72.3521C153.105 74.6916 155.764 78.52 156.969 81.4976C157.111 81.8167 158.139 83.6954 158.458 83.8372C160.23 84.5816 159.131 77.9174 159.238 76.9248C159.486 74.1244 158.848 71.1823 157.288 68.8073C154.771 64.908 150.836 63.3483 146.441 62.9229C144.066 62.7102 142.187 63.2774 139.777 63.4901C136.693 63.7737 133.325 64.0927 130.525 65.7233C128.256 67.1057 126.058 68.63 123.683 70.0125Z" fill="#00103D"/>
<path d="M206.88 298.723C193.658 303.863 180.967 306.77 169.305 308.223C168.738 304.82 164.449 279.085 162.818 269.62C162.109 278.482 160.089 305.174 159.805 309.109C144.952 310.066 132.262 308.79 122.939 307.16C120.777 294.575 118.402 276.036 118.118 258.915C117.941 247.82 118.65 237.363 120.848 229.493C122.088 222.9 124.003 216.625 126.129 210.068C126.307 209.5 126.519 208.933 126.697 208.331C127.016 207.338 127.299 206.31 127.512 205.247C129.249 205.282 130.986 205.318 132.687 205.318C143.18 205.282 152.609 204.431 160.656 203.262C162.783 202.943 164.803 202.588 166.753 202.234C166.965 202.198 167.143 202.198 167.284 202.127C173.523 200.993 178.734 199.681 182.775 198.512C183.165 198.405 183.52 198.263 183.91 198.157C185.115 199.788 186.285 201.702 187.525 203.687C187.844 204.254 189.546 207.267 190.042 208.224C192.949 213.683 195.714 219.745 198.124 225.381C198.869 227.189 199.613 228.961 200.286 230.627C200.747 231.762 201.173 232.861 201.563 233.924C204.363 241.297 205.994 250.514 206.809 260.226C207.872 273.342 207.589 287.309 206.88 298.723Z" fill="#00103D"/>
<path d="M288.977 214.924C286.389 192.592 239.988 179.653 179.549 182.985C179.727 184.545 179.975 186.14 180.223 187.736C186.036 187.417 191.743 187.275 197.309 187.275C245.412 187.275 282.277 198.299 284.263 215.456C286.744 237.079 233.217 261.751 167.32 269.301C134.46 273.094 103.124 272.279 79.0545 267.068C56.1551 262.105 42.3304 253.491 41.196 243.424C40.0263 233.392 51.5114 221.872 72.7093 211.805C88.0582 204.502 107.236 198.512 128.469 194.258C128.433 192.663 128.363 191.068 128.221 189.437C106.349 193.797 86.534 200 70.6888 207.515C47.2222 218.646 35.099 231.585 36.5169 243.956C37.9349 256.327 52.7166 266.182 78.0974 271.712C92.4892 274.831 109.398 276.391 127.654 276.391C140.521 276.391 154.098 275.611 167.922 274.016C236.869 266.075 289.154 241.226 289.154 216.838C289.119 216.2 289.048 215.562 288.977 214.924Z" fill="#FA763C"/>
<path d="M190.006 208.259C180.116 212.194 162.995 217.972 146.405 218.752C120.989 219.957 118.153 259.056 118.153 259.056C117.976 247.855 118.685 237.398 120.848 229.528C122.088 222.935 124.002 216.661 126.129 210.103C126.307 209.536 126.519 208.968 126.696 208.366C127.015 207.373 127.299 206.345 127.512 205.282C129.249 205.317 130.986 205.353 132.687 205.353C143.18 205.317 152.609 204.466 160.656 203.297C162.782 202.978 164.803 202.623 166.753 202.269C166.965 202.233 167.143 202.233 167.284 202.162L187.525 203.722C187.773 204.289 189.475 207.302 190.006 208.259Z" fill="#000C2D"/>
<path d="M205.391 112.94C204.859 113.614 204.328 114.287 203.796 114.961C202.272 116.875 181.889 141.015 181.428 141.511C182.244 143.39 182.882 145.34 183.236 147.289C183.626 149.31 183.555 151.366 182.917 153.316C182.385 154.946 181.464 156.4 180.684 157.959C180.294 158.881 179.904 160.051 179.62 161.433C177.387 172.174 179.301 183.517 184.689 193.124C186.923 197.094 191.531 204.538 185.505 207.126C180.294 209.359 173.133 210.245 167.568 211.344C163.066 212.23 158.174 212.868 153.07 213.116C151.617 213.223 150.128 213.258 148.639 213.258C142.436 213.258 136.587 212.301 130.49 211.379C125.137 210.564 124.712 208.543 125.066 202.978C125.917 189.295 123.613 175.435 118.366 162.745C116.027 157.073 113.014 152.571 108.547 148.424C104.329 144.489 99.5435 142.858 94.5808 140.023C92.4539 138.817 90.2561 137.541 88.0583 136.23L96.1405 116.343C98.0901 116.875 100.182 117.336 102.45 117.726C103.868 117.974 105.215 118.222 106.562 118.47C111.1 119.321 132.439 123.646 135.062 123.823C135.24 124.78 136.906 127.899 137.296 128.786C137.544 129.353 137.827 129.955 138.075 130.523C141.301 137.612 145.874 146.013 149.525 146.793C151.687 147.254 152.964 143.78 153.708 138.995C154.133 136.194 154.311 133.358 154.452 130.558C154.523 129.105 154.559 127.616 154.594 126.162C154.63 124.745 154.275 123.504 154.204 122.05C154.204 122.05 159.415 120.278 159.876 120.065C167.391 116.733 185.044 102.909 189.05 99.0448L205.391 112.94Z" fill="#658AE5"/>
<path d="M198.514 121.483C196.99 123.291 181.889 141.05 181.428 141.546L176.749 132.188C176.749 132.153 187.312 128.608 198.514 121.483Z" fill="#3965CF"/>
<path d="M148.887 159.377C146.264 161.185 143.889 162.886 140.734 163.595C137.579 164.304 134.672 163.418 131.588 163.737C131.376 163.772 131.234 163.985 131.411 164.162C136.161 168.771 146.583 165.155 150.021 160.476C150.482 159.838 149.525 158.952 148.887 159.377Z" fill="#3965CF"/>
<path d="M61.6849 177.88C46.4068 183.162 31.1642 191.386 19.041 202.127C13.5112 207.018 8.47759 212.655 4.68466 219C3.12495 221.587 -1.90867 228.323 1.06896 231.158C1.56523 231.619 2.20328 230.946 1.77791 230.449C0.218196 228.5 5.14545 221.729 6.31524 219.921C8.19398 217.085 10.2854 214.356 12.5186 211.804C16.8787 206.841 21.8414 202.446 27.1941 198.546C38.1475 190.606 50.4125 185.537 62.323 179.333C63.1028 178.944 62.5711 177.596 61.6849 177.88Z" fill="#658AE5"/>
<path d="M296.669 247.89C287.595 256.079 279.123 264.161 268.311 270.151C257.57 276.071 246.191 279.51 234.316 282.204C233.749 282.346 233.856 283.303 234.458 283.232C257.499 281.247 284.404 268.095 298.052 248.954C298.619 248.103 297.343 247.252 296.669 247.89Z" fill="#658AE5"/>
</svg>
