<svg width="408" height="468" viewBox="0 0 408 468" fill="none" xmlns="http://www.w3.org/2000/svg">
<path d="M404.399 461.379C400.57 460.954 396.778 460.635 392.914 460.493C392.843 460.458 392.772 460.458 392.701 460.458C391.602 460.422 390.503 460.351 389.404 460.316C386.356 460.351 133.151 460.281 133.151 460.281C132.903 460.316 132.69 460.316 132.442 460.316C132.194 460.351 131.982 460.351 131.733 460.387C113.797 460.351 74.1305 460.281 74.1305 460.281C73.8824 460.316 73.6697 460.316 73.4215 460.316C73.1734 460.351 72.8898 460.351 72.6062 460.387L9.08353 460.281C8.83539 460.316 8.62271 460.316 8.37458 460.316L7.52383 460.387C6.10591 460.493 4.68799 460.599 3.27007 460.777C-1.09002 461.238 -1.09002 467.087 3.27007 467.512C4.72344 467.689 6.14135 467.795 7.59472 467.902C7.84285 467.937 8.09099 467.937 8.33913 467.973C8.55182 468.008 8.79995 468.008 9.01264 468.008C9.01264 468.008 51.9401 467.902 72.6062 467.902C72.8544 467.937 73.1379 467.937 73.3861 467.973C73.5988 468.008 73.8469 468.008 74.0596 468.008C74.0596 468.008 113.017 467.902 131.733 467.902C131.982 467.937 132.194 467.937 132.407 467.973C132.62 468.008 132.868 468.008 133.08 468.008C133.08 468.008 391.602 467.831 392.736 467.831C392.807 467.831 392.914 467.831 392.985 467.795C396.848 467.618 400.641 467.335 404.434 466.909C407.944 466.519 407.979 461.769 404.399 461.379Z" fill="#C6C6C6"/>
<path d="M91.3581 12.2542C66.3673 19.7692 43.1489 39.2301 39.2142 65.0362C34.9959 92.6501 52.8616 118.102 62.1845 144.44C69.1322 164.007 71.4364 185.24 68.8487 205.835C66.1546 227.459 58.2497 247.983 51.9754 268.862C45.7012 289.705 41.022 311.754 44.9213 333.164C48.856 354.575 63.1061 375.277 84.0913 381.232C98.6604 385.344 114.506 382.047 129.181 385.698C152.683 391.547 169.45 414.127 193.165 419.161C205.642 421.82 219.219 418.984 229.605 411.611C242.047 402.784 249.314 388.499 259.559 377.226C272.852 362.551 290.859 353.192 307.449 342.416C324.074 331.64 340.344 318.134 346.831 299.418C355.481 274.463 344.704 247.274 345.272 220.865C345.874 194.386 357.891 169.643 370.014 146.106C382.137 122.568 394.899 98.3927 397.132 71.984C399.365 45.5753 388.235 16.0826 364.059 5.23556C347.718 -2.10216 328.647 0.272825 311.49 5.37733C294.333 10.4818 277.885 18.174 260.268 21.3643C229.924 26.8588 200.75 18.3867 171.648 10.9781C146.657 4.59748 116.243 4.77472 91.3581 12.2542Z" fill="#F6F6F6"/>
<path d="M209.967 97.79C211.527 96.9393 212.448 95.3087 213.583 93.9617C215.355 91.7993 217.765 90.1687 220.424 89.3534C221.629 88.9635 222.941 88.7508 224.217 88.9281C226.202 89.2116 227.904 90.4168 229.782 91.0549C234.745 92.7918 240.133 90.6295 245.415 90.346C250.519 90.0624 255.73 91.693 259.771 94.8124C262.536 96.9392 264.911 100.52 263.564 103.71C263.103 104.844 262.182 105.801 261.225 106.581C259.346 108.176 257.184 109.417 254.879 110.232C252.823 110.977 250.59 111.402 248.747 112.607C247.116 113.671 245.947 115.301 244.529 116.648C241.267 119.839 236.836 121.646 232.335 122.178C227.833 122.71 223.224 122.001 218.9 120.618C217.163 120.051 215.426 119.378 214.043 118.137C212.023 116.329 210.924 113.883 208.691 112.253C206.706 110.799 204.153 109.771 202.913 107.538C201.849 105.659 202.168 103.745 203.196 101.902C204.898 99.0307 207.273 99.2434 209.967 97.79Z" fill="#3965CF"/>
<path d="M250.236 76.0961C250.697 75.0326 251.157 74.0046 251.654 72.9412C253.922 68.2621 253.462 61.527 250.307 57.3441C248.144 54.4729 244.812 52.7359 241.48 51.4598C236.872 49.6874 231.555 48.553 227.124 50.7153C226.734 50.8926 226.344 51.1053 225.919 51.1762C225.351 51.2471 224.784 51.0699 224.252 50.9281C220.849 50.1837 217.269 52.0624 215.036 54.7565C213.015 57.2378 211.137 61.0307 210.676 64.221C210.392 66.277 210.818 68.3684 211.349 70.3535C211.775 72.0196 212.058 74.2528 212.838 75.7771C214.327 78.6483 218.51 80.0308 221.452 80.6689C224.501 81.3069 227.62 81.4842 230.562 82.4767C234.816 83.8946 236.73 87.0495 238.857 90.6652C240.7 93.82 241.906 99.4563 245.273 101.335C247.01 102.292 249.137 102.221 251.051 101.689C253.603 100.981 256.262 98.9245 256.049 96.266C255.801 93.501 252.788 92.0122 250.236 91.0551C248.641 90.4525 247.01 89.8499 245.415 89.2473C245.238 89.1764 245.06 89.1055 244.954 88.9637C244.706 88.6447 244.883 88.1838 245.06 87.8648C247.116 84.001 248.534 80.0308 250.236 76.0961Z" fill="#00103D"/>
<path d="M214.717 72.3036C214.717 72.3036 211.775 68.3688 208.443 71.9845C205.111 75.6002 210.109 83.0443 214.15 83.576C214.15 83.576 215.107 73.9342 214.717 72.3036Z" fill="#E0855C"/>
<path d="M270.937 118.847C268.81 123.207 261.437 139.194 257.822 153.408C257.538 154.543 257.254 155.642 257.042 156.705C255.482 164.007 250.094 199.42 249.243 204.985C249.172 205.446 249.137 205.729 249.137 205.729C220.389 212.11 191.357 202.858 191.357 202.858C191.357 202.858 191.357 202.291 191.286 201.263C190.967 194.244 189.62 165.248 189.194 140.222C188.982 127.46 188.982 115.692 189.478 108.425C189.655 105.766 195.823 106.333 200.148 105.979C206.174 105.412 212.696 105.554 215.674 105.66C215.922 105.66 216.17 105.66 216.383 105.66C216.95 105.695 217.269 105.695 217.269 105.695L217.872 101.548C217.872 101.513 218.262 98.7831 218.262 98.7831L219.325 91.339C219.786 91.4453 220.247 91.5871 220.743 91.658C221.665 91.8707 222.586 92.0125 223.473 92.0834C224.678 92.1897 225.777 92.2606 226.84 92.1897C227.372 92.1543 227.904 92.1543 228.4 92.1188C229.144 92.0479 229.853 91.977 230.562 91.8707C231.732 91.6934 232.866 91.4099 233.93 91.1263C234.249 91.0554 234.568 90.9845 234.887 90.8427C234.993 90.8073 235.064 90.8072 235.135 90.7718C235.383 90.7009 235.631 90.5946 235.879 90.5237C237.439 89.992 238.786 89.3539 239.885 88.7867C240.594 88.4322 241.197 88.0778 241.693 87.7587C241.87 87.6524 241.941 87.617 242.012 87.5461C242.295 87.3688 242.508 87.227 242.685 87.1207C242.934 86.9789 243.075 86.8725 243.111 86.8016C243.004 87.3334 242.934 87.5461 242.898 87.7587C242.473 90.1338 241.976 93.1468 241.693 96.1599C241.445 98.2513 241.267 100.272 241.126 102.08C240.878 105.164 240.771 107.432 240.771 107.432C241.445 107.468 242.154 107.539 242.792 107.645C242.863 107.61 242.969 107.645 243.04 107.645C246.124 107.929 249.066 108.46 251.76 109.098C261.296 111.438 268.031 115.302 270.441 116.932C271.044 117.358 271.256 118.173 270.937 118.847Z" fill="#F5A784"/>
<path d="M243.111 86.7307C238.644 103.108 222.019 101.158 218.226 98.7476L219.29 91.3035C232.902 94.8129 243.111 86.7307 243.111 86.7307Z" fill="#E0855C"/>
<path d="M215.958 61.4564C213.76 63.5124 213.37 68.3687 212.909 73.7214C211.562 89.9565 216.206 95.2737 224.465 96.5853C232.725 97.8969 241.587 95.1319 244.139 80.1374C245.415 72.6225 246.727 65.7101 244.139 62.3071C240.275 57.2735 222.693 55.1112 215.958 61.4564Z" fill="#F5A784"/>
<path d="M243.075 77.9395C243.075 77.9395 245.947 71.3107 249.775 75.1037C253.603 78.8966 247.542 88.7866 241.445 87.7231C241.48 87.6877 241.019 80.1373 243.075 77.9395Z" fill="#F5A784"/>
<path d="M247.755 78.0453C246.868 78.1517 245.911 78.9315 245.238 79.5341C244.529 80.1367 243.713 80.8811 243.324 81.7319C243.217 82.0155 243.572 82.1927 243.784 82.0155C244.316 81.5546 244.777 80.9875 245.273 80.4912C245.592 80.8812 245.947 81.2711 246.407 81.4838C246.762 81.6256 247.081 81.2002 246.904 80.8812C246.727 80.4912 246.337 80.1722 245.982 79.8886C246.656 79.4278 247.435 79.0733 248.003 78.5416C248.215 78.3289 248.038 78.0099 247.755 78.0453Z" fill="#E0855C"/>
<path d="M220.07 73.721C220.07 73.721 218.652 74.1818 218.971 71.7005C219.29 69.4672 220.247 69.8217 220.247 69.8217C220.247 69.8217 221.239 69.8572 220.991 71.8068C220.743 73.7564 220.07 73.721 220.07 73.721Z" fill="#00103D"/>
<path d="M234.32 74.4298C234.32 74.4298 232.902 74.8907 233.221 72.4093C233.54 70.1761 234.497 70.5306 234.497 70.5306C234.497 70.5306 235.489 70.566 235.241 72.5157C235.029 74.4653 234.32 74.4298 234.32 74.4298Z" fill="#00103D"/>
<path d="M226.131 80.6685C225.422 80.5267 223.756 80.8811 223.473 80.1013C223.225 79.4632 224.572 75.7058 224.749 75.0677C225.458 72.7636 226.131 71.2038 226.734 68.4389C226.769 68.3325 226.557 68.2262 226.486 68.368C224.642 72.0192 223.792 76.5919 222.622 80.4912C222.551 80.7039 222.693 80.9521 222.941 80.9521C223.969 80.9875 224.997 81.2711 226.025 81.3065C226.379 81.3065 226.486 80.7394 226.131 80.6685Z" fill="#E0855C"/>
<path d="M221.984 66.2061C220.991 65.6389 219.113 65.4262 218.333 66.4188C218.191 66.596 218.368 66.915 218.581 66.915C219.077 66.915 219.538 66.7023 220.034 66.6669C220.566 66.6314 221.098 66.8087 221.594 66.9859C222.09 67.1632 222.445 66.4542 221.984 66.2061Z" fill="#00103D"/>
<path d="M236.766 68.1913C236.269 66.7379 233.788 66.4898 232.654 67.3051C232.406 67.4823 232.547 67.8723 232.796 67.9786C233.398 68.1913 234.072 68.0141 234.71 68.085C235.277 68.1559 235.702 68.4394 236.234 68.6521C236.518 68.7585 236.837 68.4749 236.766 68.1913Z" fill="#00103D"/>
<path d="M222.338 85.5249C222.338 85.5249 227.372 86.5529 231.307 84.426C231.307 84.426 229.818 87.6872 226.627 88.3962C223.508 89.1051 222.338 85.5249 222.338 85.5249Z" fill="white"/>
<path d="M187.741 325.33C178.95 340.537 173.562 357.304 166.898 373.433C160.446 389.066 151.903 402.89 142.119 416.644C136.377 424.726 126.097 435.751 126.771 446.385C126.771 446.491 126.771 446.562 126.806 446.633C127.09 450.462 127.905 454.361 127.338 458.225C126.203 465.385 120.142 462.762 114.825 462.797C109.295 462.833 103.765 462.833 98.2704 462.868C90.9681 462.904 81.4681 464.499 74.3431 462.762C70.6919 461.876 75.1584 457.728 76.399 457.161C81.7517 454.644 87.4233 452.872 92.8114 450.462C97.845 448.228 102.666 445.286 106.14 441.174C106.459 440.855 106.742 440.501 106.991 440.146C112.45 432.844 124.36 398.495 130.599 380.665C131.769 377.297 132.761 374.532 133.47 372.618C150.343 326.961 163.849 280.028 179.942 233.875C182.814 225.722 191.179 198.356 197.241 192.188C205.819 183.503 213.724 202.929 222.515 211.507C224.961 213.882 226.556 217.143 227.478 220.724C237.155 258.157 205.181 295.164 187.741 325.33Z" fill="#F5A784"/>
<path d="M305.889 460.742C305.286 461.274 304.436 461.344 303.656 461.38C290.504 461.841 277.531 461.344 264.45 461.344C261.756 461.096 258.708 460.6 257.219 458.331C256.333 457.02 256.226 455.354 256.12 453.759C255.943 451.313 255.73 448.973 255.376 446.74C254.348 439.438 252.504 432.809 249.917 425.329C244.209 408.811 239.708 392.54 237.829 375.1C235.879 357.057 235.383 338.801 231.023 321.077C227.584 307.004 222.125 291.159 218.155 274.995C212.554 252.166 209.931 228.7 219.963 208.636C220.53 207.466 221.133 206.332 221.806 205.162C226.982 196.371 235.383 193.748 244.635 198.356C250.696 201.369 254.135 207.856 256.439 214.237C258.53 220.015 260.055 226.041 261.189 232.209C263.954 246.92 264.592 262.375 265.868 276.873C267.747 298.461 267.96 319.943 268.81 341.601C269.555 360.282 271.221 416.326 271.575 425.648C271.753 430.257 271.682 436.176 273.454 441.033C274.34 443.443 275.687 445.606 277.708 447.201C279.87 448.867 282.6 449.576 285.223 450.285C291.107 451.88 296.389 454.397 302.344 455.956C303.514 456.275 304.719 456.594 305.605 457.481C306.527 458.331 306.775 459.927 305.889 460.742Z" fill="#F5A784"/>
<path d="M198.73 108.779C191.924 103.71 175.795 108.885 169.202 110.906C159.595 113.848 149.989 117.535 139.957 117.854C138.894 117.889 137.83 117.889 136.873 117.428C135.703 116.897 134.888 115.798 134.144 114.734C125.423 102.611 112.662 88.9992 110.429 73.7211C110.074 71.3461 110.181 68.8293 110.961 66.1707C111.315 65.0718 111.67 63.9375 111.989 62.8031C112.485 61.0662 112.839 59.3293 112.804 57.5569C112.733 54.6147 111.244 51.4244 108.444 50.4673C102.56 48.4467 94.0875 53.6221 94.5483 59.7546C94.6546 61.208 94.7964 62.6259 95.0091 64.0793C95.2927 66.4188 95.7181 68.7584 96.1435 71.0625C97.3487 77.3014 98.9793 83.5048 100.61 89.5309C103.091 98.7474 105.643 107.928 108.798 116.897C111.563 124.802 116.845 135.471 123.97 140.328C128.933 143.731 135.207 144.475 141.198 144.83C155.519 145.68 169.946 144.901 184.09 142.419C187.812 141.781 191.64 140.966 194.795 138.91C199.439 135.897 199.084 132.494 200.077 127.815C201.317 122.001 203.763 117.393 200.963 111.438C200.431 110.339 199.687 109.453 198.73 108.779ZM107.841 71.4524C107.77 71.3816 107.806 71.2752 107.806 71.2043C107.806 71.2752 107.841 71.3461 107.841 71.4524Z" fill="#F5A784"/>
<path d="M110.394 73.7568C105.183 71.4172 99.4403 71.0627 96.1081 71.0982C95.6828 68.794 95.2928 66.4545 94.9738 64.115L111.953 62.8743C111.634 64.0086 111.28 65.1075 110.925 66.2418C110.146 68.865 110.039 71.3463 110.394 73.7568Z" fill="#E0855C"/>
<path d="M118.653 56.0682L88.9477 58.7268C88.5932 54.9693 85.2965 52.169 81.5036 52.5234C77.7461 52.8779 74.9458 56.1745 75.3002 59.9675L76.0801 68.794C76.4346 72.5515 79.7312 75.3519 83.5242 74.9974C87.2816 74.6429 90.082 71.3463 89.7275 67.5533L119.433 64.8947C119.787 68.6522 123.084 71.4526 126.877 71.0981C130.634 70.7436 133.435 67.447 133.08 63.6541L132.301 54.8275C131.946 51.0701 128.649 48.2697 124.856 48.6241C121.099 48.9786 118.334 52.3108 118.653 56.0682Z" fill="#00103D"/>
<path d="M100.433 63.8309C100.61 65.3552 101.177 67.0212 102.56 67.7302C103.269 68.0847 104.084 68.1201 104.864 68.1556C106.601 68.2265 108.373 68.3328 109.968 67.6238C111.918 66.7731 113.3 64.8589 113.761 62.7675C114.257 60.6761 113.974 58.4783 113.371 56.4578C112.946 55.1107 112.379 53.7637 111.244 52.913C110.571 52.4167 109.791 52.1331 108.976 51.9204C105.892 51.1051 102.56 51.2469 99.582 52.3458C97.0652 53.2674 95.8245 54.8271 97.6323 56.8122C99.8655 59.2581 100.078 60.4634 100.433 63.8309Z" fill="#F5A784"/>
<path d="M236.021 111.473C233.185 117.428 235.667 122.037 236.907 127.85C237.9 132.494 237.545 135.897 242.189 138.945C245.379 141.001 249.172 141.817 252.894 142.455C267.038 144.936 281.465 145.751 295.786 144.865C301.777 144.511 308.051 143.731 313.014 140.363C320.139 135.507 325.421 124.837 328.186 116.932C331.341 107.928 333.928 98.7473 336.374 89.5663C338.005 83.5402 339.635 77.3368 340.841 71.0979C341.266 68.7938 341.656 66.4543 341.975 64.1147C342.152 62.6968 342.294 61.2434 342.436 59.7901C342.932 53.6576 334.425 48.4821 328.54 50.5027C325.74 51.4598 324.251 54.6146 324.18 57.5923C324.145 59.3647 324.499 61.1371 324.995 62.8386C325.314 63.9729 325.669 65.0718 326.023 66.2061C326.803 68.9002 326.91 71.3815 326.555 73.7565C324.322 88.9991 311.561 102.647 302.84 114.77C302.096 115.833 301.281 116.932 300.111 117.464C299.154 117.889 298.055 117.925 297.027 117.889C286.96 117.57 277.389 113.884 267.782 110.941C261.189 108.921 245.06 103.746 238.254 108.815C237.333 109.453 236.553 110.339 236.021 111.473ZM329.178 71.2043C329.178 71.2752 329.214 71.3461 329.214 71.417C329.178 71.3461 329.178 71.2752 329.178 71.2043Z" fill="#F5A784"/>
<path d="M326.591 73.7568C331.802 71.4172 337.544 71.0627 340.876 71.0982C341.302 68.794 341.692 66.4545 342.011 64.115L325.031 62.8743C325.35 64.0086 325.705 65.1075 326.059 66.2418C326.839 68.865 326.945 71.3463 326.591 73.7568Z" fill="#E0855C"/>
<path d="M318.331 56.0682L348.037 58.7268C348.391 54.9693 351.688 52.169 355.481 52.5234C359.238 52.8779 362.039 56.1745 361.684 59.9675L360.904 68.794C360.55 72.5515 357.253 75.3519 353.46 74.9974C349.703 74.6429 346.902 71.3463 347.257 67.5533L317.551 64.8947C317.197 68.6522 313.9 71.4526 310.107 71.0981C306.35 70.7436 303.549 67.447 303.904 63.6541L304.684 54.8275C305.038 51.0701 308.335 48.2697 312.128 48.6241C315.885 48.9786 318.65 52.3108 318.331 56.0682Z" fill="#00103D"/>
<path d="M336.551 63.8309C336.374 65.3552 335.807 67.0212 334.424 67.7302C333.716 68.0847 332.9 68.1201 332.12 68.1556C330.383 68.2265 328.611 68.3328 327.016 67.6238C325.066 66.7731 323.719 64.8589 323.223 62.7675C322.727 60.6761 323.01 58.4783 323.613 56.4578C324.038 55.1107 324.641 53.7637 325.74 52.913C326.413 52.4167 327.193 52.1331 328.008 51.9204C331.092 51.1051 334.424 51.2469 337.402 52.3458C339.919 53.2674 341.16 54.8271 339.352 56.8122C337.154 59.2581 336.906 60.4634 336.551 63.8309Z" fill="#F5A784"/>
<path d="M272.603 427.775C272.32 428.165 272.036 428.484 271.717 428.732C271.186 429.122 270.547 429.441 269.909 429.689C268.669 430.221 267.286 430.505 265.833 430.647C264.699 430.788 263.564 430.824 262.43 430.753C257.042 430.647 251.654 430.718 251.654 430.718C245.486 419.161 231.023 378.751 232.228 351.74C233.433 324.764 216.879 277.37 216.879 277.37C216.844 277.511 216.808 277.689 216.738 277.831C213.122 290.06 177.709 359.715 171.364 374.143C171.222 374.497 171.081 374.816 170.974 375.1C164.168 391.37 132.974 429.016 132.974 429.016C126.097 429.406 115.356 422.104 115.356 422.104C115.356 422.104 112.556 410.583 117.377 385.592C122.198 360.601 151.194 320.864 158.461 286.054C165.728 251.245 191.215 201.157 191.215 201.157C207.627 204.17 222.126 203.603 232.583 202.256C232.973 202.22 233.327 202.149 233.682 202.078C235.631 201.83 237.475 201.511 239.141 201.192C239.779 201.086 240.381 200.944 240.948 200.838C246.797 199.668 250.129 198.498 250.129 198.498C264.876 219.377 268.421 255.817 268.421 268.295C268.421 280.773 273.667 357.34 273.667 371.838C273.738 385.663 277.602 420.367 272.603 427.775Z" fill="#00103D"/>
<path d="M272.603 427.775C272.355 428.165 272.036 428.484 271.717 428.732C271.186 429.122 270.547 429.441 269.909 429.689C271.505 392.469 264.344 355.39 261.402 318.241C259.7 296.795 261.012 275.136 258.956 253.761C257.077 234.265 249.456 217.533 239.247 201.263C239.885 201.156 240.488 201.015 241.055 200.908C252.115 214.272 258.566 231.89 260.906 248.869C263.812 270.209 261.65 292.151 263.245 313.633C264.84 335.93 267.818 358.12 270.087 380.346C271.682 395.801 273.525 411.965 272.603 427.775Z" fill="#658AE5"/>
<path d="M216.808 277.475C216.808 277.582 216.773 277.724 216.773 277.901C213.157 290.13 177.745 359.785 171.4 374.213C176.22 354.291 176.61 337.914 185.898 315.298C197.135 288.003 215.39 278.184 216.808 277.475Z" fill="#000C2D"/>
<path d="M337.757 84.4264C337.757 84.4264 334.779 117.96 325.031 133.912C315.247 149.899 262.182 143.802 262.182 143.802C262.182 143.802 250.661 186.871 256.085 198.533C261.544 210.196 237.652 212.039 230.066 211.72C222.48 211.401 182.069 212.252 182.388 204.737C182.672 197.222 188.415 194.492 187.812 183.929C187.209 173.33 186.926 143.731 186.926 143.731C186.926 143.731 152.789 151.529 131.308 146.744C109.862 141.923 100.681 102.399 100.575 89.531L114.009 84.4264C114.009 84.4264 131.521 108.389 135.526 112.218C139.567 116.046 177.249 104.88 187.316 105.163C197.383 105.447 217.234 105.66 217.234 105.66C217.234 105.66 218.652 118.173 226.734 116.932C234.781 115.727 240.736 107.397 240.736 107.397C240.736 107.397 249.881 104.774 259.807 106.794C260.161 106.865 260.516 106.936 260.906 107.042C265.408 108.035 271.93 110.02 278.346 111.686C286.818 113.884 294.9 115.621 297.559 114.061C302.38 111.225 324.641 81.307 324.641 81.307L337.757 84.4264Z" fill="#3965CF"/>
<path d="M220.885 123.206C216.525 122.71 217.234 132.281 217.269 134.55C217.305 137.279 217.446 139.973 216.56 142.667C215.78 145.078 214.15 147.134 213.122 149.402C211.846 152.274 211.349 154.471 212.484 157.449C212.732 158.123 213.654 157.839 213.547 157.165C212.59 150.785 217.446 146.886 218.581 141.108C219.219 137.953 217.127 125.51 220.991 124.305C221.665 124.057 221.488 123.242 220.885 123.206Z" fill="#00103D"/>
<path d="M226.556 123.738C223.898 127.212 224.323 130.934 224.855 135.046C225.422 139.265 225.209 142.597 223.933 146.602C223.083 149.225 222.586 150.962 222.905 153.763C222.976 154.259 223.614 154.259 223.65 153.763C224.181 149.545 226.379 145.787 226.84 141.604C227.478 135.578 224.288 130.119 227.443 124.27C227.797 123.632 226.946 123.207 226.556 123.738Z" fill="#00103D"/>
<path d="M159.134 147.843C159.134 147.843 184.799 134.408 187.847 128.027C190.86 121.682 186.961 145.184 186.961 145.184L159.134 147.843Z" fill="#2550B9"/>
<path d="M260.906 107.007C265.407 107.999 271.93 109.949 278.346 111.651C277.318 111.402 267.357 109.205 259.842 116.932C252.327 124.695 234.391 122.533 232.547 122.285C244.706 123.596 258.495 109.559 260.906 107.007Z" fill="#2550B9"/>
<path d="M127.302 458.189C126.168 465.35 120.106 462.726 114.789 462.762C109.259 462.797 103.729 462.797 98.2349 462.833C90.9326 462.868 81.4326 464.463 74.3075 462.726C70.6564 461.84 75.1228 457.693 76.3635 457.126C81.7162 454.609 87.3878 452.836 92.7759 450.426C97.8095 448.193 102.63 445.251 106.104 441.139C106.352 441.068 106.636 441.032 106.884 440.961C110.606 440.359 114.541 443.23 115.073 446.987C118.121 449.575 122.942 446.385 126.806 446.668C127.054 450.461 127.869 454.361 127.302 458.189Z" fill="#00103D"/>
<path d="M305.889 460.742C305.286 461.274 304.436 461.344 303.656 461.38C290.505 461.841 277.531 461.344 264.45 461.344C261.756 461.096 258.708 460.6 257.219 458.331C256.333 457.02 256.227 455.354 256.12 453.759C255.943 451.313 255.73 448.973 255.376 446.74C259.346 445.889 264.592 449.717 267.889 446.952C268.314 444.081 270.725 441.742 273.49 441.068C274.376 443.479 275.723 445.641 277.743 447.236C279.906 448.902 282.635 449.611 285.258 450.32C291.143 451.915 296.424 454.432 302.38 455.992C303.549 456.311 304.755 456.63 305.641 457.516C306.527 458.331 306.775 459.926 305.889 460.742Z" fill="#00103D"/>
</svg>
