<svg width="481" height="416" viewBox="0 0 481 416" fill="none" xmlns="http://www.w3.org/2000/svg">
<path d="M424.388 409.38C420.489 408.955 416.625 408.636 412.69 408.459C411.591 408.423 410.492 408.352 409.393 408.317C406.345 408.352 396.774 408.494 395.037 408.494C394.86 408.494 394.683 408.459 394.505 408.459C393.407 408.423 94.0842 408.281 94.0842 408.281C93.9424 408.281 93.8006 408.317 93.6588 408.317C89.0151 408.317 75.8639 408.281 75.8639 408.281C75.6157 408.317 75.4031 408.317 75.155 408.317C73.4535 408.423 71.752 408.565 70.0505 408.778C65.6904 409.239 65.6904 415.088 70.0505 415.513C71.752 415.69 73.418 415.832 75.155 415.974C75.3677 416.009 75.6158 416.009 75.8285 416.009C75.8285 416.009 88.1643 415.974 93.5878 415.974C93.7296 415.974 93.9069 415.974 94.0487 416.009C94.0487 416.009 393.406 415.867 394.541 415.832C394.718 415.832 394.895 415.796 395.073 415.796C396.774 415.796 406.345 415.938 409.393 415.974C410.492 415.938 411.627 415.867 412.726 415.832C416.66 415.655 420.524 415.336 424.388 414.91C427.933 414.52 427.968 409.77 424.388 409.38Z" fill="#C6C6C6"/>
<path d="M326.942 3.36C345.835 12.8246 346.58 39.3751 358.526 56.8155C380.787 89.3567 433.782 81.5936 462.565 108.534C477.772 122.749 483.657 145.364 479.899 165.853C476.177 186.342 463.7 204.598 447.677 217.891C437.078 226.682 423.502 236.536 425.132 250.184C425.735 255.04 428.287 259.4 430.095 263.973C438.213 284.391 430.13 308.602 414.923 324.483C399.716 340.363 378.66 349.225 357.569 355.393C339.029 360.817 320.029 364.504 300.816 366.418C290.253 367.446 279.37 368.013 269.587 372.16C259.803 376.308 251.792 383.823 242.363 388.785C219.853 400.66 192.665 396.797 167.603 392.472C135.345 386.942 103.052 381.164 71.5038 372.479C59.6642 369.218 47.6119 365.39 38.2182 357.52C28.8245 349.651 22.6211 336.783 25.9532 324.979C28.7536 315.054 37.3674 308.106 44.3861 300.555C51.4048 293.005 57.431 282.371 53.638 272.8C49.1716 261.527 34.7089 259.081 24.3226 252.807C13.2629 246.107 6.27957 234.02 3.16015 221.471C0.0407324 208.923 0.39524 195.771 1.13965 182.868C1.77771 171.419 2.80566 159.685 7.80382 149.37C17.3393 129.661 39.6361 119.097 61.2948 116.049C78.8415 113.603 87.7035 112.93 97.2036 95.241C108.724 73.7596 116.275 49.9385 130.879 30.4067C145.484 10.8749 170.297 -4.08407 193.799 2.58015C208.581 6.763 220.031 18.6381 234.387 24.0616C250.764 30.265 264.057 27.2873 276.712 16.972C290.04 6.01859 309.253 -5.50198 326.942 3.36Z" fill="#F6F6F6"/>
<path d="M237.4 289.85C289.012 300.733 353.35 307.078 353.35 307.078C351.826 313.53 353.102 325.936 355.477 339.619C360.227 367.056 369.408 399.668 369.408 399.668C378.873 402.362 385.856 396.903 385.856 396.903C384.509 368.864 392.024 292.296 377.668 283.434C353.74 268.653 267.212 244.477 252.678 243.414C242.646 242.74 232.863 244.371 228.503 251.85C226.659 255.005 225.809 259.259 226.305 264.789C226.376 265.462 226.447 266.171 226.553 266.809C229.495 285.278 213.65 284.852 237.4 289.85Z" fill="#F5A784"/>
<path d="M249.594 115.127C249.169 116.297 248.354 117.183 247.893 118.282C247.326 119.629 247.396 121.224 246.829 122.642C246.652 123.032 245.411 125.762 244.951 124.131C244.632 124.096 244.348 124.096 244.064 124.06C236.337 123.564 228.645 122.997 220.952 122.181C218.79 121.933 216.592 121.863 214.43 121.508C212.551 121.189 211.736 120.834 210.814 119.487C210.637 119.275 210.495 119.027 210.353 118.779C208.475 115.517 207.73 111.689 207.766 107.967C207.801 106.478 207.907 104.989 208.368 103.571C208.829 102.047 209.609 100.665 210.566 99.3885C213.437 95.5601 217.585 92.7952 222.051 91.0937C221.803 89.853 219.747 89.1086 218.967 88.0806C218.081 86.8399 217.514 85.2802 217.656 83.7205C217.762 82.5862 218.152 81.5227 218.719 80.5302C220.314 77.7652 223.256 75.7447 226.447 75.4257C229.283 75.1776 232.189 76.3119 234.104 78.3678C234.352 78.616 234.564 78.8996 234.777 79.2186C236.585 81.8772 236.727 85.5992 235.025 88.2933C234.564 89.0377 233.926 90.0302 234.493 90.7392C234.742 91.0582 235.096 91.2 235.451 91.3064C238.393 92.3344 241.335 93.5396 243.816 95.4183C247.113 97.8997 249.452 101.657 250.268 105.698C250.941 108.853 250.658 112.114 249.594 115.127Z" fill="#00103D"/>
<path d="M245.66 117.786C245.66 117.786 248.814 114.029 251.934 117.786C255.089 121.544 249.736 128.775 245.66 129.094C245.66 129.059 245.199 119.381 245.66 117.786Z" fill="#E0855C"/>
<path d="M267.779 186.838C267.708 187.937 267.637 189.071 267.531 190.206C265.936 212.751 263.632 237.493 262.781 246.107C262.745 246.71 262.462 249.262 262.462 249.262C262.462 249.262 257.357 250.609 249.311 251.637C238.074 253.055 221.165 253.799 204.611 249.262C204.611 249.262 204.575 249.014 204.54 248.518C203.973 242.917 200.357 207.292 199.152 199.919C198.975 198.855 198.762 197.756 198.549 196.657C198.159 194.779 197.734 192.9 197.273 191.021C194.047 178.26 188.836 165.357 187.17 161.458C186.887 160.749 187.135 159.933 187.808 159.543C190.113 158.09 196.351 154.935 205.036 152.985C205.639 152.879 206.206 152.737 206.844 152.631C208.581 152.312 210.389 152.028 212.303 151.887C213.402 151.78 214.501 151.674 215.635 151.638C215.706 151.603 215.812 151.603 215.883 151.638C216.557 151.568 217.23 151.532 217.904 151.532C217.904 151.532 217.904 149.299 217.797 146.179C217.727 144.372 217.656 142.316 217.514 140.224C217.372 137.211 217.018 134.163 216.734 131.788C216.699 131.539 216.663 131.327 216.628 131.114C216.628 130.866 216.769 130.972 217.018 131.15C217.195 131.291 217.407 131.433 217.656 131.61C217.726 131.646 217.797 131.717 217.868 131.788C218.435 132.178 219.038 132.532 219.712 132.957C220.775 133.595 222.087 134.269 223.611 134.907C223.859 135.013 224.107 135.084 224.355 135.191C224.426 135.226 224.533 135.262 224.603 135.297C224.922 135.439 225.206 135.51 225.561 135.616C226.624 135.935 227.723 136.29 228.857 136.502C229.531 136.644 230.24 136.75 230.984 136.857C231.48 136.928 232.012 136.963 232.544 137.034C233.607 137.14 234.706 137.14 235.84 137.069C236.797 137.034 237.719 136.963 238.641 136.786C239.137 136.75 239.598 136.644 240.094 136.538L241.051 146.747C241.051 146.782 241.441 150.965 241.441 150.965C241.441 150.965 241.76 150.965 242.327 150.965C242.54 150.965 242.788 150.965 243.036 151C244.419 151.036 246.581 151.071 249.133 151.213C251.331 151.319 253.812 151.532 256.294 151.816C257.038 151.922 257.783 151.993 258.527 152.099C262.816 152.702 269.02 152.418 269.055 155.077C269.197 162.344 268.63 174.112 267.779 186.838Z" fill="#F5A784"/>
<path d="M216.557 130.796C220.208 147.385 236.904 146.251 240.803 144.053L240.094 136.574C226.376 139.339 216.557 130.796 216.557 130.796Z" fill="#E0855C"/>
<path d="M244.951 106.868C247.042 109.03 247.219 113.887 247.397 119.275C247.928 135.581 243.036 140.65 234.706 141.536C226.376 142.422 217.691 139.232 215.883 124.131C214.997 116.581 214.04 109.597 216.769 106.336C220.881 101.515 238.535 100.204 244.951 106.868Z" fill="#F5A784"/>
<path d="M217.018 121.969C217.018 121.969 214.465 115.234 210.46 118.814C206.454 122.394 211.984 132.568 218.152 131.823C218.152 131.823 219.003 124.273 217.018 121.969Z" fill="#F5A784"/>
<path d="M212.338 121.862C213.225 122.004 214.146 122.855 214.784 123.457C215.458 124.095 216.238 124.875 216.592 125.726C216.699 126.009 216.309 126.151 216.131 126.01C215.6 125.513 215.21 124.946 214.713 124.414C214.359 124.804 214.004 125.159 213.544 125.336C213.189 125.478 212.906 125.017 213.047 124.698C213.26 124.308 213.65 124.024 214.004 123.776C213.366 123.28 212.587 122.89 212.055 122.323C211.878 122.146 212.055 121.827 212.338 121.862Z" fill="#E0855C"/>
<path d="M233.82 125.55C234.529 125.443 236.159 125.869 236.514 125.089C236.797 124.451 235.628 120.658 235.486 120.02C234.919 117.68 234.281 116.085 233.855 113.285C233.82 113.178 234.033 113.107 234.103 113.214C235.769 116.936 236.372 121.544 237.365 125.514C237.435 125.727 237.258 125.975 237.01 125.975C235.947 125.975 234.954 126.188 233.891 126.188C233.572 126.188 233.465 125.62 233.82 125.55Z" fill="#E0855C"/>
<path d="M238.676 111.335C239.669 110.838 241.583 110.697 242.292 111.725C242.434 111.902 242.256 112.221 242.008 112.185C241.512 112.15 241.051 111.902 240.555 111.866C240.023 111.831 239.492 111.937 238.995 112.114C238.535 112.292 238.216 111.547 238.676 111.335Z" fill="#00103D"/>
<path d="M223.824 112.575C224.391 111.157 226.907 111.015 227.971 111.902C228.219 112.114 228.042 112.504 227.794 112.575C227.156 112.752 226.518 112.54 225.88 112.61C225.312 112.646 224.852 112.894 224.32 113.107C224.072 113.142 223.717 112.859 223.824 112.575Z" fill="#00103D"/>
<path d="M228.964 117.042C227.865 116.581 226.589 116.545 225.419 116.652C224.426 116.723 223.15 116.864 222.441 117.644C222.37 117.715 222.37 117.857 222.512 117.892C223.469 118.034 224.462 117.609 225.419 117.538C226.553 117.432 227.617 117.68 228.751 117.751C229.141 117.786 229.318 117.183 228.964 117.042Z" fill="#00103D"/>
<path d="M241.37 116.013C240.271 116.013 239.137 116.332 238.286 117.041C237.79 117.467 238.428 118.14 238.924 117.892C239.811 117.502 240.555 117.183 241.548 117.219C242.327 117.254 243.001 117.75 243.745 117.679C244.064 117.644 244.242 117.36 244.1 117.077C243.639 116.191 242.292 116.013 241.37 116.013Z" fill="#00103D"/>
<path d="M238.109 130.086C236.514 130.405 235.096 130.937 233.43 130.654C231.906 130.405 230.842 129.484 229.46 128.987C229.176 128.881 228.999 129.236 229.105 129.448C230.594 132.32 236.23 132.71 238.535 130.831C238.889 130.547 238.499 130.016 238.109 130.086Z" fill="#E0855C"/>
<path d="M444.7 149.831C434.136 148.413 405.671 150.115 405.069 150.575C397.518 152.171 354.875 160.997 346.509 161.316C339.561 161.564 311.309 158.516 291.245 156.283C287.169 155.822 283.411 155.396 280.221 155.042C278.449 154.865 260.796 152.135 260.796 152.135C249.346 150.859 253.99 157.169 252.962 165.499C252.749 167.13 252.891 168.902 253.422 170.816C254.38 174.184 256.896 176.842 260.051 178.331C263.702 180.033 275.436 181.451 289.331 182.479C291.033 182.62 292.734 182.727 294.507 182.833C316.91 184.286 342.999 184.676 350.692 183.542C369.585 180.742 399.255 169.008 410.067 164.542C410.173 164.542 410.28 164.506 410.386 164.471C419.461 161.387 428.039 163.195 437.326 162.167C437.716 162.131 438.177 162.025 438.319 161.671C438.39 161.493 438.354 161.281 438.284 161.068C437.504 158.835 434.03 159.898 432.576 158.587C433.782 157.523 435.944 157.311 437.468 156.566C440.269 155.184 442.785 153.234 445.373 151.532C445.692 151.32 446.082 151.036 446.082 150.611C446.011 150.15 445.267 149.902 444.7 149.831Z" fill="#F5A784"/>
<path d="M25.386 149.831C35.9495 148.413 64.4141 150.115 65.0167 150.575C72.5672 152.171 115.211 160.997 123.577 161.316C130.525 161.564 158.777 158.516 178.84 156.283C182.917 155.822 186.674 155.396 189.864 155.042C191.637 154.865 209.29 152.135 209.29 152.135C220.74 150.859 216.096 157.169 217.124 165.499C217.337 167.13 217.195 168.902 216.663 170.816C215.706 174.184 213.189 176.842 210.034 178.331C206.383 180.033 194.65 181.451 180.754 182.479C179.053 182.62 177.351 182.727 175.579 182.833C153.176 184.286 127.086 184.676 119.394 183.542C100.5 180.742 70.8302 169.008 60.0186 164.542C59.9122 164.542 59.8059 164.506 59.6996 164.471C50.6249 161.387 42.0465 163.195 32.7591 162.167C32.3692 162.131 31.9084 162.025 31.802 161.671C31.7312 161.493 31.7666 161.281 31.8375 161.068C32.6174 158.835 36.0912 159.898 37.5446 158.587C36.3394 157.523 34.177 157.311 32.6528 156.566C29.8524 155.184 27.3356 153.234 24.7479 151.532C24.4289 151.32 24.0389 151.036 24.0389 150.611C24.0744 150.15 24.7834 149.902 25.386 149.831Z" fill="#F5A784"/>
<path d="M250.622 247.49C250.799 248.234 233.784 330.367 187.064 353.94C156.579 369.325 122.974 379.356 89.4758 385.595C88.0933 385.843 86.7109 386.127 85.3284 386.304C85.1512 390.026 85.6475 394.776 87.349 398.073C88.7314 400.731 90.3266 403.461 93.3042 404.56C93.8359 404.772 94.4031 404.914 94.8639 405.269C96.0692 406.261 95.5729 408.424 94.2967 409.345C93.0206 410.267 91.3191 410.373 89.7594 410.409C84.4068 410.55 78.3807 410.976 75.8284 405.659C74.2687 402.362 72.9925 398.853 71.8581 395.379C70.0503 389.884 64.6268 375.103 72.0354 373.153C96.8135 366.63 159.45 333.664 169.943 327.709C179.443 322.321 189.049 265.817 204.575 248.518C220.101 231.255 247.928 235.331 250.622 247.49Z" fill="#F5A784"/>
<path d="M367.955 394.492C368.167 396.194 368.309 397.895 368.38 399.597C368.593 403.673 365.473 408.494 369.621 411.472C371.819 413.067 374.832 412.819 377.384 412.961C382.985 413.28 388.621 413.067 394.257 412.89C397.944 412.784 401.63 412.606 405.317 412.429C408.365 412.252 413.186 412.819 415.774 411.188C416.093 410.976 416.448 410.728 416.518 410.338C416.589 410.019 416.483 409.664 416.306 409.381C415.632 408.246 414.321 407.679 413.08 407.218C407.444 405.269 401.418 404.56 395.852 402.504C391.563 400.908 387.345 398.25 384.899 394.28C383.162 391.444 383.02 388.254 379.653 386.765C374.3 384.39 367.21 388.183 367.955 394.492Z" fill="#F5A784"/>
<path d="M267.531 190.206C265.936 212.751 263.632 237.493 262.781 246.107C259.307 247.631 254.699 249.581 249.346 251.637C238.109 253.055 221.2 253.799 204.646 249.262C204.646 249.262 204.611 249.014 204.575 248.518C204.008 242.917 200.392 207.292 199.187 199.918C199.01 198.855 198.797 197.756 198.585 196.657C198.195 194.779 197.769 192.9 197.308 191.021C200.889 185.987 206.241 174.68 205.072 152.985C205.674 152.879 206.241 152.737 206.879 152.631C208.616 152.312 210.424 152.028 212.338 151.887C213.331 160.394 217.301 183.01 231.232 182.691C247.148 182.301 249.027 162.627 249.169 151.213C251.367 151.319 253.848 151.532 256.329 151.816C256.329 160.146 257.286 183.222 267.531 190.206Z" fill="#658AE5"/>
<path d="M385.927 371.805C376.498 377.832 362.46 372.833 362.46 372.833C350.373 350.501 349.451 309.842 349.451 309.842C349.451 309.842 280.257 304.702 252.855 304.702C246.9 304.702 242.398 305.908 238.712 308.035C225.277 315.762 222.016 335.507 198.336 353.975C168.135 377.548 111.914 380.845 111.914 380.845C103.761 374.783 104.222 360.71 104.222 360.71C104.222 360.71 112.73 350.289 128.717 341.249C131.623 339.583 134.814 337.953 138.217 336.464C159.592 327.106 169.907 319.13 170.545 318.633C181.144 282.654 204.363 246.072 204.363 246.072C237.825 253.906 263.135 243.307 263.135 243.307C277.74 243.307 369.763 272.977 381.815 282.654C393.867 292.296 395.392 365.744 385.927 371.805Z" fill="#3965CF"/>
<path d="M349.416 309.808C349.416 309.808 280.221 304.668 252.82 304.668C246.865 304.668 242.363 305.873 238.676 308C238.783 307.256 241.76 291.907 269.055 292.686C297.059 293.502 349.416 309.808 349.416 309.808Z" fill="#2550B9"/>
<path d="M137.012 354.365C134.849 353.621 132.155 354.33 129.887 354.401C127.866 354.471 125.455 353.975 123.719 355.145C123.399 355.358 123.293 355.819 123.612 356.102C125.243 357.52 127.866 357.272 129.922 357.272C132.297 357.272 135.239 357.591 137.331 356.35C138.11 355.854 137.898 354.684 137.012 354.365Z" fill="#658AE5"/>
<path d="M171.042 344.511C168.702 344.192 166.788 347.807 165.689 349.509C164.129 351.919 162.889 354.613 162.534 357.484C162.392 358.583 164.129 358.973 164.59 358.052C165.831 355.712 166.823 353.266 168.277 351.033C169.34 349.402 172.14 347.453 171.928 345.361C171.857 344.865 171.573 344.581 171.042 344.511Z" fill="#658AE5"/>
<path d="M188.269 317.145C186.32 316.578 184.476 317.996 182.739 318.775C180.435 319.839 178.202 320.938 176.181 322.427C175.295 323.065 175.792 324.447 176.926 324.199C179.23 323.667 181.392 322.816 183.555 321.895C185.362 321.115 188.021 320.548 188.907 318.669C189.191 318.066 188.978 317.358 188.269 317.145Z" fill="#658AE5"/>
<path d="M213.685 306.263C212.338 308.07 211.452 310.197 210.46 312.218C209.538 314.097 208.545 315.94 207.837 317.889C207.269 319.378 209.644 320.335 210.389 318.988C211.381 317.181 212.126 315.195 212.941 313.281C213.792 311.225 214.82 309.134 215.316 306.972C215.493 305.908 214.253 305.483 213.685 306.263Z" fill="#658AE5"/>
<path d="M203.441 272.765C203.299 271.985 202.2 272.091 201.988 272.765C200.499 277.55 200.57 283.08 200.322 288.078C200.215 290.134 203.37 290.099 203.512 288.078C203.795 283.08 204.434 277.656 203.441 272.765Z" fill="#658AE5"/>
<path d="M231.587 266.703C230.736 264.647 228.325 263.371 226.553 262.165C225.029 261.137 222.583 259.294 220.669 259.897C220.279 260.003 220.031 260.428 220.137 260.818C220.562 262.555 222.937 263.725 224.32 264.682C226.021 265.887 227.829 268.014 229.885 268.44C230.771 268.652 232.048 267.802 231.587 266.703Z" fill="#658AE5"/>
<path d="M264.837 278.295C260.051 278.401 254.699 279.003 250.019 280.173C248.921 280.457 249.204 282.017 250.268 282.087C255.089 282.406 260.441 281.981 265.227 281.201C266.893 280.953 266.467 278.259 264.837 278.295Z" fill="#658AE5"/>
<path d="M279.3 255.324C277.492 254.083 274.939 254.509 272.812 254.402C270.473 254.296 268.062 253.977 265.758 254.438C265.156 254.579 265.049 255.466 265.581 255.749C267.673 256.919 270.225 257.203 272.564 257.522C274.762 257.805 277.279 258.479 279.264 257.309C280.079 256.848 280.008 255.82 279.3 255.324Z" fill="#658AE5"/>
<path d="M300.568 278.081C300.143 276.167 298.69 274.395 297.626 272.764C296.563 271.098 295.535 269.255 294.152 267.872C293.408 267.092 292.025 267.872 292.344 268.936C292.912 270.814 294.01 272.622 294.932 274.324C295.854 276.025 296.705 278.152 298.158 279.464C299.257 280.385 300.887 279.464 300.568 278.081Z" fill="#658AE5"/>
<path d="M333.57 277.408C329.6 276.061 324.815 275.671 320.773 276.912C319.675 277.267 319.958 278.72 321.022 278.826C324.992 279.252 328.785 279.606 332.684 280.563C334.74 281.059 335.52 278.082 333.57 277.408Z" fill="#658AE5"/>
<path d="M346.828 299.634C345.977 298.003 343.815 297.046 342.291 296.089C340.554 294.99 338.888 293.927 337.009 293.182C336.016 292.792 335.378 294.21 336.016 294.884C337.434 296.372 339.1 297.507 340.766 298.712C342.291 299.811 343.85 301.335 345.765 301.512C346.757 301.619 347.218 300.378 346.828 299.634Z" fill="#658AE5"/>
<path d="M371.358 290.524C370.401 288.539 367.459 288.042 365.509 287.369C362.992 286.483 360.44 285.384 357.746 285.242C357.108 285.207 356.682 286.128 357.214 286.554C359.128 288.113 361.539 288.964 363.807 289.921C365.863 290.772 368.664 292.651 370.862 291.764C371.393 291.516 371.641 291.02 371.358 290.524Z" fill="#658AE5"/>
<path d="M368.947 307.716C367.069 312.218 364.126 318.35 365.473 323.313C365.651 324.022 366.608 324.128 366.998 323.526C368.309 321.363 368.522 318.811 369.018 316.401C369.585 313.671 370.153 310.942 370.826 308.248C371.181 306.972 369.444 306.582 368.947 307.716Z" fill="#658AE5"/>
<path d="M369.266 354.294C368.664 352.416 366.998 350.856 365.722 349.332C364.233 347.559 362.779 345.716 360.936 344.263C360.192 343.695 359.235 344.369 359.66 345.255C360.653 347.347 362.106 349.19 363.524 351.033C364.729 352.593 365.828 354.613 367.529 355.606C368.38 356.102 369.585 355.251 369.266 354.294Z" fill="#658AE5"/>
<path d="M383.552 330.757C383.481 327.603 383.304 324.448 383.02 321.328C382.914 320.158 381.319 320.158 381.177 321.328C380.858 324.483 380.716 327.603 380.645 330.757C380.574 333.558 380.255 336.464 381.106 339.123C381.425 340.116 382.808 340.116 383.127 339.123C383.942 336.464 383.623 333.522 383.552 330.757Z" fill="#658AE5"/>
<path d="M153.211 339.868C144.278 341.675 135.345 341.675 128.681 341.215C131.588 339.549 134.778 337.918 138.181 336.429C159.556 327.071 169.872 319.095 170.51 318.599C170.51 318.599 170.935 336.252 153.211 339.868Z" fill="#2550B9"/>
<path d="M144.881 106.549C131.872 104.706 118.827 103.643 105.888 101.409C99.6139 100.31 93.3397 99.0698 87.1363 97.7227C81.3583 96.4821 75.5094 94.7806 69.5896 95.3477C68.9161 95.4186 68.668 96.482 69.4124 96.5884C94.3323 100.984 119.11 108.074 144.562 108.96C145.909 108.995 146.263 106.727 144.881 106.549Z" fill="#658AE5"/>
<path d="M167.107 87.2301C158.989 81.2394 150.056 76.0286 141.442 70.7469C140.485 70.1797 139.706 71.5976 140.592 72.2002C148.816 78.0846 157.11 84.2525 165.831 89.3925C167.284 90.2787 168.418 88.1872 167.107 87.2301Z" fill="#658AE5"/>
<path d="M306.453 55.4333C300.604 59.368 295.393 64.4725 290.182 69.1871C285.113 73.7244 278.91 78.3681 275.329 84.1815C275.01 84.7132 275.648 85.2805 276.145 84.9969C281.852 81.7711 286.531 76.2766 291.387 71.952C296.846 67.0956 302.872 62.5937 307.977 57.3829C308.899 56.3904 307.622 54.6179 306.453 55.4333Z" fill="#658AE5"/>
<path d="M359.128 98.041C347.749 98.679 336.371 99.3171 324.992 99.9906C314.428 100.629 303.404 100.558 292.982 102.472C291.99 102.649 292.309 104.103 293.195 104.173C304.078 104.953 315.279 103.642 326.162 103.075C337.151 102.543 348.139 101.94 359.128 101.338C361.22 101.231 361.255 97.9346 359.128 98.041Z" fill="#658AE5"/>
<path d="M223.788 83.366C222.831 88.0451 227.9 90.7037 228.609 91.0582C224.745 90.3138 222.051 91.0937 222.051 91.0937C221.803 89.853 219.747 89.1086 218.967 88.0806C218.081 86.8399 217.514 85.2802 217.656 83.7205C217.762 82.5862 218.152 81.5227 218.719 80.5302C220.314 77.7652 223.256 75.7447 226.447 75.4257C229.283 75.1776 232.189 76.3119 234.103 78.3678C228.964 77.3399 224.745 78.7223 223.788 83.366Z" fill="#000C2D"/>
<path d="M241.831 217.288C239.952 217.182 237.932 218.033 236.266 218.671C235.131 219.132 234.033 219.663 232.898 220.16C231.87 220.585 230.842 220.975 229.779 221.4C226.908 219.663 226.305 217.997 227.971 216.367C230.133 211.829 236.833 209.277 240.626 206.264C245.163 202.648 249.63 195.559 241.087 193.999C232.579 192.439 218.648 197.083 213.898 204.527C213.65 204.882 214.111 205.271 214.465 205.094C218.896 202.896 222.335 199.706 227.12 198.005C228.857 197.367 230.665 196.906 232.508 196.551C234.848 196.126 245.589 193.964 242.54 201.62C241.441 204.385 236.833 206.441 234.458 208.072C231.941 209.809 229.318 211.546 227.333 213.885C225.631 215.87 222.725 220.23 225.312 222.641C227.191 224.413 229.885 223.208 231.906 222.428C233.075 221.967 234.21 221.365 235.344 220.869C238.854 218.316 241.37 219.699 242.93 224.98C241.76 226.15 240.413 227.107 238.995 227.958C238.038 228.525 238.924 230.014 239.846 229.411C242.327 227.816 247.148 224.697 246.794 221.152C246.546 218.529 244.135 217.395 241.831 217.288Z" fill="#3965CF"/>
</svg>
