<svg width="296" height="231" viewBox="0 0 296 231" fill="none" xmlns="http://www.w3.org/2000/svg">
<path d="M1.84191 166.509C0.640477 162.794 -0.538701 158.856 0.262252 155.029C1.0632 151.113 3.82204 147.865 5.51294 144.216C11.0529 132.224 4.534 118.585 2.57611 105.57C-0.382962 85.9467 8.29403 65.0329 24.4021 52.9519C40.5101 40.8486 63.3817 38.0898 82.0039 45.9658C96.421 52.0619 108.191 63.8982 123.475 67.369C133.265 69.5939 143.499 68.1255 153.533 67.8363C168.173 67.4135 183.124 69.5939 196.206 76.0238C209.289 82.4536 220.368 93.4445 224.952 107.061C228.667 118.096 228.089 130.288 232.605 141.057C239.413 157.298 256.167 166.91 270.784 177.077C280.128 183.574 289.807 192.451 289.451 203.664C289.161 212.898 281.73 219.973 273.543 223.443C263.108 227.871 253.163 226.136 242.105 226.291C205.996 226.803 169.886 227.315 133.777 227.804C130.017 227.849 126.168 227.893 122.674 226.558C120.005 225.535 117.713 223.755 115.332 222.22C108.302 217.681 102.361 216.747 94.4186 215.99C86.0531 215.189 78.0436 212.341 69.5224 211.852C55.3055 211.029 37.3953 209.961 24.936 202.641C11.9206 195.01 6.1804 179.97 1.84191 166.509Z" fill="#F6F6F6"/>
<path d="M294.323 226.625C291.876 226.358 289.451 226.158 286.981 226.047C286.291 226.024 87.0098 225.935 87.0098 225.935C86.8541 225.958 86.7206 225.958 86.5649 225.958C86.3424 225.98 86.1199 226.002 85.8974 226.024C85.8084 226.024 9.11724 225.935 9.11724 225.935C8.9615 225.958 8.82801 225.958 8.67227 225.958C7.60433 226.024 6.53639 226.113 5.46846 226.247C2.73187 226.536 2.73187 230.207 5.46846 230.474C6.53639 230.585 7.58208 230.674 8.67227 230.763C8.80576 230.786 8.9615 230.786 9.09499 230.786C9.09499 230.786 85.7417 230.674 85.7639 230.674C86.0309 230.697 86.2979 230.719 86.5649 230.741C86.6984 230.763 86.8541 230.763 86.9876 230.763C86.9876 230.763 286.314 230.674 287.003 230.652C289.473 230.541 291.898 230.341 294.323 230.074C296.548 229.873 296.57 226.87 294.323 226.625Z" fill="#C6C6C6"/>
<path d="M116.4 129.065C112.351 140.767 99.8251 158.744 99.8251 158.744L56.8184 140.879C56.9297 139.321 54.7938 130.778 55.1498 127.752C55.172 127.485 55.2388 127.263 55.3055 127.085C55.439 126.751 55.5948 126.395 55.7505 126.061C56.4847 124.481 57.2189 122.991 57.7974 121.923C58.3759 120.833 58.7763 120.165 58.7763 120.165C58.7763 120.165 57.7529 118.029 54.5936 116.516C52.7692 115.626 50.2551 114.937 46.851 114.959C46.6286 114.959 46.4283 114.959 46.2503 114.937C42.6238 114.714 43.9587 112.133 46.5396 109.375C49.5876 106.037 54.4156 102.455 54.4156 102.455L65.4732 109.597C66.0961 109.931 67.1863 109.13 68.321 107.773C69.3889 106.549 70.4791 104.836 71.3468 103.078C71.9253 101.944 72.3925 100.764 72.6818 99.6964C73.0377 98.3615 78.6666 102.01 85.8085 107.15C93.1505 112.423 102.095 119.297 108.547 123.925C112.24 126.684 115.132 128.62 116.4 129.065Z" fill="#F5A784"/>
<path d="M272.898 223.51C271.874 229.606 261.417 222.999 258.925 221.508C257.412 220.596 256.078 220.04 254.431 219.439C254.142 219.328 251.072 218.059 250.849 218.326C250.849 218.326 247.601 217.614 242.506 216.28C233.962 214.032 220.19 210.05 207.642 204.755C187.596 196.3 174.736 192.562 164.947 190.983C163.657 190.783 162.077 190.471 160.252 190.115C148.283 187.712 126.479 182.017 115.466 173.473C108.747 168.267 103.785 163.239 100.604 159.657C97.7782 156.453 96.3542 154.428 96.3542 154.428C96.3542 154.428 98.3344 153.916 101.004 151.069C103.073 148.844 105.587 145.195 107.768 139.188C107.857 138.943 107.924 138.765 107.968 138.609C107.968 138.609 108.702 138.854 109.926 139.321C115.377 141.346 130.528 147.442 130.951 152.47C130.951 152.47 130.973 152.493 131.062 152.537C133.065 153.36 171.644 170.603 171.755 170.67C179.475 174.23 250.716 210.317 251.962 210.962C255.922 213.098 260.438 214.322 264.621 215.99C267.291 216.991 273.52 219.684 272.898 223.51Z" fill="#F5A784"/>
<path d="M85.7639 19.9349C85.7639 19.9349 84.429 15.9968 84.8962 11.9921C85.2077 9.18874 84.9407 2.95912 83.7838 1.22372C83.7838 1.22372 83.4946 0.956735 82.9606 0.667502C82.8939 0.623004 82.8049 0.578509 82.7159 0.55626C82.2264 0.311525 81.6034 0.089039 80.8247 0.0445416C80.7802 0.0445416 80.7135 0.0222967 80.6467 0.0222967C80.1128 4.80339e-05 79.4898 0.044542 78.8446 0.24478C78.8001 0.267029 78.7334 0.289278 78.6889 0.289278C78.1994 0.445019 77.6654 0.667505 77.1092 1.00124C77.1092 1.00124 77.6877 7.29761 77.1315 9.34449C77.1315 9.34449 75.7965 5.67346 74.5951 5.49547L73.8164 5.80695C73.8164 5.80695 74.7953 9.90071 75.0846 11.7696C75.752 16.3083 79.2673 19.3341 79.2673 19.3341C79.2673 19.3341 84.3845 22.9384 85.7639 19.9349Z" fill="#F5A784"/>
<path d="M78.8445 0.244751C78.8 0.267 78.7332 0.289249 78.6887 0.289249C79.1782 3.07033 79.2004 5.87367 79.3117 8.74374C79.3117 8.78824 79.4007 8.81049 79.4229 8.74374C79.9124 5.89591 79.5342 3.02584 78.8445 0.244751Z" fill="#E0855C"/>
<path d="M80.8247 0.0222534C80.7802 0.0222534 80.7135 0.0222487 80.6467 0C81.1362 2.80333 81.1585 5.58442 81.2697 8.4545C81.2697 8.49899 81.3587 8.52125 81.3587 8.47675C81.8704 5.65117 81.5144 2.80334 80.8247 0.0222534Z" fill="#E0855C"/>
<path d="M82.9606 0.667516C82.8938 0.623019 82.8048 0.578523 82.7158 0.556274C83.1385 3.20387 83.1608 5.85146 83.272 8.54355C83.272 8.58805 83.361 8.6103 83.361 8.5658C83.9173 5.91821 83.5613 3.27061 82.9606 0.667516Z" fill="#E0855C"/>
<path d="M79.957 115.471C79.957 115.471 67.2085 119.431 70.5458 107.506C74.8398 92.1985 81.0027 67.7917 81.7146 58.1803C82.4266 48.5688 78.9781 17.0425 78.9781 17.0425L84.9852 16.286C84.9852 16.286 91.7711 47.2339 91.8378 59.4262C91.9045 71.5962 89.6129 112.378 79.957 115.471Z" fill="#F5A784"/>
<path d="M63.404 108.307C61.8466 113.268 57.6638 115.515 54.5935 116.539C52.7691 115.649 50.255 114.959 46.851 114.981C46.6285 114.981 46.4283 114.981 46.2503 114.959L44.8708 114.269C44.8708 114.269 45.4716 112.156 46.5395 109.397C49.5876 106.06 54.4155 102.478 54.4155 102.478L63.404 108.307Z" fill="#E0855C"/>
<path d="M51.946 108.284C51.4788 109.597 50.9448 110.843 50.3663 111.978C48.9646 114.692 47.3182 117.429 47.1625 120.477C46.9623 124.637 49.5654 128.887 48.1414 132.802C47.4517 134.738 45.8721 136.206 45.0489 138.075C45.0044 138.142 44.9821 138.231 44.9599 138.298C43.803 141.146 44.6484 144.349 45.2491 147.353C45.8276 150.357 46.0723 153.827 44.0477 156.141C42.8685 157.498 41.0886 158.188 39.3087 158.477C35.3262 159.1 30.6762 157.432 29.1856 153.672C27.072 148.376 31.9444 141.769 28.9853 136.874C27.9619 135.205 26.2265 134.137 25.0696 132.58C19.8634 125.616 27.5169 118.585 27.0942 111.444C26.9162 108.574 25.3366 105.904 25.3588 103.011C25.3811 97.8719 29.6528 91.4865 34.0135 88.9279C38.2853 86.4583 43.2022 86.5696 47.4295 88.8835C49.7878 90.1739 51.4342 92.154 52.4354 94.4456C54.1931 98.5616 53.5034 103.835 51.946 108.284Z" fill="#00103D"/>
<path d="M47.1403 120.499C46.9401 124.659 49.5431 128.909 48.1192 132.825C47.4295 134.76 45.8499 136.229 45.0267 138.098C43.9142 136.451 43.3803 134.427 43.6695 132.469C43.8697 131.134 44.4037 129.866 44.6039 128.531C45.0044 125.772 43.9365 122.991 42.5348 120.61C41.6671 119.142 39.6647 116.605 40.3099 114.737C40.9329 112.89 43.536 114.514 43.8475 112.222C43.9142 111.622 43.803 111.021 43.803 110.42C43.7807 109.441 44.0477 108.418 44.6929 107.706C45.5384 106.749 46.9178 106.393 48.186 106.505C49.6099 106.616 50.9003 107.305 51.9015 108.307C51.4343 109.619 50.9003 110.865 50.3218 112C48.9424 114.692 47.296 117.451 47.1403 120.499Z" fill="#000C2D"/>
<path d="M51.8569 93.6894C48.6308 91.9762 45.7385 90.708 43.6916 90.9083C34.7477 91.776 30.2534 102.433 33.8355 107.35C35.1704 109.174 37.7067 110.888 40.9995 112.534C40.1763 113.046 39.1084 114.047 39.8204 115.515C40.6658 117.273 44.5816 116.516 46.9399 114.892C54.6157 116.717 59.021 111.622 60.6674 108.729C62.514 105.592 61.6686 98.9178 51.8569 93.6894Z" fill="#F5A784"/>
<path d="M49.9214 98.4949C49.9214 98.4949 50.7001 97.8497 49.1649 97.1155C47.7855 96.4703 47.6075 97.16 47.6075 97.16C47.6075 97.16 47.2738 97.7385 48.4752 98.3169C49.6989 98.8954 49.9214 98.4949 49.9214 98.4949Z" fill="#00103D"/>
<path d="M45.6052 106.482C45.6052 106.482 46.3839 105.837 44.8488 105.103C43.4693 104.458 43.2913 105.147 43.2913 105.147C43.2913 105.147 42.9576 105.726 44.1591 106.304C45.3605 106.883 45.6052 106.482 45.6052 106.482Z" fill="#00103D"/>
<path d="M50.6333 104.635C50.8113 104.168 51.6122 103.367 51.2785 102.9C50.9893 102.522 48.3639 101.899 47.9412 101.788C47.4517 101.654 47.029 101.543 46.584 101.432C46.584 101.387 46.5618 101.32 46.5618 101.276C46.5618 101.165 46.584 101.053 46.6063 100.942C48.3639 101.432 50.1216 102.077 51.7902 102.544C51.946 102.589 52.0127 102.767 51.946 102.9C51.59 103.501 51.3675 104.19 51.0115 104.813C50.9003 105.014 50.5443 104.88 50.6333 104.635Z" fill="#E0855C"/>
<path d="M44.9377 96.8486C44.9822 96.0699 45.5384 94.9129 46.4061 94.8462C46.5618 94.8239 46.6731 95.0242 46.5841 95.1577C46.4061 95.4469 46.0946 95.6249 45.9166 95.9141C45.6941 96.2256 45.6051 96.5593 45.5161 96.9376C45.4494 97.2268 44.9154 97.1823 44.9377 96.8486Z" fill="#00103D"/>
<path d="M41.1331 105.57C40.4879 104.747 41.2444 103.234 42.1343 102.9C42.3346 102.834 42.5126 103.056 42.4681 103.234C42.3791 103.657 42.0008 103.968 41.8228 104.369C41.6671 104.725 41.6449 105.081 41.5781 105.437C41.5559 105.637 41.2666 105.726 41.1331 105.57Z" fill="#00103D"/>
<path d="M52.3243 106.949C52.9473 106.527 53.548 106.282 53.9707 105.615C54.3044 105.103 54.3712 104.369 54.8384 103.968C54.9052 103.901 55.0386 103.901 55.0831 104.013C55.4391 104.725 54.9052 105.77 54.4824 106.371C54.0375 107.016 53.3255 107.661 52.5023 107.661C52.1241 107.661 52.0351 107.172 52.3243 106.949Z" fill="#E0855C"/>
<path d="M31.366 108.863C33.4129 110.865 35.7713 113.557 38.6859 114.113C44.6707 115.226 38.3744 106.148 37.8627 104.547C37.3954 103.056 37.3732 101.432 36.995 99.9188C36.7947 99.0733 35.3486 97.3824 35.4598 96.6705C35.571 95.9363 37.1507 95.0241 37.5957 94.3789C38.7971 92.599 40.2433 91.976 41.8229 92.8882C43.4026 93.8004 44.4928 90.6856 46.0502 91.1973C47.6076 91.709 43.6028 89.7957 43.6028 89.7957L36.0828 91.1306L31.7665 96.804L30.6318 103.634L31.366 108.863Z" fill="#00103D"/>
<path d="M66.808 141.123C67.0527 154.562 65.1616 170.625 64.0046 177.455C62.9812 183.463 59.5771 194.854 56.3956 204.777C53.214 214.678 50.2994 223.088 50.2994 223.088L49.9435 224.422C49.543 225.891 48.2081 226.892 46.6952 226.87L30.2979 226.625C29.4302 226.603 29.1409 225.49 29.8529 225.023C33.1235 222.887 41.3777 221.552 42.2899 220.907C42.6014 220.685 43.0909 219.617 43.6471 218.237C43.6471 218.237 52.9693 186.622 53.8147 177.033C54.6602 167.421 51.0114 143.793 52.769 131.556C53.0138 129.888 53.3475 128.464 53.748 127.24C54.7047 124.326 56.0173 122.635 57.2633 121.611C59.3324 119.965 61.268 120.21 61.268 120.21C62.7587 120.966 63.8711 122.679 64.7166 125.082C66.1182 129.042 66.6967 134.783 66.808 141.123Z" fill="#F5A784"/>
<path d="M108.524 123.992C106.144 129.443 101.894 138.898 95.5088 148.287C95.3086 148.577 95.1306 148.866 94.9081 149.155C94.4854 149.778 94.0627 150.423 93.6177 151.046C93.3507 151.447 93.106 151.825 92.8167 152.203C92.1715 153.138 91.4818 154.05 90.7921 154.984L66.8748 145.061C66.719 144.461 66.808 141.012 63.4485 136.251C61.5351 133.536 58.5315 130.466 53.748 127.24C54.7047 124.326 56.0174 122.635 57.2633 121.611C57.4191 121.722 57.5971 121.834 57.7751 121.967C59.466 123.08 61.9578 124.459 64.7166 125.104C67.8315 125.816 71.3023 125.616 74.3281 123.013C79.7567 118.296 72.9487 111.533 68.2764 107.839C69.3444 106.616 70.4346 104.902 71.3022 103.145C74.4838 104.702 79.8012 106.838 85.7639 107.216C93.1282 112.511 102.072 119.364 108.524 123.992Z" fill="#FA763C"/>
<path d="M277.236 214.678C274.811 217.726 268.648 214.833 266.112 213.587C262.085 211.585 258.147 209.049 253.92 207.491C252.518 206.98 251.116 206.468 249.715 205.934C241.015 202.663 232.427 199.126 223.684 195.966C222.994 195.722 103.919 148.621 103.919 148.621C105.899 144.906 107.123 141.769 107.79 139.188C108.213 137.586 108.435 136.251 108.547 135.094C108.903 131.223 107.946 129.398 107.946 129.398C107.946 129.398 110.66 129.065 115.31 129.065C120.071 129.087 126.857 129.443 134.867 130.889C149.417 133.537 169.664 147.309 178.808 154.361C179.609 154.984 180.321 155.541 180.944 156.03C188.664 162.26 200.011 169.335 219.701 178.613C232.761 184.775 245.621 192.918 252.807 197.702C256.456 200.127 258.636 201.707 258.636 201.707C258.592 202.04 261.573 203.464 261.862 203.62C263.42 204.443 264.71 205.066 266.401 205.6C269.16 206.468 281.085 209.827 277.236 214.678Z" fill="#F5A784"/>
<path d="M178.83 154.361C176.338 160.28 173.824 165.664 171.399 170.447C170.732 171.76 170.064 173.05 169.419 174.296C160.097 170.38 120.361 154.962 107.79 150.09C109.392 147.42 111.083 144.149 112.663 140.323C114.042 136.985 115.332 133.247 116.356 129.065C121.028 129.131 127.436 129.554 134.889 130.889C149.417 133.537 169.664 147.331 178.83 154.361Z" fill="#00103D"/>
<path d="M171.377 170.447C162.388 166.331 130.951 152.448 130.951 152.448C130.573 148.087 119.226 142.948 112.618 140.345C111.038 144.171 109.347 147.42 107.746 150.112C103.919 156.497 100.604 159.657 100.604 159.657C103.785 163.239 108.747 168.267 115.466 173.473C126.479 182.016 148.283 187.734 160.252 190.115C162.633 186.377 165.548 181.505 168.685 175.609C154.468 167.221 132.709 153.56 131.062 152.515C133.065 153.382 162.7 166.487 171.377 170.447Z" fill="#00103D"/>
<path d="M246.288 207.958C238.612 203.998 230.825 200.238 223.216 196.144C215.585 192.05 171.51 170.536 171.377 170.469C170.709 171.782 170.042 173.072 169.397 174.318C169.152 174.763 168.93 175.186 168.707 175.631C172.222 177.7 175.27 179.458 177.451 180.615C188.575 186.511 244.553 207.313 246.288 207.958Z" fill="#E0855C"/>
<path d="M171.377 170.447C162.678 166.465 133.042 153.36 131.062 152.492C132.709 153.538 154.49 167.199 168.685 175.587C168.907 175.164 169.152 174.719 169.374 174.274C170.064 173.072 170.709 171.782 171.377 170.447Z" fill="#000C2D"/>
<path d="M127.925 152.47C122.697 152.648 118.291 149.133 113.575 147.442C113.196 147.309 112.885 147.887 113.196 148.132C115.533 150.045 118.514 151.269 121.295 152.381C123.475 153.249 125.767 154.317 128.103 153.627C128.748 153.449 128.615 152.448 127.925 152.47Z" fill="#000C2D"/>
<path d="M82.0262 132.869C81.9817 132.313 81.203 132.202 81.0473 132.758C80.5133 134.694 80.2686 136.54 78.9559 138.164C77.7768 139.633 76.0414 140.634 74.1502 140.834C73.2825 140.923 73.2825 142.258 74.1725 142.214C78.6667 141.902 82.4045 137.408 82.0262 132.869Z" fill="#FF5C15"/>
<path d="M92.3717 115.626C92.1715 114.87 90.9255 115.048 91.0145 115.849C91.1925 117.673 90.9478 119.32 89.9243 120.877C88.8564 122.501 87.388 122.857 85.8973 123.903C85.3634 124.281 85.7193 125.038 86.3645 124.926C90.4583 124.17 93.4174 119.72 92.3717 115.626Z" fill="#FF5C15"/>
<path d="M272.898 223.51C271.874 229.606 261.417 222.999 258.925 221.508C257.412 220.596 256.078 220.04 254.431 219.439C254.142 219.328 251.072 218.059 250.849 218.326C250.849 218.326 247.601 217.614 242.506 216.279C243.819 214.9 245.354 213.565 246.377 212.052C247.045 211.051 247.668 210.028 248.224 208.982C249.492 209.649 250.738 210.295 251.984 210.962C255.944 213.098 260.461 214.322 264.643 215.99C267.291 216.991 273.521 219.684 272.898 223.51Z" fill="#FA763C"/>
<path d="M277.236 214.677C274.811 217.725 268.648 214.833 266.112 213.587C262.085 211.585 258.147 209.048 253.919 207.491C252.518 206.979 251.116 206.468 249.714 205.934C250.916 203.264 251.872 200.483 252.807 197.724C256.456 200.149 258.636 201.729 258.636 201.729C258.592 202.062 261.573 203.486 261.862 203.642C263.42 204.465 264.71 205.088 266.401 205.622C269.16 206.468 281.085 209.827 277.236 214.677Z" fill="#FA763C"/>
<path d="M75.4627 148.644L66.897 145.084C66.7413 144.483 66.8303 141.035 63.4707 136.273C63.4707 136.251 70.0786 139.744 75.4627 148.644Z" fill="#FF5C15"/>
<path d="M66.2294 63.4088C64.3606 57.0234 61.5795 50.8382 59.3991 44.5419C57.5525 39.2467 56.3733 32.8613 52.7912 28.3893C52.5688 28.1001 51.9458 28.1446 52.0125 28.6118C52.1015 29.3683 52.057 29.3015 52.591 29.8355C52.5243 30.1915 52.7023 30.5697 53.2362 30.9479C53.7479 31.9936 54.1707 33.0838 54.5489 34.1962C54.9494 35.3532 55.3053 36.5323 55.6613 37.6893C56.618 40.7818 57.6192 43.8522 58.6649 46.9002C60.6005 52.5736 62.4694 58.4918 65.2728 63.8092C65.5397 64.3877 66.3852 63.9872 66.2294 63.4088Z" fill="#2550B9"/>
<path d="M153.422 32.0604C146.525 37.0663 140.429 43.4072 134.244 49.2586C127.703 55.4437 121.095 61.6066 115.043 68.2812C114.598 68.7707 115.288 69.4159 115.777 68.9932C122.296 63.1195 128.481 56.8677 134.867 50.8383C141.208 44.8534 148.171 39.2689 154.023 32.8168C154.379 32.4164 153.867 31.7266 153.422 32.0604Z" fill="#2550B9"/>
<path d="M161.943 67.2801C156.248 68.9042 150.93 71.9968 145.657 74.6222C139.984 77.4477 134.132 80.1621 128.77 83.5216C128.303 83.8109 128.637 84.6786 129.193 84.4561C134.689 82.2312 139.984 79.3611 145.346 76.7803C150.997 74.0437 157.138 71.6631 162.322 68.0588C162.677 67.7696 162.433 67.1466 161.943 67.2801Z" fill="#2550B9"/>
<path d="M169.374 98.9845C160.809 97.4494 151.197 96.8042 142.565 97.8276C141.964 97.8944 141.986 98.7176 142.587 98.7621C151.42 99.5853 160.319 100.008 169.174 100.787C170.198 100.898 170.398 99.1625 169.374 98.9845Z" fill="#2550B9"/>
</svg>
